<?xml version="1.0" encoding="iso-8859-1"?>
<!-- Generator: Adobe Illustrator 19.0.0, SVG Export Plug-In . SVG Version: 6.00 Build 0)  -->
<svg version="1.1" id="Layer_1" xmlns="http://www.w3.org/2000/svg" xmlns:xlink="http://www.w3.org/1999/xlink" x="0px" y="0px"
	 viewBox="0 0 490 490" style="enable-background:new 0 0 490 490;" xml:space="preserve">
<g>
	<g>
		<g>
			<path d="M480,105H10c-5.523,0-10,4.477-10,10v260c0,5.523,4.477,10,10,10h470c5.523,0,10-4.477,10-10V115
				C490,109.477,485.523,105,480,105z M470,365H20V125h450V365z"/>
			<path d="M45,305.4h0.2c19.111,0,34.722,15.539,34.8,34.641c0.022,5.507,4.493,9.959,10,9.959h310.5
				c5.475,0,9.932-4.403,9.999-9.877c0.236-19.146,15.426-34.267,34.583-34.423c5.49-0.045,9.918-4.509,9.918-10V195
				c0-5.523-4.477-10-10-10h-0.2c-19.189,0-34.8-15.612-34.8-34.8V150c0-5.523-4.477-10-10-10H90c-5.523,0-10,4.477-10,10v0.2
				c0,19.189-15.612,34.8-34.8,34.8H45c-5.523,0-10,4.477-10,10v100.4C35,300.923,39.477,305.4,45,305.4z M55,204.123
				c22.378-4.057,40.066-21.745,44.123-44.123h291.753c4.057,22.378,21.745,40.067,44.123,44.123v82.548
				c-10.695,2.031-20.535,7.197-28.385,15.022c-7.844,7.82-13.039,17.633-15.108,28.307H99.048
				c-4.197-22.171-21.83-39.682-44.048-43.719V204.123z"/>
			<rect x="430" y="325" width="25" height="20"/>
			<rect x="430" y="145" width="25" height="20"/>
			<rect x="35" y="145" width="25" height="20"/>
			<rect x="35" y="325" width="25" height="20"/>
			<path d="M245,310c35.841,0,65-29.159,65-65s-29.159-65-65-65s-65,29.159-65,65S209.159,310,245,310z M245,200
				c24.813,0,45,20.187,45,45s-20.187,45-45,45s-45-20.187-45-45S220.187,200,245,200z"/>
			<rect x="330" y="235" width="40" height="20"/>
			<rect x="120" y="235" width="40" height="20"/>
		</g>
	</g>
</g>
<g>
</g>
<g>
</g>
<g>
</g>
<g>
</g>
<g>
</g>
<g>
</g>
<g>
</g>
<g>
</g>
<g>
</g>
<g>
</g>
<g>
</g>
<g>
</g>
<g>
</g>
<g>
</g>
<g>
</g>
</svg>
