<?xml version="1.0" encoding="UTF-8"?>
<svg width="100px" height="100px" viewBox="0 0 100 100" version="1.1" xmlns="http://www.w3.org/2000/svg" xmlns:xlink="http://www.w3.org/1999/xlink">
    <!-- Generator: Sketch 53.2 (72643) - https://sketchapp.com -->
    <title>send</title>
    <desc>Created with Sketch.</desc>
    <g id="Dashboards" stroke="none" stroke-width="1" fill="none" fill-rule="evenodd">
        <g id="Send-confimation" transform="translate(-138.000000, -162.000000)">
            <g id="send" transform="translate(138.000000, 162.000000)">
                <path d="M99.9812823,1.88738341 C99.9660615,1.77214098 99.9486663,1.66124733 99.913876,1.54817929 C99.8769113,1.42423933 99.8269002,1.31117129 99.7703659,1.19592886 C99.7399243,1.13287169 99.7290524,1.06546574 99.6920876,1.00458295 C99.6681693,0.965444013 99.6290302,0.939351389 99.600763,0.902386837 C99.529008,0.80236511 99.4442065,0.715389696 99.3550563,0.626239896 C99.2659061,0.537090096 99.1767559,0.454463452 99.0745593,0.382708734 C99.0375946,0.35661611 99.0136762,0.319651559 98.9767115,0.297907705 C98.9158284,0.260943154 98.8484221,0.252245612 98.7853647,0.221804217 C98.6657729,0.163095812 98.5483555,0.113084949 98.4222406,0.0761203974 C98.3156952,0.0478533877 98.2113242,0.0326326901 98.1026044,0.0195863779 C97.9743151,0.00436568029 97.8503745,-0.00433186119 97.7220852,0.00219129492 C97.6024934,0.00871445102 97.4872505,0.0326326901 97.3698331,0.0608996999 C97.2959036,0.0782947828 97.2197998,0.0717716267 97.1458703,0.0978642511 L1.47246215,32.7136448 C0.607052687,33.0050124 0.017791468,33.8117094 0.000396302834,34.7271256 C-0.0169988623,35.6425419 0.539646422,36.4709827 1.3963583,36.7993149 L46.0954095,53.9747849 L65.410566,98.6888456 C65.7562949,99.4868451 66.5434261,100 67.4066612,100 C67.4436259,100 67.4784162,100 67.5153809,99.9978256 C68.4221039,99.9521635 69.202712,99.3498588 69.4788602,98.4866278 L99.9203992,2.81367158 C99.9421431,2.74626563 99.93562,2.6766853 99.9486663,2.60710497 C99.9747591,2.48533939 99.9943286,2.36792258 99.9986774,2.24398261 C100.003026,2.12221703 99.996503,2.0069746 99.9812823,1.88738341 Z M8.55446875,34.8902045 L89.6963909,7.22767387 L47.1891305,49.7347334 L8.55446875,34.8902045 Z M67.0957226,91.6264419 L50.3093882,52.7658266 L93.0645297,10.0087128 L67.0957226,91.6264419 Z" id="Shape" fill="#FFFFFF" fill-rule="nonzero"></path>
                <path d="M34.0183521,65.9816578 C33.1715346,65.1348269 31.8027654,65.1348269 30.9559478,65.9816578 L0.635113197,96.3029662 C-0.211704399,97.149797 -0.211704399,98.5185875 0.635113197,99.3654183 C1.05743911,99.7877508 1.61187723,100 2.16631535,100 C2.72075347,100 3.27519159,99.7877508 3.6975175,99.3654183 L34.0183521,69.0441099 C34.8651697,68.1972791 34.8651697,66.8284886 34.0183521,65.9816578 Z" id="Path" fill="#FFFFFF"></path>
                <path d="M39.8082395,80.8432164 L24.4075549,96.2443287 C23.5473167,97.1045909 23.5473167,98.4950913 24.4075549,99.3553534 C24.836574,99.7843844 25.399799,100 25.9630241,100 C26.5262491,100 27.0894741,99.7843844 27.5184932,99.3553534 L42.9191778,83.9542411 C43.779416,83.093979 43.779416,81.7034785 42.9191778,80.8432164 C42.0589395,79.9829543 40.6684777,79.9829543 39.8082395,80.8432164 Z" id="Path" fill="#41EAD4"></path>
                <path d="M2.20064782,76.2376238 C2.76387285,76.2376238 3.32709789,76.0220082 3.75611696,75.5929772 L19.1568015,60.1918649 C20.0170398,59.3316027 20.0170398,57.9411023 19.1568015,57.0808402 C18.2965633,56.220578 16.9061015,56.220578 16.0458632,57.0808402 L0.645178678,72.4819525 C-0.215059559,73.3422146 -0.215059559,74.7327151 0.645178678,75.5929772 C1.07419775,76.0220082 1.63742278,76.2376238 2.20064782,76.2376238 Z" id="Path" fill="#41EAD4"></path>
            </g>
        </g>
    </g>
</svg>