<?xml version="1.0" encoding="UTF-8"?>
<svg width="15px" height="20px" viewBox="0 0 15 20" version="1.1" xmlns="http://www.w3.org/2000/svg" xmlns:xlink="http://www.w3.org/1999/xlink">
    <!-- Generator: Sketch 53.2 (72643) - https://sketchapp.com -->
    <title>download-white</title>
    <desc>Created with Sketch.</desc>
    <defs>
        <polygon id="path-1" points="0.000105702999 0.259259259 14.5288401 0.259259259 14.5288401 13.5454815 0.000105702999 13.5454815"></polygon>
    </defs>
    <g id="Dashboards" stroke="none" stroke-width="1" fill="none" fill-rule="evenodd">
        <g id="Assets-privacy" transform="translate(-340.000000, -320.000000)">
            <g id="download-white" transform="translate(340.000000, 320.000000)">
                <path d="M13.6302963,18.2595556 L0.897703704,18.2595556 C0.488814815,18.2595556 0.156962963,18.5906667 0.156962963,19.0002963 C0.156962963,19.4099259 0.488814815,19.741037 0.897703704,19.741037 L13.6302963,19.741037 C14.0399259,19.741037 14.371037,19.4099259 14.371037,19.0002963 C14.371037,18.5906667 14.0399259,18.2595556 13.6302963,18.2595556" id="Fill-1" fill="#FFFFFF"></path>
                <g id="Group-5" transform="translate(0.000000, 0.481778)">
                    <mask id="mask-2" fill="white">
                        <use xlink:href="#path-1"></use>
                    </mask>
                    <g id="Clip-4"></g>
                    <path d="M13.333037,7.14622222 L8.00414815,11.2906667 L8.00414815,0.999555556 C8.00414815,0.589925926 7.6722963,0.258814815 7.26340741,0.258814815 C6.85451852,0.258814815 6.52266667,0.589925926 6.52266667,0.999555556 L6.52266667,11.2899259 L1.19525926,7.14622222 C0.873037037,6.89362963 0.407111111,6.95288889 0.156,7.27585185 C-0.0951111111,7.59881481 -0.0365925926,8.064 0.28637037,8.31511111 L6.80859259,13.3891852 C6.83748148,13.4114074 6.87081481,13.4217778 6.90192593,13.4388148 C6.92785185,13.4543704 6.95081481,13.4691852 6.97822222,13.481037 C7.06933333,13.5195556 7.16488889,13.5454815 7.26340741,13.5454815 L7.26414815,13.5454815 C7.36266667,13.5454815 7.45896296,13.5188148 7.5522963,13.4788148 C7.56414815,13.4736296 7.57748148,13.4758519 7.58933333,13.4699259 C7.61896296,13.4558519 7.64340741,13.4328889 7.67007407,13.4151111 C7.68562963,13.404 7.70340741,13.4002963 7.71822222,13.3891852 L14.2434074,8.31511111 C14.5656296,8.064 14.6241481,7.59881481 14.3722963,7.27585185 C14.1211852,6.95362963 13.6567407,6.89437037 13.333037,7.14622222" id="Fill-3" fill="#FFFFFF" mask="url(#mask-2)"></path>
                </g>
            </g>
        </g>
    </g>
</svg>