<?xml version="1.0" encoding="UTF-8"?>
<svg width="26px" height="27px" viewBox="0 0 26 27" version="1.1" xmlns="http://www.w3.org/2000/svg" xmlns:xlink="http://www.w3.org/1999/xlink">
    <!-- Generator: Sketch 53.2 (72643) - https://sketchapp.com -->
    <title>copy</title>
    <desc>Created with Sketch.</desc>
    <g id="Dashboards" stroke="none" stroke-width="1" fill="none" fill-rule="evenodd">
        <g id="Receive" transform="translate(-266.000000, -591.000000)" stroke="#41EAD4">
            <g id="copy" transform="translate(267.000000, 592.000000)">
                <path d="M14.7058824,25 L2.94117647,25 C1.31691176,25 0,23.6830882 0,22.0588235 L0,8.08823529 C0,6.46397059 1.31691176,5.14705882 2.94117647,5.14705882 L9.98970588,5.14705882 C10.1845588,5.14705882 10.3713235,5.22426471 10.5095588,5.3625 L17.4316176,12.2845588 C17.5698529,12.4227941 17.6470588,12.6095588 17.6470588,12.8044118 L17.6470588,22.0588235 C17.6470588,23.6830882 16.3301471,25 14.7058824,25" id="Fill-1"></path>
                <path d="M10.2941176,5.51470588 L10.2941176,9.55882353 C10.2941176,11.1830882 11.6110294,12.5 13.2352941,12.5 L17.2794118,12.5" id="Fill-3"></path>
                <path d="M5.88235294,5.14705882 L5.88235294,2.94117647 C5.88235294,1.31691176 7.19926471,0 8.82352941,0 L15.8720588,0 C16.0669118,0 16.2536765,0.0772058824 16.3919118,0.215441176 L23.3139706,7.1375 C23.4522059,7.27573529 23.5294118,7.4625 23.5294118,7.65735294 L23.5294118,16.9117647 C23.5294118,18.5360294 22.2125,19.8529412 20.5882353,19.8529412 L17.6470588,19.8529412" id="Fill-5"></path>
                <path d="M16.1764706,0.367647059 L16.1764706,4.41176471 C16.1764706,6.03602941 17.4933824,7.35294118 19.1176471,7.35294118 L23.1617647,7.35294118" id="Fill-7"></path>
            </g>
        </g>
    </g>
</svg>