<?xml version="1.0" encoding="UTF-8"?>
<svg width="170px" height="151px" viewBox="0 0 170 151" version="1.1" xmlns="http://www.w3.org/2000/svg" xmlns:xlink="http://www.w3.org/1999/xlink">
    <!-- Generator: Sketch 53.2 (72643) - https://sketchapp.com -->
    <title>trade-completed</title>
    <desc>Created with Sketch.</desc>
    <g id="Exchange" stroke="none" stroke-width="1" fill="none" fill-rule="evenodd">
        <g id="Exchange-complete" transform="translate(-101.000000, -84.000000)">
            <g id="trade-completed" transform="translate(103.000000, 85.000000)">
                <polygon id="Fill-1" fill="#FEFEFE" opacity="0.15" points="132.968915 127.39726 143.242887 127.39726 143.242887 0 132.968915 0"></polygon>
                <polygon id="Fill-1-Copy" fill="#FEFEFE" opacity="0.15" points="45.6401475 99.6575342 55.9141201 99.6575342 55.9141201 12.3287671 45.6401475 12.3287671"></polygon>
                <polygon id="Fill-1-Copy-2" fill="#FEFEFE" opacity="0.15" points="33.3113804 99.6575342 43.585353 99.6575342 43.585353 0 33.3113804 0"></polygon>
                <polygon id="Fill-3" fill="#FEFEFE" opacity="0.15" points="95.9826133 140.753425 106.256586 140.753425 106.256586 126.369863 95.9826133 126.369863"></polygon>
                <g id="Group-9" transform="translate(159.681243, 60.616438)" opacity="0.15" stroke="#FEFEFE" stroke-width="2">
                    <path d="M3.19634703,0 L3.19634703,7.78630137" id="Stroke-5"></path>
                    <path d="M7.78538813,4.10958904 L0,4.10958904" id="Stroke-7"></path>
                </g>
                <g id="Group-14" transform="translate(4.544257, 31.849315)" opacity="0.15" stroke="#FEFEFE" stroke-width="3">
                    <path d="M8.21917808,0 L8.21917808,16.2691378" id="Stroke-10"></path>
                    <path d="M16.2691378,8.21917808 L0,8.21917808" id="Stroke-12"></path>
                </g>
                <g id="Group-19" transform="translate(32.283983, 53.424658)" stroke="#FEFEFE" stroke-width="2">
                    <path d="M7.19178082,0 L7.19178082,13.8916438" id="Stroke-15"></path>
                    <path d="M13.8916438,6.23287671 L0,6.23287671" id="Stroke-17"></path>
                </g>
                <path d="M129.186033,28.0937789 L132.434845,29.4390743 C133.438988,27.0165817 133.996312,24.3615452 133.996312,21.574862 L130.485173,21.574862 L130.485173,21.574862 C130.485173,19.2667195 130.019135,17.0662007 129.18315,15.056906 L132.434845,13.7106497 C131.430701,11.290079 129.970129,9.10973959 128.17228,7.25995847 L128.177085,7.25419292 C128.109821,7.18596722 128.045441,7.11389783 127.978178,7.04567214 L125.483674,9.53927318 C123.916442,7.97008223 122.043642,6.70646552 119.965209,5.84163279 L121.313356,2.5889008 C118.889959,1.58377298 116.234024,1.02739726 113.448367,1.02739726 L113.448367,4.53765722 C111.140278,4.53765722 108.93885,5.00178412 106.929602,5.83682817 L105.584338,2.5889008 C104.328438,3.10972229 103.135958,3.75065943 102.02035,4.49729836 C100.903781,5.24489821 99.8650449,6.09916076 98.9195166,7.04567214 L101.408255,9.53446855 C99.8381396,11.1026986 98.5764743,12.9765028 97.7107008,15.0559451 L94.4618885,13.7106497 C93.4577451,16.1331423 92.9004215,18.7881788 92.9004215,21.574862 L96.4125212,21.574862 C96.4125212,23.8839654 96.8795199,26.0825624 97.7145445,28.0918571 L94.4618885,29.4390743 C95.5044681,31.9509329 97.0265381,34.21199 98.9195166,36.1040519 L101.413059,33.6114118 C101.565843,33.7632379 101.717665,33.9160251 101.876214,34.0630466 C103.344474,35.4246777 105.054881,36.5287808 106.930563,37.3100131 L105.584338,40.5617841 C108.006774,41.565951 110.66271,42.1232877 113.448367,42.1232877 L113.448367,38.6120668 C115.756455,38.6111059 117.956923,38.1479399 119.967131,37.3128958 L121.313356,40.5617841 C123.824195,39.5201412 126.085199,37.9970746 127.978178,36.1040519 L125.48944,33.6162164 C127.057633,32.0470254 128.322181,30.1732212 129.186033,28.0937789 Z" id="Stroke-20" stroke="#41EAD4" stroke-width="3"></path>
                <path d="M114.679941,19.481945 C114.117175,18.8745295 113.312559,18.4931507 112.420504,18.4931507 C110.721043,18.4931507 109.338778,19.8754163 109.338778,21.5748774 C109.338778,22.4669317 109.719226,23.2715479 110.326642,23.8352444 C110.877316,24.3449897 111.613098,24.6575342 112.420504,24.6575342 C114.119965,24.6575342 115.503161,23.2752687 115.503161,21.5748774 C115.503161,20.7674706 115.190617,20.0316885 114.679941,19.481945 Z" id="Stroke-22" stroke="#41EAD4" stroke-width="3"></path>
                <path d="M53.9556144,122.115138 L58.7475386,124.099406 C60.2287492,120.525595 61.0511064,116.61027 61.0511064,112.500484 L55.8721906,112.500484 C55.8721906,109.095011 55.1852804,105.850138 53.9517445,102.886797 L58.7475386,100.900594 C57.266328,97.3296854 55.1136869,94.113836 52.4608591,91.3855884 L52.4685989,91.3778487 C52.3689486,91.276265 52.2751031,91.169844 52.1744853,91.0692278 L48.4951621,94.7465573 C46.1819194,92.4323841 43.4217014,90.569049 40.3547926,89.2929644 L42.3419947,84.4953119 C38.7690942,83.0131575 34.8527387,82.1917808 30.7428872,82.1917808 L30.7428872,87.370614 L30.7419198,87.370614 C27.3373607,87.370614 24.0905006,88.0546109 21.127112,89.2871596 L19.1428123,84.4953119 C17.2910572,85.2634781 15.5302452,86.2086901 13.8845631,87.3115987 C12.2388811,88.4135399 10.7073616,89.6731776 9.31032175,91.0692278 L12.9809376,94.7397851 C10.667695,97.0539582 8.80433016,99.818002 7.52919264,102.884862 L2.73823592,100.900594 C1.25509039,104.473437 0.434668072,108.38973 0.434668072,112.500484 L5.61261646,112.500484 C5.61261646,115.904989 6.30146161,119.149862 7.535965,122.112236 L2.73823592,124.099406 C4.27362532,127.803825 6.52011189,131.139639 9.31032175,133.930772 L12.9896449,130.253443 C13.2150676,130.478862 13.4395227,130.703313 13.6726852,130.920025 C15.8398385,132.92848 18.3610892,134.556721 21.1280795,135.708971 L19.1428123,140.504688 C22.7166803,141.986842 26.6330358,142.808219 30.7428872,142.808219 L30.7428872,137.629386 C34.1464789,137.628419 37.3943064,136.945389 40.357695,135.71284 L42.3419947,140.504688 C46.0464724,138.968356 49.3823405,136.722872 52.1744853,133.930772 L48.5029019,130.260215 C50.8180795,127.946042 52.6814443,125.181998 53.9556144,122.115138 Z" id="Stroke-24" stroke="#41EAD4" stroke-width="3"></path>
                <path d="M35.1592987,110.387752 C34.3135927,109.476426 33.1078903,108.90411 31.7698083,108.90411 C29.2212621,108.90411 27.1469968,110.979113 27.1469968,113.527397 C27.1469968,114.865341 27.7184198,116.07092 28.6298393,116.916539 C29.4555455,117.681214 30.5583917,118.150685 31.7698083,118.150685 C34.319307,118.150685 36.3935722,116.076633 36.3935722,113.527397 C36.3935722,112.316105 35.9250054,111.21242 35.1592987,110.387752 Z" id="Stroke-26" stroke="#41EAD4" stroke-width="3"></path>
                <path d="M158.695517,85.2272727 L158.695517,99.6108344" id="Stroke-28" stroke="#41EAD4" stroke-width="3"></path>
                <path d="M165.747198,92.5591532 L151.363636,92.5591532" id="Stroke-30" stroke="#41EAD4" stroke-width="3"></path>
                <polygon id="Fill-32" fill="#FEFEFE" opacity="0.15" points="114.475764 150 124.749737 150 124.749737 77.0547945 114.475764 77.0547945"></polygon>
                <path d="M143.242887,77.0547945 C143.242887,107.694738 118.404125,132.534247 87.7629546,132.534247 C57.1217847,132.534247 32.2839831,107.694738 32.2839831,77.0547945 C32.2839831,46.4148511 57.1217847,21.5753425 87.7629546,21.5753425 C118.404125,21.5753425 143.242887,46.4148511 143.242887,77.0547945" id="Fill-34" fill="#1D2837"></path>
                <path d="M143.242887,77.0547945 C143.242887,107.694738 118.404125,132.534247 87.7629546,132.534247 C57.1217847,132.534247 32.2839831,107.694738 32.2839831,77.0547945 C32.2839831,46.4148511 57.1217847,21.5753425 87.7629546,21.5753425 C118.404125,21.5753425 143.242887,46.4148511 143.242887,77.0547945 Z" id="Stroke-36" stroke="#FEFEFE" stroke-width="5"></path>
                <polyline id="Stroke-38" stroke="#41EAD4" stroke-width="5" stroke-linecap="round" points="58.9963119 79.0498643 78.6047634 96.5753425 115.503161 56.5068493"></polyline>
            </g>
        </g>
    </g>
</svg>