<?xml version="1.0" encoding="UTF-8"?>
<svg width="160px" height="130px" viewBox="0 0 160 130" version="1.1" xmlns="http://www.w3.org/2000/svg" xmlns:xlink="http://www.w3.org/1999/xlink">
    <!-- Generator: Sketch 53.2 (72643) - https://sketchapp.com -->
    <title>goggle</title>
    <desc>Created with Sketch.</desc>
    <defs>
        <polygon id="path-1" points="0 129.315743 159.611014 129.315743 159.611014 0 0 0"></polygon>
    </defs>
    <g id="Exchange" stroke="none" stroke-width="1" fill="none" fill-rule="evenodd">
        <g id="Exchange-load-1" transform="translate(-107.000000, -229.000000)">
            <g id="goggle" transform="translate(107.000000, 229.000000)">
                <path d="M37.1093784,115.494108 C26.3246486,115.494108 17.0191081,108.171946 14.4788378,97.6876216 L13.7172838,94.5421486 L15.6479595,97.1395135 C16.991,98.9454595 18.5527568,100.573973 20.2893108,101.979378 C25.0281622,105.817892 31.0020135,107.933027 37.1102568,107.933027 C43.2185,107.933027 49.191473,105.817892 53.9303243,101.979378 C55.6668784,100.572216 57.2277568,98.9437027 58.5690405,97.1395135 L60.5005946,94.543027 L59.7381622,97.6885 C57.1978919,108.171946 47.8923514,115.494108 37.1093784,115.494108 L37.1093784,115.494108 Z M14.5253919,86.5330946 C17.1315405,76.1647162 26.4186351,68.9216081 37.1093784,68.9216081 C47.7983649,68.9216081 57.0854595,76.1647162 59.6924865,86.5330946 L59.7328919,86.6938378 L59.6924865,86.8545811 C58.4750541,91.7120135 55.6545811,96.1285 51.7519459,99.2915405 C47.6270811,102.631135 42.4279595,104.471338 37.1102568,104.471338 C31.7934324,104.471338 26.5925541,102.631135 22.4668108,99.2915405 C18.5624189,96.1267432 15.7419459,91.7102568 14.5253919,86.8545811 L14.4849865,86.6938378 L14.5253919,86.5330946 Z M37.1093784,65.4607973 C22.360527,65.4607973 10.3627568,77.4594459 10.3627568,92.2074189 C10.3627568,106.955392 22.360527,118.954041 37.1093784,118.954041 C51.8573514,118.954041 63.8551216,106.955392 63.8551216,92.2074189 C63.8551216,77.4594459 51.8573514,65.4607973 37.1093784,65.4607973 L37.1093784,65.4607973 Z" id="Fill-1" fill="#41EAD4"></path>
                <mask id="mask-2" fill="white">
                    <use xlink:href="#path-1"></use>
                </mask>
                <g id="Clip-4"></g>
                <path d="M74.2177027,86.5510135 L85.3941892,86.5510135 L85.3941892,71.8539865 L74.2177027,71.8539865 L74.2177027,86.5510135 Z M74.2177027,68.3940541 L85.3941892,68.3940541 L85.3941892,44.142027 L74.2177027,44.142027 L74.2177027,68.3940541 Z M122.502162,58.5597297 C141.056149,58.5597297 156.150203,73.6546622 156.150203,92.2077703 C156.150203,110.761757 141.056149,125.856689 122.502162,125.856689 C103.949054,125.856689 88.855,110.761757 88.855,92.2077703 C88.855,73.6546622 103.949054,58.5597297 122.502162,58.5597297 L122.502162,58.5597297 Z M88.855,38.1989189 C88.855,25.5485135 99.1469595,15.2565541 111.797365,15.2565541 C121.124865,15.2565541 129.449257,20.8281081 133.004932,29.4502703 L147.567568,64.7514189 L145.578041,63.1677027 C138.948041,57.889527 130.968851,55.0989189 122.502162,55.0989189 C109.081419,55.0989189 96.6611486,62.4026351 90.0891216,74.1606081 L88.855,76.367973 L88.855,38.1989189 Z M94.8323649,15.7519595 C94.8323649,8.97351351 100.345946,3.45993243 107.124392,3.45993243 C109.561014,3.45993243 111.92473,4.17668919 113.958176,5.53378378 C115.988986,6.89439189 117.554257,8.80662162 118.486216,11.0640541 L119.208243,12.8181757 L117.956554,12.519527 C115.940676,12.0390541 113.868581,11.7957432 111.795608,11.7957432 C106.007973,11.7957432 100.507568,13.6447297 95.8890541,17.1433108 L94.8323649,17.9435135 L94.8323649,15.7519595 Z M37.1097297,125.856689 C18.5557432,125.856689 3.46081081,110.761757 3.46081081,92.2077703 C3.46081081,73.6546622 18.5557432,58.5597297 37.1097297,58.5597297 C55.6628378,58.5597297 70.7568919,73.6546622 70.7568919,92.2077703 C70.7568919,110.761757 55.6628378,125.856689 37.1097297,125.856689 L37.1097297,125.856689 Z M64.779527,17.9435135 L63.7228378,17.1433108 C59.1043243,13.6447297 53.6030405,11.7957432 47.814527,11.7957432 C45.7503378,11.7957432 43.6782432,12.0390541 41.6544595,12.519527 L40.4036486,12.8172973 L41.1256757,11.0649324 C42.0567568,8.80662162 43.6211486,6.89527027 45.6493243,5.5372973 C47.684527,4.17756757 50.0491216,3.45993243 52.4875,3.45993243 C59.2650676,3.45993243 64.779527,8.97351351 64.779527,15.7519595 L64.779527,17.9435135 Z M122.502162,129.315743 C142.963986,129.315743 159.611014,112.669595 159.611014,92.2077703 C159.611014,87.6832432 158.80027,83.2562162 157.198986,79.0505405 L157.177027,78.9925676 C157.086554,78.7615541 156.722905,77.8559459 156.563919,77.4879054 L136.203986,28.1309459 C133.813041,22.334527 129.445743,17.5719595 123.905811,14.7207432 L123.690608,14.6100676 L121.684392,9.74385135 C120.489797,6.84959459 118.483581,4.3997973 115.880946,2.65797297 C113.275676,0.919662162 110.247027,0 107.123514,0 C98.4372297,0 91.3706757,7.06655405 91.3706757,15.7519595 L91.3706757,21.4939189 L91.2257432,21.6748649 C87.4100676,26.415473 85.3933108,32.1293243 85.3933108,38.1989189 L85.3933108,40.6812162 L74.2177027,40.6812162 L74.2177027,38.1989189 C74.2177027,32.1293243 72.2009459,26.415473 68.3852703,21.6748649 L68.2394595,21.4939189 L68.2394595,15.7519595 C68.2394595,7.06655405 61.1729054,0 52.4875,0 C49.3622297,0 46.3327027,0.920540541 43.7256757,2.66148649 C41.1265541,4.40155405 39.1203378,6.85047297 37.9257432,9.74385135 L35.919527,14.6100676 L35.7043243,14.7207432 C30.1635135,17.5728378 25.7970946,22.3354054 23.407027,28.1309459 L18.1815541,40.7980405 C18.0058784,41.2249324 18.0058784,41.6957432 18.1833108,42.1217568 C18.3607432,42.5486486 18.6936486,42.8806757 19.1222973,43.0572297 C19.5491892,43.2337838 20.02,43.2337838 20.4460135,43.055473 C20.8729054,42.8780405 21.2040541,42.5451351 21.3797297,42.1182432 L26.6060811,29.4502703 C30.1626351,20.8281081 38.487027,15.2565541 47.814527,15.2565541 C60.4649324,15.2565541 70.7568919,25.5485135 70.7568919,38.1989189 L70.7568919,76.3697297 L69.5227703,74.1623649 C62.9498649,62.4035135 50.5287162,55.0989189 37.107973,55.0989189 C28.6421622,55.0989189 20.662973,57.889527 14.0338514,63.1677027 L12.0443243,64.7514189 L18.1710135,49.8997973 C18.3466892,49.4729054 18.3458108,49.0020946 18.1683784,48.5760811 C17.9909459,48.1491892 17.6580405,47.8171622 17.2302703,47.6406081 C16.3475,47.2743243 15.3347297,47.6977027 14.9710811,48.580473 L3.05148649,77.4764865 C2.86263514,77.9121622 2.39358108,79.0856757 2.34966216,79.2121622 C0.787027027,83.387973 0,87.7517568 0,92.2077703 C0,112.669595 16.647027,129.315743 37.1097297,129.315743 C57.5706757,129.315743 74.2177027,112.669595 74.2177027,92.2077703 L74.2177027,90.0118243 L85.3941892,90.0118243 L85.3941892,92.2077703 C85.3941892,112.669595 102.040338,129.315743 122.502162,129.315743 L122.502162,129.315743 Z" id="Fill-3" fill="#FEFEFE" mask="url(#mask-2)"></path>
                <path d="M101.043993,97.1417095 C102.386155,98.9476554 103.947034,100.574412 105.682709,101.979818 C110.420682,105.818331 116.395412,107.932588 122.503655,107.932588 C128.61102,107.932588 134.584872,105.818331 139.323723,101.979818 C141.063791,100.57002 142.623791,98.9415068 143.963318,97.1373176 L145.89575,94.5346824 L145.132439,97.6854257 C142.593047,108.171507 133.287507,115.494547 122.502777,115.494547 C111.718926,115.494547 102.414264,108.173264 99.8748716,97.6898176 L99.1133176,94.5461014 L101.043993,97.1417095 Z M137.458047,70.0296824 C133.032777,67.0405608 127.861764,65.4612365 122.502777,65.4612365 C107.753926,65.4612365 95.755277,77.4598851 95.755277,92.2078581 C95.755277,106.955831 107.753926,118.95448 122.502777,118.95448 C137.25075,118.95448 149.24852,106.955831 149.24852,92.2078581 C149.24852,86.3543446 147.391628,80.7950878 143.878993,76.1308986 C143.600547,75.7611014 143.196493,75.5230608 142.738858,75.4571824 C142.283858,75.3956959 141.826223,75.5107635 141.456426,75.7883311 L141.456426,75.7892095 C140.694872,76.3627905 140.541155,77.450223 141.115615,78.2126554 C142.998858,80.714277 144.336628,83.5075203 145.091155,86.5133311 L145.130682,86.6740743 L145.091155,86.8339392 C143.87548,91.7010338 141.05325,96.1245473 137.143588,99.2911014 C133.019601,102.631574 127.82048,104.471777 122.502777,104.471777 C117.184196,104.471777 111.985074,102.631574 107.860209,99.2911014 C103.955818,96.1298176 101.135345,91.7133311 99.9179122,86.856777 L99.8775068,86.6960338 L99.9179122,86.5361689 C102.524061,76.1651554 111.811155,68.9220473 122.502777,68.9220473 C127.167845,68.9220473 131.669534,70.2967095 135.520345,72.8975878 C135.904196,73.1567095 136.365345,73.2498176 136.818588,73.1628581 C137.271831,73.0758986 137.663588,72.816777 137.922709,72.4329257 C138.456764,71.6423851 138.247709,70.5637365 137.458047,70.0296824 L137.458047,70.0296824 Z" id="Fill-5" fill="#41EAD4" mask="url(#mask-2)"></path>
            </g>
        </g>
    </g>
</svg>