<svg width="19" height="19" viewBox="0 0 19 19" fill="none" xmlns="http://www.w3.org/2000/svg">
<g filter="url(#filter0_i)">
<path d="M15.95 15.6L18.28 11.56L16.13 10.32C16.18 9.98999 16.21 9.65 16.21 9.31C16.21 8.84 16.16 8.39 16.07 7.95L18.1 6.78L15.77 2.73999L13.63 3.98C13.01 3.49 12.31 3.09999 11.55 2.84999V0.5H6.89V2.98C6.14 3.27 5.46 3.7 4.87 4.22L2.83 3.03999L0.5 7.08L2.65 8.31999C2.6 8.64999 2.57 8.99 2.57 9.33C2.57 9.8 2.62 10.25 2.71 10.69L0.68 11.86L3.01 15.9L5.15 14.66C5.77 15.15 6.47 15.54 7.23 15.79V18.14H11.89V15.66C12.64 15.37 13.32 14.94 13.91 14.42L15.95 15.6ZM9.39 12.31C7.74 12.31 6.39 10.97 6.39 9.31C6.39 7.66 7.73 6.31 9.39 6.31C11.04 6.31 12.39 7.65 12.39 9.31C12.39 10.97 11.05 12.31 9.39 12.31Z" fill="#78808D"/>
</g>
<defs>
<filter id="filter0_i" x="0.5" y="0.5" width="17.78" height="18.64" filterUnits="userSpaceOnUse" color-interpolation-filters="sRGB">
<feFlood flood-opacity="0" result="BackgroundImageFix"/>
<feBlend mode="normal" in="SourceGraphic" in2="BackgroundImageFix" result="shape"/>
<feColorMatrix in="SourceAlpha" type="matrix" values="0 0 0 0 0 0 0 0 0 0 0 0 0 0 0 0 0 0 127 0" result="hardAlpha"/>
<feOffset dy="1"/>
<feGaussianBlur stdDeviation="1"/>
<feComposite in2="hardAlpha" operator="arithmetic" k2="-1" k3="1"/>
<feColorMatrix type="matrix" values="0 0 0 0 0.352941 0 0 0 0 0.396078 0 0 0 0 0.443137 0 0 0 0.25 0"/>
<feBlend mode="normal" in2="shape" result="effect1_innerShadow"/>
</filter>
</defs>
</svg>
