<svg width="23" height="24" viewBox="0 0 23 24" fill="none" xmlns="http://www.w3.org/2000/svg">
<g filter="url(#filter0_i)">
<path d="M15.5 0.5H13.5V2.5H12.5V18.5H13.5V20.5H15.5V18.5H16.5V2.5H15.5V0.5Z" fill="#78808D"/>
<path d="M22.5 5.5H21.5V3.5H19.5V5.5H18.5V11.5H19.5V13.5H21.5V11.5H22.5V5.5Z" fill="#78808D"/>
<path d="M4.5 8.5H3.5V6.5H1.5V8.5H0.5V14.5H1.5V16.5H3.5V14.5H4.5V8.5Z" fill="#78808D"/>
<path d="M9.5 13.5H7.5V15.5H6.5V21.5H7.5V23.5H9.5V21.5H10.5V15.5H9.5V13.5Z" fill="#78808D"/>
</g>
<defs>
<filter id="filter0_i" x="0.5" y="0.5" width="22" height="24" filterUnits="userSpaceOnUse" color-interpolation-filters="sRGB">
<feFlood flood-opacity="0" result="BackgroundImageFix"/>
<feBlend mode="normal" in="SourceGraphic" in2="BackgroundImageFix" result="shape"/>
<feColorMatrix in="SourceAlpha" type="matrix" values="0 0 0 0 0 0 0 0 0 0 0 0 0 0 0 0 0 0 127 0" result="hardAlpha"/>
<feOffset dy="1"/>
<feGaussianBlur stdDeviation="1"/>
<feComposite in2="hardAlpha" operator="arithmetic" k2="-1" k3="1"/>
<feColorMatrix type="matrix" values="0 0 0 0 0.352941 0 0 0 0 0.396078 0 0 0 0 0.443137 0 0 0 0.25 0"/>
<feBlend mode="normal" in2="shape" result="effect1_innerShadow"/>
</filter>
</defs>
</svg>
