<svg width="28" height="21" viewBox="0 0 28 21" fill="none" xmlns="http://www.w3.org/2000/svg">
<g filter="url(#filter0_i)">
<path d="M3.5 4.66667V7H5.13333C5.36667 5.83333 5.71667 5.83333 6.06667 4.66667H3.5ZM1.16667 14V16.3333H6.06667C5.71667 15.1667 5.36667 15.1667 5.13333 14H1.16667ZM4.66667 9.33333H0V11.6667H4.66667V9.33333ZM10.15 0H1.16667V2.33333H7.58333C8.4 1.16667 9.21667 1.16667 10.15 0ZM17.5 0C11.6667 0 7 4.66667 7 10.5C7 13.7667 8.51667 16.3333 10.9667 18.6667H1.16667V21H17.5C23.3333 21 28 16.3333 28 10.5C28 4.66667 23.3333 0 17.5 0ZM17.5 18.6667C12.95 18.6667 9.33333 15.05 9.33333 10.5C9.33333 5.95 12.95 2.33333 17.5 2.33333C22.05 2.33333 25.6667 5.95 25.6667 10.5C25.6667 15.05 22.05 18.6667 17.5 18.6667ZM14 10.5H11.6667C11.6667 14 14.2333 16.3333 17.5 16.3333V14C15.5167 14 14 12.8333 14 10.5Z" fill="#78808D"/>
</g>
<defs>
<filter id="filter0_i" x="0" y="0" width="28" height="22" filterUnits="userSpaceOnUse" color-interpolation-filters="sRGB">
<feFlood flood-opacity="0" result="BackgroundImageFix"/>
<feBlend mode="normal" in="SourceGraphic" in2="BackgroundImageFix" result="shape"/>
<feColorMatrix in="SourceAlpha" type="matrix" values="0 0 0 0 0 0 0 0 0 0 0 0 0 0 0 0 0 0 127 0" result="hardAlpha"/>
<feOffset dy="1"/>
<feGaussianBlur stdDeviation="1"/>
<feComposite in2="hardAlpha" operator="arithmetic" k2="-1" k3="1"/>
<feColorMatrix type="matrix" values="0 0 0 0 0.352941 0 0 0 0 0.396078 0 0 0 0 0.443137 0 0 0 0.25 0"/>
<feBlend mode="normal" in2="shape" result="effect1_innerShadow"/>
</filter>
</defs>
</svg>
