<?xml version="1.0" encoding="UTF-8"?>
<svg width="18px" height="18px" viewBox="0 0 18 18" version="1.1" xmlns="http://www.w3.org/2000/svg" xmlns:xlink="http://www.w3.org/1999/xlink">
    <!-- Generator: Sketch 53.2 (72643) - https://sketchapp.com -->
    <title>search</title>
    <desc>Created with Sketch.</desc>
    <g id="News" stroke="none" stroke-width="1" fill="none" fill-rule="evenodd">
        <g id="NewsFeed-Search" transform="translate(-76.000000, -57.000000)" fill="#FFFFFF">
            <g id="search" transform="translate(76.000000, 57.000000)">
                <path d="M3.35314286,11.2645714 C4.40914286,12.3205714 5.814,12.9034286 7.308,12.9034286 C8.80285714,12.9034286 10.2077143,12.3205714 11.2645714,11.2645714 C12.3205714,10.2085714 12.9025714,8.80371429 12.9025714,7.30885714 C12.9025714,5.814 12.3205714,4.40914286 11.2645714,3.35314286 C10.2085714,2.29628571 8.80285714,1.71428571 7.30885714,1.71428571 C5.814,1.71428571 4.40914286,2.29628571 3.35314286,3.35314286 C2.29628571,4.40914286 1.71428571,5.81485714 1.71428571,7.30885714 C1.71428571,8.80371429 2.29628571,10.2085714 3.35314286,11.2645714 M7.30885714,0 C9.26142857,0 11.0965714,0.760285714 12.4765714,2.14028571 C13.8565714,3.52028571 14.6168571,5.35542857 14.6168571,7.30885714 C14.6168571,8.97257143 14.0605714,10.5471429 13.044,11.832 L17.0382857,15.8262857 C17.3725714,16.1614286 17.3725714,16.704 17.0382857,17.0382857 C16.8711429,17.2062857 16.6517143,17.2894286 16.4322857,17.2894286 C16.2128571,17.2894286 15.9934286,17.2062857 15.8262857,17.0382857 L11.832,13.044 C10.5471429,14.0614286 8.97171429,14.6177143 7.308,14.6177143 C5.35628571,14.6177143 3.52114286,13.8565714 2.14114286,12.4765714 C0.761142857,11.0965714 0,9.26142857 0,7.30885714 C0,5.35628571 0.760285714,3.52114286 2.14114286,2.14028571 C3.52114286,0.760285714 5.35628571,0 7.30885714,0" id="Fill-1"></path>
            </g>
        </g>
    </g>
</svg>