<?xml version="1.0" encoding="UTF-8"?>
<svg width="11px" height="15px" viewBox="0 0 11 15" version="1.1" xmlns="http://www.w3.org/2000/svg" xmlns:xlink="http://www.w3.org/1999/xlink">
    <!-- Generator: Sketch 53.2 (72643) - https://sketchapp.com -->
    <title>flag icon</title>
    <desc>Created with Sketch.</desc>
    <g id="News" stroke="none" stroke-width="1" fill="none" fill-rule="evenodd">
        <g id="News-Feed-Single-Article-white" transform="translate(-315.000000, -100.000000)" fill="#1E2938">
            <path d="M316.323229,102.899226 C316.323229,102.034919 317.022555,101.331753 317.88133,101.331753 L323.11867,101.331753 C323.978107,101.331753 324.676771,102.034919 324.676771,102.899226 L324.676771,113.535072 C324.676771,113.586344 324.646337,113.634287 324.54511,113.667581 C324.526585,113.667581 324.491519,113.663586 324.459762,113.636951 L320.924756,110.657154 C320.678636,110.450732 320.320703,110.450732 320.075244,110.657154 L316.540238,113.636951 C316.51642,113.656927 316.485986,113.668247 316.45489,113.668247 L316.401961,113.656927 C316.353663,113.634287 316.323229,113.586344 316.323229,113.535072 L316.323229,102.899226 Z M316.45489,115 C316.796283,115 317.128413,114.878145 317.389751,114.657739 L320.5,112.03685 L323.608926,114.656408 C324.028389,115.011986 324.643691,115.101879 325.162396,114.861498 C325.671178,114.62045 326,114.099069 326,113.535072 L326,102.899226 C326,101.300457 324.707867,100 323.11867,100 L317.88133,100 C316.292794,100 315,101.300457 315,102.899226 L315,113.535072 C315,114.099069 315.328822,114.62045 315.840912,114.863495 C316.034765,114.954055 316.241188,115 316.45489,115 Z" id="flag-icon"></path>
        </g>
    </g>
</svg>