<?xml version="1.0" encoding="UTF-8"?>
<svg width="56px" height="43px" viewBox="0 0 56 43" version="1.1" xmlns="http://www.w3.org/2000/svg" xmlns:xlink="http://www.w3.org/1999/xlink">
    <!-- Generator: Sketch 53.2 (72643) - https://sketchapp.com -->
    <title>no-saved</title>
    <desc>Created with Sketch.</desc>
    <g id="News" stroke="none" stroke-width="1" fill="none" fill-rule="evenodd">
        <g id="NewsFeed-Empty-Saved" transform="translate(-162.000000, -253.000000)" fill="#C9C9C9">
            <g id="no-saved" transform="translate(163.000000, 253.221143)">
                <path d="M15.6088055,9.46469426 C15.6088055,7.10749147 17.5160592,5.18976717 19.8581739,5.18976717 L34.1418261,5.18976717 C36.4857452,5.18976717 38.3911945,7.10749147 38.3911945,9.46469426 L38.3911945,38.4715455 C38.3911945,38.6113796 38.308192,38.7421335 38.0321184,38.8329349 C37.9815951,38.8329349 37.8859617,38.8220387 37.7993504,38.7493976 L28.1584266,30.6226777 C27.4871887,30.0597094 26.5110069,30.0597094 25.8415734,30.6226777 L16.2006496,38.7493976 C16.1356911,38.8038784 16.0526886,38.8347509 15.9678816,38.8347509 L15.8235294,38.8038784 C15.691808,38.7421335 15.6088055,38.6113796 15.6088055,38.4715455 L15.6088055,9.46469426 Z M15.9678816,42.4668045 C16.8989534,42.4668045 17.8047636,42.1344716 18.5175027,41.5333667 L27,34.3854852 L35.4788885,41.5297347 C36.6228798,42.499493 38.3009744,42.7446566 39.7156261,42.0890709 C41.1032118,41.4316692 42,40.0097202 42,38.4715455 L42,9.46469426 C42,5.10441391 38.4760014,1.55771357 34.1418261,1.55771357 L19.8581739,1.55771357 C15.525803,1.55771357 12,5.10441391 12,9.46469426 L12,38.4715455 C12,40.0097202 12.8967882,41.4316692 14.2933959,42.094519 C14.8220859,42.3414986 15.3850595,42.4668045 15.9678816,42.4668045 Z" id="flag-icon"></path>
                <rect id="Rectangle" stroke="#1E2938" stroke-width="3" transform="translate(27.247391, 21.500000) rotate(-306.000000) translate(-27.247391, -21.500000) " x="24.2473911" y="-10" width="6" height="63" rx="3"></rect>
            </g>
        </g>
    </g>
</svg>