<?xml version="1.0" encoding="UTF-8"?>
<svg width="83px" height="91px" viewBox="0 0 83 91" version="1.1" xmlns="http://www.w3.org/2000/svg" xmlns:xlink="http://www.w3.org/1999/xlink">
    <!-- Generator: Sketch 53.2 (72643) - https://sketchapp.com -->
    <title>wallet restore-2</title>
    <desc>Created with Sketch.</desc>
    <defs>
        <polygon id="path-1" points="0 0.0389403974 11.9612026 0.0389403974 11.9612026 11.9999603 0 11.9999603"></polygon>
    </defs>
    <g id="Setup" stroke="none" stroke-width="1" fill="none" fill-rule="evenodd">
        <g id="Restore-Wallet-2" transform="translate(-146.000000, -67.000000)">
            <g id="wallet-restore-2" transform="translate(146.000000, 67.000000)">
                <g id="Group-5" transform="translate(0.876464, 0.475568)" stroke="#354458" stroke-width="2">
                    <path d="M29.7797859,84.5244322 C12.7524942,80.2216667 0.123535877,64.4286246 0.123535877,45.6033295 C0.123535877,23.4688571 17.5841609,5.52443224 39.1235359,5.52443224" id="Stroke-1"></path>
                    <polyline id="Stroke-3" points="27.1235359 0.524432243 39.1235359 5.21344847 29.1633189 13.5244322"></polyline>
                </g>
                <g id="Group-10" transform="translate(42.876464, 5.475568)" stroke="#354458" stroke-width="2">
                    <path d="M9.46728588,0.524432243 C26.4945775,4.82719779 39.1235359,20.6202399 39.1235359,39.4455349 C39.1235359,61.5800074 21.6629109,79.5244322 0.123535877,79.5244322" id="Stroke-6"></path>
                    <polyline id="Stroke-8" points="12.1235359 84.5244322 0.123535877 79.835416 10.0837529 71.5244322"></polyline>
                </g>
                <path d="M62.1410389,40.5949495 L62.1410389,54.7760559 L53.7325181,54.7760559 C51.9718982,54.7648179 50.5471697,53.3388406 50.538429,51.5782208 L50.538429,43.772806 C50.549667,42.0159321 51.9756442,40.5961982 53.7325181,40.5949495 L62.1410389,40.5949495 Z M59.0143777,63.0085147 L37.2501192,63.0085147 C38.0055625,61.6199974 38.4326065,59.9205622 38.4326065,58.1711803 C38.4351038,52.3349127 33.7076521,47.6012177 27.8713845,47.5974717 C26.2356313,47.5949744 24.6223541,47.982061 23.1664088,48.723769 L23.1664088,35.4779139 C23.1664088,33.7272833 24.5474341,32.2650947 26.296816,32.2650947 L59.0143777,32.2650947 C60.7637596,32.2650947 62.1410389,33.7272833 62.1410389,35.4779139 L62.1410389,39.0078943 L53.7325181,39.0078943 C51.0990803,39.0116403 48.9638604,41.1393681 48.9513738,43.772806 L48.9513738,51.5782208 C48.9613631,54.2154046 51.0953343,56.3506244 53.7325181,56.3631111 L62.1410389,56.3631111 L62.1410389,59.8731129 C62.1485309,60.7059735 61.8226289,61.5076174 61.2332583,62.0957394 C60.646385,62.68511 59.8472384,63.0135093 59.0143777,63.0085147 L59.0143777,63.0085147 Z M27.8501572,67.1853044 C22.8829615,67.1853044 18.8535145,63.1583547 18.8535145,58.1899103 C18.8535145,53.2227147 22.8829615,49.1945163 27.8501572,49.1945163 C32.8186015,49.1945163 36.8455512,53.2227147 36.8455512,58.1899103 C36.8405566,63.1558573 32.8161042,67.1815584 27.8501572,67.1853044 L27.8501572,67.1853044 Z M44.3088314,24.013906 L45.9333466,26.3264365 L36.7606419,30.6780395 L34.7565321,30.6780395 L44.3088314,24.013906 Z M55.5855393,30.6780395 L40.4554463,30.6780395 L52.7960182,24.8105552 L55.5855393,30.6780395 Z M59.0143777,30.6780395 L57.3424132,30.6780395 L53.8886014,23.433276 C53.7974488,23.2434787 53.6351221,23.0986334 53.4365841,23.0299567 C53.2380461,22.96128 53.0207782,22.9750154 52.8309808,23.066168 L47.3867945,25.6608972 L45.1541787,22.4718027 C45.033058,22.2994867 44.849504,22.1821121 44.6409767,22.1471494 C44.4374441,22.1034461 44.2239221,22.1434034 44.0491088,22.2582807 L31.9894869,30.6780395 L26.296816,30.6780395 C23.6708701,30.6780395 21.5793536,32.851968 21.5793536,35.4779139 L21.5793536,49.7014749 C18.9009638,51.6331621 17.2889352,54.7198659 17.2889352,58.1899103 C17.2914326,64.0261779 22.0251276,68.7548783 27.8601465,68.7536296 C31.1553776,68.7736083 34.2633088,67.231505 36.2386993,64.5943212 L59.0143777,64.5943212 C60.268039,64.6005646 61.4705049,64.1048439 62.3558095,63.2182906 C63.2411141,62.3304887 63.7343374,61.1267741 63.7280941,59.8731129 L63.7280941,35.4779139 C63.7280941,32.851968 61.6390749,30.6780395 59.0143777,30.6780395 L59.0143777,30.6780395 Z" id="Fill-40" fill="#FFFFFF"></path>
                <path d="M55.2002008,46.6346249 C55.7745874,46.6346249 56.2415887,47.1003775 56.2415887,47.6760128 C56.2415887,48.2503995 55.7745874,48.7174008 55.2002008,48.7174008 C54.6245655,48.7174008 54.1588129,48.2503995 54.1588129,47.6760128 C54.1600615,47.1016262 54.6258142,46.6346249 55.2002008,46.6346249 M52.5717576,47.6760128 C52.5717576,49.1282121 53.7480016,50.3032073 55.2002008,50.3032073 C56.6524,50.3032073 57.828644,49.1282121 57.828644,47.6760128 C57.828644,46.2238136 56.6524,45.0475697 55.2002008,45.0475697 C53.7492502,45.0488183 52.5730063,46.2250623 52.5717576,47.6760128" id="Fill-42" fill="#41EAD4"></path>
                <g id="komodo-icon" transform="translate(22.000000, 52.000000)">
                    <g id="Group-3">
                        <mask id="mask-2" fill="white">
                            <use xlink:href="#path-1"></use>
                        </mask>
                        <g id="Clip-2"></g>
                        <path d="M5.98051391,11.9999603 C2.68289801,11.9999603 -1.58940397e-05,9.31712583 -1.58940397e-05,6.01943046 C-1.58940397e-05,2.72181457 2.68289801,0.0389006623 5.98051391,0.0389006623 C6.44477881,0.0389006623 6.91126887,0.0939735099 7.3671894,0.202291391 C7.71185166,0.284145695 7.92483179,0.63 7.84297748,0.974582781 C7.76096424,1.31916556 7.41566623,1.53206623 7.07068609,1.45021192 C6.71171921,1.3649404 6.34504371,1.32170861 5.98051391,1.32170861 C3.39018278,1.32170861 1.28271258,3.42909934 1.28271258,6.01943046 C1.28271258,8.60984106 3.39018278,10.7172318 5.98051391,10.7172318 C8.57108344,10.7172318 10.6784742,8.60984106 10.6784742,6.01943046 C10.6784742,5.6542649 10.6350834,5.28663576 10.5492556,4.92695364 C10.4672424,4.58229139 10.6802225,4.23651656 11.0247258,4.15442384 C11.369547,4.07209272 11.715004,4.28515232 11.7972556,4.6297351 C11.9060503,5.08684768 11.9612026,5.55437086 11.9612026,6.01943046 C11.9612026,9.31712583 9.27828874,11.9999603 5.98051391,11.9999603" id="Fill-1" fill="#41EAD4" mask="url(#mask-2)"></path>
                    </g>
                    <path d="M10.3489963,1.59315493 C9.97592125,1.22019214 9.37127408,1.22019214 8.9981195,1.59315493 C8.98985191,1.60142003 8.9838897,1.61119511 8.97601959,1.61969863 C8.82616948,1.7807092 8.74015473,1.98010482 8.7225066,2.18522243 L8.7225066,2.18649398 C8.7225066,2.22003123 8.72123466,2.253489 8.71940625,2.28766203 C8.71797532,2.31078842 8.71455699,2.33375587 8.7122516,2.3568028 C8.67464996,2.73604388 8.5117625,3.10471518 8.22144282,3.39486799 C7.78755324,3.82870644 7.17909026,3.98137244 6.62222024,3.8516739 C6.57873589,3.84173988 6.5358875,3.829978 6.49375458,3.81630879 C6.31194705,3.77236069 6.12576724,3.75185688 5.93982592,3.75455893 C5.41244894,3.76218826 4.88960324,3.96086863 4.47519019,4.34312966 C4.45309028,4.36347453 4.42916196,4.38071998 4.40785701,4.40217746 C4.11682188,4.69296605 3.92619028,5.04502767 3.83103348,5.41640101 C3.64318425,6.14921369 3.83389534,6.95887593 4.40785701,7.53258536 C5.04303067,8.1676473 5.96828551,8.33406197 6.75760206,8.03532617 C7.04211852,7.92756194 7.30946383,7.76106779 7.53857152,7.53202906 C7.63277437,7.43785456 7.71290642,7.33541496 7.78659928,7.22979648 C8.15410965,6.70297561 8.26953795,6.05337028 8.12525257,5.4509714 C8.11229471,5.41107638 8.10196022,5.37102242 8.09234119,5.33065056 C8.09091027,5.32461068 8.08876387,5.31865027 8.08741244,5.31261039 C7.96005972,4.75717955 8.11285118,4.15136336 8.54554833,3.71879646 C8.84254567,3.42188852 9.22182146,3.25833484 9.60968282,3.22575126 C9.62232269,3.22463865 9.63488307,3.2224929 9.64752295,3.22169818 C9.68353467,3.21923454 9.7195464,3.21788352 9.75555812,3.21788352 C9.757943,3.21796299 9.76175881,3.21796299 9.76422319,3.21796299 C9.97782915,3.19809495 10.1850754,3.10622515 10.3483604,2.94298936 C10.387075,2.90428642 10.4194299,2.86184829 10.4500358,2.81869492 C10.7150758,2.4458116 10.6828004,1.92685848 10.3489963,1.59315493" id="Fill-4" fill="#41EAD4"></path>
                </g>
            </g>
        </g>
    </g>
</svg>