<?xml version="1.0" encoding="UTF-8"?>
<svg width="188px" height="240px" viewBox="0 0 188 240" version="1.1" xmlns="http://www.w3.org/2000/svg" xmlns:xlink="http://www.w3.org/1999/xlink">
    <!-- Generator: Sketch 53.2 (72643) - https://sketchapp.com -->
    <title>wallet restore</title>
    <desc>Created with Sketch.</desc>
    <defs>
        <polygon id="path-1" points="1.21607695 1.33974579 2.55582274 1.33974579 2.55582274 2.67949158 1.21607695 2.67949158"></polygon>
    </defs>
    <g id="Setup" stroke="none" stroke-width="1" fill="none" fill-rule="evenodd">
        <g id="Restore-Wallet-sucess" transform="translate(-95.000000, -168.000000)">
            <g id="wallet-restore" transform="translate(94.000000, 170.000000)">
                <g id="Group-5" transform="translate(15.613535, 57.080550)" stroke="#354458" stroke-width="4">
                    <path d="M59.0224871,165.207393 C25.3305599,156.922405 0.341621436,126.512855 0.341621436,90.2646925 C0.341621436,47.6446994 34.8909859,13.0926554 77.510979,13.0926554" id="Stroke-1"></path>
                    <polyline id="Stroke-3" points="43.8388801 0.105963586 77.9193336 13.0934593 49.6319409 36.1129715"></polyline>
                </g>
                <g id="Group-10" transform="translate(87.959808, 70.014593)" stroke="#354458" stroke-width="4">
                    <path d="M19.0313432,0.202823772 C52.7232704,8.48781175 77.7122089,38.8973617 77.7122089,75.1455239 C77.7122089,117.765517 43.1628444,152.317561 0.542851254,152.317561" id="Stroke-6"></path>
                    <polyline id="Stroke-8" points="34.2146822 165.304521 0.134228787 152.317025 28.4216214 129.297513"></polyline>
                </g>
                <path d="M186.38663,185.582927 C186.38663,196.704285 177.372751,205.719306 166.252804,205.719306 C155.132856,205.719306 146.116551,196.704285 146.116551,185.582927 C146.116551,174.461569 155.132856,165.446548 166.252804,165.446548 C177.372751,165.446548 186.38663,174.461569 186.38663,185.582927" id="Fill-11" fill="#1E2938"></path>
                <path d="M186.38663,185.582927 C186.38663,196.704285 177.372751,205.719306 166.252804,205.719306 C155.132856,205.719306 146.116551,196.704285 146.116551,185.582927 C146.116551,174.461569 155.132856,165.446548 166.252804,165.446548 C177.372751,165.446548 186.38663,174.461569 186.38663,185.582927 Z" id="Stroke-13" stroke="#41EAD4" stroke-width="4"></path>
                <g id="Group-18" transform="translate(164.665064, 174.978179)" stroke="#41EAD4" stroke-linecap="round" stroke-width="4">
                    <polyline id="Stroke-17" points="-7.32747196e-14 1.90070182e-13 -7.32747196e-14 11.1271527 7.96327043 18.5055255"></polyline>
                </g>
                <path d="M41.7742013,104.980337 C41.7742013,115.441072 33.2936104,123.918983 22.8355548,123.918983 C12.3748196,123.918983 3.89422879,115.441072 3.89422879,104.980337 C3.89422879,94.5196015 12.3748196,86.0416901 22.8355548,86.0416901 C33.2936104,86.0416901 41.7742013,94.5196015 41.7742013,104.980337" id="Fill-19" fill="#1E2938"></path>
                <path d="M41.7742013,104.980337 C41.7742013,115.441072 33.2936104,123.918983 22.8355548,123.918983 C12.3748196,123.918983 3.89422879,115.441072 3.89422879,104.980337 C3.89422879,94.5196015 12.3748196,86.0416901 22.8355548,86.0416901 C33.2936104,86.0416901 41.7742013,94.5196015 41.7742013,104.980337 Z" id="Stroke-21" stroke="#41EAD4" stroke-width="4"></path>
                <g id="Group-26" transform="translate(19.972518, 94.593432)" stroke="#41EAD4" stroke-linecap="round" stroke-width="4">
                    <polyline id="Stroke-25" points="-3.46389584e-13 6.92779167e-14 -3.46389584e-13 10.4141294 10.1686706 17.3198214"></polyline>
                </g>
                <g id="Group-31" transform="translate(86.959808, 24.926651)" stroke="#354458" stroke-width="4">
                    <path d="M30.4615321,15.8176984 C30.4615321,24.1643147 23.6931364,30.9327104 15.3438406,30.9327104 C6.99722432,30.9327104 0.228828581,24.1643147 0.228828581,15.8176984 C0.228828581,7.46840261 6.99722432,0.70000687 15.3438406,0.70000687 C23.6931364,0.70000687 30.4615321,7.46840261 30.4615321,15.8176984 Z" id="Stroke-27"></path>
                    <polyline id="Stroke-29" stroke-linecap="round" points="15.3449124 8.26676743 15.3449124 16.4006974 21.3228581 21.7951082"></polyline>
                </g>
                <path d="M170.15293,40.744349 C170.15293,45.9264857 165.951487,50.1279285 160.769351,50.1279285 C155.584535,50.1279285 151.383092,45.9264857 151.383092,40.744349 C151.383092,35.5595328 155.584535,31.35809 160.769351,31.35809 C165.951487,31.35809 170.15293,35.5595328 170.15293,40.744349 Z" id="Stroke-32" stroke="#354458" stroke-width="4"></path>
                <path d="M150.092113,8.21907248 C150.092113,12.7581312 146.410491,16.4397527 141.871432,16.4397527 C137.332374,16.4397527 133.653432,12.7581312 133.653432,8.21907248 C133.653432,3.68001374 137.332374,0.00107179663 141.871432,0.00107179663 C146.410491,0.00107179663 150.092113,3.68001374 150.092113,8.21907248 Z" id="Stroke-36" stroke="#41EAD4" stroke-width="4"></path>
                <path d="M134.872065,135.874339 L134.872065,166.305325 L116.828368,166.305325 C113.050285,166.281209 109.992985,163.22123 109.974229,159.443147 L109.974229,142.693645 C109.998344,138.9236 113.058324,135.877018 116.828368,135.874339 L134.872065,135.874339 Z M128.162618,183.971213 L81.4590794,183.971213 C83.0801718,180.991618 83.9965579,177.34483 83.9965579,173.590862 C84.0019169,161.066919 73.8573617,150.908966 61.3334181,150.900928 C57.8232841,150.895569 54.361381,151.726211 51.2370938,153.317829 L51.2370938,124.893782 C51.2370938,121.137135 54.2006115,117.99945 57.9545792,117.99945 L128.162618,117.99945 C131.916585,117.99945 134.872065,121.137135 134.872065,124.893782 L134.872065,132.468705 L116.828368,132.468705 C111.177321,132.476743 106.59539,137.042597 106.568595,142.693645 L106.568595,159.443147 C106.590031,165.102233 111.169282,169.684164 116.828368,169.710958 L134.872065,169.710958 L134.872065,177.243009 C134.888142,179.03023 134.188794,180.750464 132.924074,182.012504 C131.664713,183.277224 129.949839,183.981931 128.162618,183.971213 L128.162618,183.971213 Z M61.2878667,192.934112 C50.6288492,192.934112 41.9821299,184.292752 41.9821299,173.631055 C41.9821299,162.972037 50.6288492,154.327997 61.2878667,154.327997 C71.9495637,154.327997 80.5909241,162.972037 80.5909241,173.631055 C80.5802061,184.287393 71.9442047,192.926074 61.2878667,192.934112 L61.2878667,192.934112 Z M96.6062453,100.29337 L100.092264,105.255788 L80.4087187,114.593817 L76.1081347,114.593817 L96.6062453,100.29337 Z M120.804734,114.593817 L88.3373342,114.593817 L114.81875,102.002886 L120.804734,114.593817 Z M128.162618,114.593817 L124.574778,114.593817 L117.163305,99.0474064 C116.967702,98.6401237 116.619368,98.3293026 116.193329,98.1819306 C115.76729,98.0345586 115.301058,98.064033 114.893775,98.2596359 L103.211192,103.827619 L98.4202611,96.9841979 C98.1603504,96.614428 97.7664651,96.3625558 97.31899,96.2875301 C96.8822329,96.1937479 96.4240398,96.2794916 96.048911,96.5260048 L70.1703813,114.593817 L57.9545792,114.593817 C52.3196084,114.593817 47.83146,119.258811 47.83146,124.893782 L47.83146,155.415871 C42.0839505,159.561044 38.6247269,166.184748 38.6247269,173.631055 C38.6300859,186.154998 48.7880385,196.302233 61.3093026,196.299553 C68.3804809,196.342425 75.0497355,193.033253 79.2886912,187.374167 L128.162618,187.374167 C130.852827,187.387564 133.433178,186.323806 135.332937,184.421367 C137.232697,182.516249 138.291096,179.933219 138.277698,177.243009 L138.277698,124.893782 C138.277698,119.258811 133.794909,114.593817 128.162618,114.593817 L128.162618,114.593817 Z" id="Fill-40" fill="#FFFFFF"></path>
                <path d="M119.977843,148.834772 C121.210409,148.834772 122.212539,149.834222 122.212539,151.069468 C122.212539,152.302034 121.210409,153.304164 119.977843,153.304164 C118.742597,153.304164 117.743147,152.302034 117.743147,151.069468 C117.745826,149.836901 118.745277,148.834772 119.977843,148.834772 M114.337513,151.069468 C114.337513,154.185716 116.861594,156.707118 119.977843,156.707118 C123.094091,156.707118 125.618172,154.185716 125.618172,151.069468 C125.618172,147.953219 123.094091,145.429138 119.977843,145.429138 C116.864273,145.431817 114.340192,147.955898 114.337513,151.069468" id="Fill-42" fill="#41EAD4"></path>
                <g id="Group-46" transform="translate(0.000000, 235.143071)">
                    <mask id="mask-2" fill="white">
                        <use xlink:href="#path-1"></use>
                    </mask>
                    <g id="Clip-45"></g>
                    <path d="" id="Fill-44" fill="#000000" mask="url(#mask-2)"></path>
                </g>
            </g>
        </g>
    </g>
</svg>