<?xml version="1.0" encoding="UTF-8"?>
<svg width="171px" height="170px" viewBox="0 0 171 170" version="1.1" xmlns="http://www.w3.org/2000/svg" xmlns:xlink="http://www.w3.org/1999/xlink">
    <!-- Generator: Sketch 53.2 (72643) - https://sketchapp.com -->
    <title>logs</title>
    <desc>Created with Sketch.</desc>
    <defs>
        <polygon id="path-1" points="0 0.0958571162 29.0235064 0.0958571162 29.0235064 29.5395441 0 29.5395441"></polygon>
    </defs>
    <g id="Setup" stroke="none" stroke-width="1" fill="none" fill-rule="evenodd">
        <g id="Log-back-in-2" transform="translate(-102.000000, -91.000000)">
            <g id="logs" transform="translate(103.000000, 93.000000)">
                <path d="M75.7598,42.218 C75.7598,27.889 64.1438,16.273 49.8148,16.273 C35.4868,16.273 23.8698,27.889 23.8698,42.218 C23.8698,50.534 27.8528,57.853 33.9378,62.6 L23.8698,119.197 L75.7598,119.197 L65.6918,62.6 C71.7768,57.853 75.7598,50.534 75.7598,42.218" id="Fill-1" fill="#FEFEFE" opacity="0.15"></path>
                <path d="M137.6504,87.4939 C141.3174,81.2739 139.2494,73.2609 133.0294,69.5939 C126.8104,65.9269 118.7964,67.9949 115.1294,74.2149 C113.0014,77.8249 112.8564,82.0199 114.2824,85.6379 L95.4294,107.6259 L117.9514,120.9049 L128.0644,93.7639 C131.9214,93.2609 135.5224,91.1029 137.6504,87.4939" id="Fill-3" fill="#FEFEFE" opacity="0.15"></path>
                <path d="M104.7969,112.1243 L96.0899,117.7973 L70.9169,79.1653 C65.5419,70.9153 54.4569,68.5763 46.2059,73.9523 C37.9549,79.3293 35.6159,90.4143 40.9919,98.6633 L66.1639,137.2963 L57.4569,142.9703 L32.2839,104.3373 C23.7799,91.2863 27.4799,73.7503 40.5319,65.2453 C53.5849,56.7413 71.1209,60.4403 79.6249,73.4913 L104.7969,112.1243 Z" id="Stroke-5" stroke="#1D2837" stroke-width="3"></path>
                <path d="M120.5694,132.3684 L69.6054,165.5754 C67.1174,167.1964 63.7564,166.4874 62.1354,163.9994 L37.1624,125.6724 L97.1714,86.5714 L122.1454,124.8994 C123.7654,127.3864 123.0564,130.7474 120.5694,132.3684" id="Fill-7" fill="#FEFEFE"></path>
                <path d="M120.5694,132.3684 L69.6054,165.5754 C67.1174,167.1964 63.7564,166.4874 62.1354,163.9994 L37.1624,125.6724 L97.1714,86.5714 L122.1454,124.8994 C123.7654,127.3864 123.0564,130.7474 120.5694,132.3684 Z" id="Stroke-9" stroke="#1D2837" stroke-width="3"></path>
                <g id="komodo-icon" transform="translate(80.558824, 127.000000) rotate(-360.000000) translate(-80.558824, -127.000000) translate(66.000000, 112.000000)">
                    <g id="Group-3">
                        <mask id="mask-2" fill="white">
                            <use xlink:href="#path-1"></use>
                        </mask>
                        <g id="Clip-2"></g>
                        <path d="M14.5115411,29.5395441 C6.50997312,29.5395441 -3.85664199e-05,22.9353801 -3.85664199e-05,14.8176517 C-3.85664199e-05,6.70011899 6.50997312,0.0957593029 14.5115411,0.0957593029 C15.6380662,0.0957593029 16.7699907,0.231328653 17.8762684,0.497967938 C18.7125812,0.699463508 19.2293713,1.5508312 19.0307542,2.39906887 C18.8317515,3.24730653 17.993896,3.77139064 17.1568118,3.56989507 C16.2857892,3.35998755 15.3960619,3.25356659 14.5115411,3.25356659 C8.22617881,3.25356659 3.11246436,8.44119722 3.11246436,14.8176517 C3.11246436,21.1943018 8.22617881,26.3819325 14.5115411,26.3819325 C20.7974819,26.3819325 25.9110035,21.1943018 25.9110035,14.8176517 C25.9110035,13.9187467 25.8057172,13.0137773 25.5974585,12.1283705 C25.3984558,11.2799372 25.9152458,10.4287652 26.751173,10.2266827 C27.5878714,10.0240134 28.4261126,10.5484888 28.6256938,11.3967264 C28.889681,12.5219716 29.0235064,13.6728439 29.0235064,14.8176517 C29.0235064,22.9353801 22.5134947,29.5395441 14.5115411,29.5395441" id="Fill-1" fill="#37A9AC" mask="url(#mask-2)"></path>
                    </g>
                    <path d="M25.7563717,3.3660376 C24.7974446,2.40739923 23.2433004,2.40739923 22.284169,3.3660376 C22.2629186,3.38728167 22.2475937,3.41240686 22.2273649,3.43426373 C21.8422003,3.84811443 21.6211138,4.36062747 21.5757523,4.88784793 L21.5757523,4.89111625 C21.5757523,4.97731812 21.572483,5.06331573 21.5677833,5.15115176 C21.5641054,5.21059428 21.5553191,5.26962827 21.5493935,5.32886652 C21.4527448,6.30364221 21.0340698,7.25125001 20.2878518,7.99703921 C19.1726113,9.11214828 17.6086591,9.50455065 16.177318,9.17118226 C16.0655488,9.14564853 15.9554142,9.1154166 15.8471186,9.08028218 C15.3798128,8.96732096 14.9012687,8.91461934 14.4233377,8.92156451 C13.0678035,8.94117442 11.7239163,9.45184903 10.6587369,10.434387 C10.6019328,10.48668 10.5404291,10.5310066 10.4856683,10.5861595 C9.73761121,11.3335828 9.24762464,12.2384982 9.00304001,13.1930512 C8.52020504,15.0766234 9.01039594,17.1577246 10.4856683,18.6323486 C12.1182758,20.2646689 14.4964883,20.6924099 16.5252943,19.9245596 C17.2565962,19.6475697 17.9437625,19.2196244 18.5326455,18.6309187 C18.7747781,18.3888589 18.9807441,18.1255551 19.1701593,17.8540805 C20.1147831,16.4999757 20.4114722,14.830274 20.0406108,13.2819086 C20.0073048,13.1793651 19.9807417,13.0764131 19.9560176,12.972644 C19.9523397,12.9571195 19.9468227,12.9417993 19.9433491,12.9262748 C19.6160103,11.4986328 20.0087351,9.94148384 21.1209107,8.82964309 C21.8842926,8.06649095 22.8591575,7.64610362 23.8560901,7.56235298 C23.8885788,7.5594932 23.9208631,7.55397792 23.9533518,7.55193522 C24.0459139,7.54560285 24.138476,7.54213027 24.2310381,7.54213027 C24.2371681,7.54233454 24.246976,7.54233454 24.2533103,7.54233454 C24.8023486,7.49126708 25.3350404,7.25513114 25.754737,6.83556088 C25.8542464,6.73608147 25.9374092,6.62700137 26.0160768,6.51608285 C26.6973175,5.55764874 26.614359,4.22376667 25.7563717,3.3660376" id="Fill-4" fill="#37A9AC"></path>
                </g>
                <path d="M28.5201,43.3269 L9.4871,52.2109 C8.5591,52.6439 7.4441,52.2389 7.0101,51.3099 L0.3291,36.9959 L22.7401,26.5359 L29.4211,40.8499 C29.8541,41.7789 29.4491,42.8929 28.5201,43.3269 Z" id="Stroke-13" stroke="#FEFEFE" stroke-width="2"></path>
                <path d="M35.7027,20.4856 L33.1017,14.9136 C31.0287,10.4726 25.7287,8.5456 21.2857,10.6186 C16.8437,12.6926 14.9167,17.9926 16.9897,22.4346 L19.5907,28.0056" id="Stroke-15" stroke="#FEFEFE" stroke-width="2"></path>
                <path d="M16.5313,37.3313 C16.0953,36.3963 14.9843,35.9933 14.0493,36.4293 C13.1143,36.8653 12.7103,37.9763 13.1473,38.9113 C13.4003,39.4533 13.8823,39.8103 14.4243,39.9343 L15.4903,43.9323 L18.8753,42.3523 L16.4953,38.9673 C16.7473,38.4723 16.7843,37.8733 16.5313,37.3313 Z" id="Stroke-17" stroke="#FEFEFE"></path>
                <path d="M116.7793,53.0085 L110.7613,50.0395 L123.9343,23.3405 C126.7483,17.6395 124.3973,10.7125 118.6953,7.8985 C112.9933,5.0855 106.0663,7.4355 103.2533,13.1365 L90.0803,39.8355 L84.0633,36.8665 L97.2363,10.1675 C101.6863,1.1475 112.6443,-2.5695 121.6643,1.8815 C130.6853,6.3315 134.4023,17.2905 129.9523,26.3095 L116.7793,53.0085 Z" id="Stroke-19" stroke="#1D2837" stroke-width="3"></path>
                <path d="M110.7261,68.4333 L75.5051,51.0563 C73.7861,50.2073 73.0741,48.1073 73.9221,46.3883 L86.9911,19.8993 L128.4631,40.3613 L115.3931,66.8503 C114.5461,68.5693 112.4451,69.2813 110.7261,68.4333" id="Fill-21" fill="#FEFEFE"></path>
                <path d="M110.7261,68.4333 L75.5051,51.0563 C73.7861,50.2073 73.0741,48.1073 73.9221,46.3883 L86.9911,19.8993 L128.4631,40.3613 L115.3931,66.8503 C114.5461,68.5693 112.4451,69.2813 110.7261,68.4333 Z" id="Stroke-23" stroke="#1D2837" stroke-width="3"></path>
                <path d="M105.7779,43.2566 C106.7699,41.2456 105.9449,38.8116 103.9339,37.8196 C101.9229,36.8266 99.4879,37.6526 98.4959,39.6636 C97.9209,40.8306 97.9729,42.1336 98.4979,43.2216 L93.1659,50.4666 L100.4479,54.0596 L102.9539,45.4196 C104.1369,45.1746 105.2019,44.4236 105.7779,43.2566" id="Fill-25" fill="#5FC4BE"></path>
                <path d="M161.625,90.4651 L142.592,99.3481 C141.663,99.7821 140.548,99.3771 140.114,98.4481 L133.434,84.1341 L155.845,73.6741 L162.525,87.9881 C162.959,88.9171 162.554,90.0311 161.625,90.4651 Z" id="Stroke-27" stroke="#FEFEFE" stroke-width="2"></path>
                <path d="M168.8067,67.6237 L166.2057,62.0517 C164.1327,57.6107 158.8327,55.6837 154.3907,57.7567 C149.9487,59.8307 148.0217,65.1307 150.0947,69.5727 L152.6957,75.1437" id="Stroke-29" stroke="#FEFEFE" stroke-width="2"></path>
                <path d="M149.6358,84.4695 C149.1988,83.5345 148.0878,83.1315 147.1538,83.5675 C146.2188,84.0035 145.8148,85.1155 146.2508,86.0495 C146.5038,86.5925 146.9878,86.9485 147.5288,87.0725 L148.5948,91.0705 L151.9798,89.4905 L149.5998,86.1055 C149.8518,85.6105 149.8888,85.0115 149.6358,84.4695 Z" id="Stroke-31" stroke="#FEFEFE"></path>
            </g>
        </g>
    </g>
</svg>