<svg width="44" height="44" viewBox="0 0 44 44" fill="none" xmlns="http://www.w3.org/2000/svg">
<g clip-path="url(#clip0)">
<path d="M33.4079 28.754L33.3544 29.0305C33.2548 29.5297 32.9852 29.9789 32.5915 30.3016C32.1978 30.6242 31.7043 30.8004 31.1953 30.8H12.0993V25.3408C12.0985 25.0484 11.9861 24.7674 11.785 24.5551C11.6849 24.4486 11.5647 24.363 11.4313 24.3033C11.2979 24.2436 11.1539 24.2108 11.0078 24.207C10.8617 24.2032 10.7163 24.2284 10.58 24.2812C10.4436 24.3339 10.3191 24.4131 10.2136 24.5143L1.62102 32.8585L1.57073 32.9183C1.26276 33.25 1.09635 33.6888 1.10692 34.1413C1.11748 34.5939 1.30418 35.0244 1.6273 35.3414L10.2073 43.6857C10.4137 43.8879 10.6915 44.0008 10.9804 44C11.129 43.9983 11.2758 43.9674 11.4125 43.9091C11.5491 43.8507 11.6729 43.766 11.7768 43.6597C11.8807 43.5535 11.9627 43.4278 12.018 43.2899C12.0733 43.152 12.101 43.0046 12.0993 42.856V37.4H32.9993C34.7497 37.4 36.4285 36.7046 37.6662 35.4669C38.9039 34.2291 39.5993 32.5504 39.5993 30.8V29.3668C39.5993 28.9563 39.5184 28.5498 39.3612 28.1706C39.204 27.7914 38.9736 27.4469 38.6832 27.1567C38.3928 26.8666 38.048 26.6365 37.6686 26.4797C37.2892 26.3229 36.8827 26.2424 36.4722 26.2428C35.7498 26.2426 35.0497 26.4927 34.491 26.9505C33.9324 27.4084 33.5496 28.0457 33.4079 28.754Z" fill="#41EAD4"/>
<path d="M10.5911 15.2429L10.6445 14.9663C10.7448 14.4677 11.0147 14.0192 11.4084 13.6972C11.802 13.3752 12.2951 13.1995 12.8037 13.2H31.8997V18.656C31.9006 18.9493 32.013 19.2313 32.2139 19.4449C32.3141 19.5515 32.4344 19.6372 32.5679 19.6969C32.7015 19.7566 32.8455 19.7892 32.9918 19.7927C33.138 19.7962 33.2835 19.7706 33.4197 19.7173C33.556 19.6641 33.6803 19.5843 33.7854 19.4826L42.3717 11.1414L42.4282 11.0817C42.7362 10.75 42.9026 10.3112 42.892 9.85865C42.8815 9.40613 42.6948 8.97557 42.3717 8.65857L33.7917 0.314286C33.5847 0.112888 33.3073 0.000139666 33.0185 0C32.8701 0.00123119 32.7233 0.0317411 32.5867 0.0897815C32.4501 0.147822 32.3263 0.232252 32.2223 0.338233C32.1184 0.444215 32.0364 0.569664 31.981 0.707393C31.9256 0.845123 31.898 0.992424 31.8997 1.14086V6.6H10.9997C9.24923 6.6 7.57049 7.29536 6.33275 8.5331C5.09501 9.77084 4.39966 11.4496 4.39966 13.2V14.63C4.39966 15.4635 4.73078 16.2629 5.32018 16.8523C5.90958 17.4417 6.70898 17.7729 7.54252 17.7729C8.26384 17.7651 8.96052 17.5094 9.51563 17.0487C10.0707 16.588 10.4505 15.9504 10.5911 15.2429Z" fill="#41EAD4"/>
</g>
<defs>
<clipPath id="clip0">
<rect width="44" height="44" fill="white"/>
</clipPath>
</defs>
</svg>
