<?xml version="1.0" encoding="UTF-8" standalone="no"?>
<!-- Created with Inkscape (http://www.inkscape.org/) -->

<svg
   width="10mm"
   height="10mm"
   viewBox="0 0 10 10"
   version="1.1"
   id="svg5"
   xmlns="http://www.w3.org/2000/svg"
   xmlns:svg="http://www.w3.org/2000/svg">
  <defs
     id="defs2" />
  <g
     id="layer1">
    <path
       d="m 6.619442,5.2137714 c 0,1.5965782 -0.6471209,2.8908675 -1.4454337,2.8908675 -0.7982891,0 -1.4454347,-1.2942893 -1.4454347,-2.8908675 0,-1.5965819 0.6471456,-2.8908674 1.4454347,-2.8908674 0.7983128,0 1.4454337,1.2942855 1.4454337,2.8908674 z"
       fill="#000000"
       id="path179"
       style="stroke-width:0.481811" />
    <path
       d="M 9.510262,6.6047603 6.6617934,1.8569927 C 6.2879073,1.2340112 5.7159981,0.87747032 5.0915762,0.87747032 c -0.6244273,0 -1.1963393,0.35654088 -1.5702235,0.97855898 L 0.67288402,6.6047603 C 0.29417967,7.235452 0.25274387,7.9080599 0.55965289,8.4500988 0.86608482,8.9926167 1.4644934,9.3038671 2.2007022,9.3038671 h 5.7817303 c 0.7362069,0 1.3346173,-0.3112504 1.6410497,-0.8532875 C 9.9303953,7.9085424 9.8889593,7.2359345 9.5102511,6.6047603 Z M 5.0915762,7.6411367 c -0.4114683,0 -0.7468089,-0.334858 -0.7468089,-0.7463245 0,-0.4119491 0.3348599,-0.7472897 0.7468089,-0.7472897 0.4119436,0 0.7468017,0.3353406 0.7468017,0.7472897 0,0.4114665 -0.3353406,0.7463245 -0.7468017,0.7463245 z M 5.8783693,4.0641713 c -0.00529,0.014932 -0.6750189,1.6709214 -0.6750189,1.6709214 -0.018301,0.045288 -0.062625,0.075171 -0.1113008,0.075171 -0.048658,0 -0.092982,-0.029865 -0.1113008,-0.075171 L 4.3105494,4.0786248 C 4.2671913,3.9663594 4.2483976,3.8651832 4.2483976,3.7630385 c 0,-0.4649479 0.3782229,-0.84317 0.8431709,-0.84317 0.4649425,0 0.8431645,0.3782221 0.8431645,0.84317 0,0.1021406 -0.018793,0.203324 -0.056379,0.3011328 z"
       fill="#ffc847"
       id="path181"
       style="stroke-width:0.481811" />
  </g>
</svg>
