<svg width="358" height="228" viewBox="0 0 358 228" fill="none" xmlns="http://www.w3.org/2000/svg">
<path d="M142.608 64.3383C142.608 62.9822 143.011 61.6565 143.764 60.5291C144.518 59.4017 145.589 58.5231 146.842 58.0046C148.095 57.486 149.474 57.3508 150.804 57.6161C152.134 57.8813 153.355 58.5351 154.313 59.4947C155.272 60.4543 155.924 61.6765 156.187 63.0068C156.451 64.3371 156.313 65.7157 155.793 66.968C155.273 68.2204 154.393 69.2903 153.264 70.0423C152.136 70.7944 150.81 71.1948 149.454 71.193C147.637 71.1905 145.896 70.4672 144.613 69.1819C143.329 67.8967 142.608 66.1546 142.608 64.3383ZM140.257 104.937C134.849 100.499 129.899 95.5297 125.481 90.1046C130.006 85.0784 134.921 80.4186 140.182 76.1687C140.447 75.9505 140.667 75.6821 140.829 75.379C140.99 75.0758 141.091 74.7438 141.124 74.4019C141.157 74.06 141.123 73.7148 141.023 73.3862C140.923 73.0575 140.759 72.7518 140.541 72.4865C140.322 72.2211 140.054 72.0014 139.751 71.8397C139.448 71.6781 139.116 71.5778 138.774 71.5445C138.432 71.5111 138.087 71.5455 137.758 71.6456C137.429 71.7456 137.124 71.9095 136.858 72.1277C131.689 76.3188 126.835 80.8852 122.337 85.7898C117.824 78.9351 116.304 73.053 118.494 69.2763C120.685 65.4996 126.407 63.8568 134.828 64.3572C135.518 64.393 136.193 64.155 136.708 63.6949C137.222 63.2349 137.534 62.5901 137.575 61.9012C137.616 61.2122 137.383 60.535 136.927 60.017C136.471 59.499 135.829 59.1823 135.14 59.136C124.49 58.5034 117.201 61.0998 113.953 66.6893C111.932 70.2016 110.733 76.4803 116.568 86.4412C117.239 87.5931 117.994 88.7733 118.825 89.963C110.714 100.16 107.976 108.978 111.451 114.993C114.076 119.534 119.731 121.847 128.03 121.847C131.121 121.825 134.205 121.563 137.255 121.064C137.941 120.956 138.556 120.58 138.965 120.019C139.374 119.458 139.544 118.757 139.436 118.071C139.328 117.385 138.952 116.769 138.391 116.36C137.83 115.951 137.129 115.782 136.443 115.89C125.698 117.57 118.249 116.286 115.992 112.377C114.038 108.997 115.652 102.671 122.082 94.2684C126.548 99.6279 131.508 104.556 136.896 108.988C137.366 109.386 137.961 109.603 138.577 109.602C139.115 109.603 139.641 109.439 140.083 109.131C140.524 108.822 140.86 108.385 141.044 107.879C141.227 107.373 141.251 106.823 141.11 106.303C140.969 105.783 140.671 105.319 140.257 104.975V104.937ZM147.858 76.3292C147.513 76.3267 147.172 76.3926 146.853 76.523C146.534 76.6535 146.244 76.8458 146 77.0891C145.756 77.3323 145.562 77.6216 145.431 77.94C145.299 78.2585 145.232 78.6 145.233 78.9446V79.445C145.233 86.564 145.573 93.6075 146.234 100.415C146.297 101.063 146.599 101.664 147.08 102.102C147.562 102.54 148.189 102.783 148.84 102.785H149.095C149.78 102.715 150.41 102.38 150.85 101.85C151.29 101.32 151.504 100.638 151.446 99.9522C150.804 93.3431 150.502 86.4318 150.502 79.4827V79.0012C150.509 78.6511 150.446 78.303 150.316 77.9777C150.186 77.6525 149.992 77.3567 149.746 77.1082C149.499 76.8597 149.204 76.6634 148.88 76.5312C148.556 76.399 148.208 76.3335 147.858 76.3387V76.3292ZM187.173 96.4683C179.695 100.661 171.97 104.397 164.041 107.657C163.48 107.888 163.017 108.307 162.729 108.841C162.442 109.376 162.349 109.993 162.466 110.589C162.583 111.184 162.902 111.721 163.37 112.107C163.838 112.493 164.426 112.706 165.032 112.708C165.372 112.706 165.709 112.639 166.024 112.51C174.146 109.168 182.06 105.34 189.722 101.047C190.288 100.689 190.695 100.127 190.86 99.4773C191.025 98.8278 190.936 98.1397 190.61 97.5542C190.284 96.9687 189.746 96.53 189.107 96.3281C188.468 96.1262 187.776 96.1763 187.173 96.4683ZM247.203 36.6176C243.256 29.7913 232.653 28.0068 216.518 31.4625C210.509 32.7871 204.6 34.5286 198.833 36.6743C197.818 32.1726 196.532 27.7364 194.981 23.3898C189.524 8.40593 182.367 0.484375 174.238 0.484375C159.679 0.484375 150.804 25.6842 147.339 49.2694C147.238 49.9568 147.415 50.6558 147.831 51.2127C148.246 51.7695 148.865 52.1387 149.553 52.2388C150.24 52.339 150.939 52.162 151.496 51.7468C152.053 51.3316 152.422 50.7121 152.522 50.0248C156.346 23.9375 165.278 5.7245 174.238 5.7245C179.799 5.7245 185.568 12.8152 190.015 25.1743C191.569 29.5534 192.849 34.0247 193.848 38.5626C184.167 42.4706 174.777 47.0646 165.75 52.3096C164.201 53.2538 162.615 54.1413 161.029 55.1421C160.735 55.3207 160.479 55.5554 160.276 55.8328C160.073 56.1102 159.927 56.4249 159.845 56.7589C159.763 57.093 159.749 57.4398 159.801 57.7796C159.854 58.1194 159.972 58.4456 160.151 58.7394C160.33 59.0333 160.564 59.2891 160.842 59.4922C161.119 59.6954 161.434 59.8419 161.768 59.9235C162.102 60.005 162.449 60.02 162.788 59.9674C163.128 59.9149 163.454 59.796 163.748 59.6175C165.306 58.6733 166.855 57.7292 168.365 56.8794C176.904 51.9154 185.775 47.5462 194.915 43.8027C196.82 54.4004 197.843 65.1377 197.974 75.9043C197.984 76.5914 198.264 77.247 198.754 77.7293C199.243 78.2116 199.902 78.482 200.59 78.4819H200.637C201.331 78.467 201.99 78.1791 202.473 77.6805C202.956 77.182 203.222 76.5132 203.214 75.8194C203.075 64.4365 201.957 53.0867 199.872 41.8955C222.343 33.5868 238.998 33.0014 242.624 39.2802C244.607 42.7169 242.86 48.5802 237.705 55.7747C232.096 63.5452 223.08 72.241 211.599 80.7385C211.323 80.9437 211.09 81.2012 210.914 81.4964C210.737 81.7915 210.621 82.1185 210.571 82.4587C210.521 82.7989 210.538 83.1456 210.622 83.479C210.706 83.8124 210.855 84.126 211.06 84.4018C211.266 84.6777 211.523 84.9105 211.818 85.0868C212.113 85.2632 212.44 85.3797 212.781 85.4296C213.121 85.4796 213.467 85.4621 213.801 85.3781C214.134 85.2941 214.448 85.1452 214.724 84.94C226.639 76.0648 236.052 67.0009 241.954 58.7772C246.504 52.4135 251.093 43.4439 247.203 36.6176ZM214.875 96.2794C214.349 95.8262 213.665 95.6004 212.972 95.6518C212.28 95.7031 211.636 96.0274 211.183 96.5533C210.73 97.0791 210.504 97.7635 210.555 98.4558C210.607 99.1481 210.931 99.7917 211.457 100.245C227.508 114.039 235.628 127.862 231.719 134.631C229.018 139.352 220.521 140.797 208.407 138.71C203.879 137.903 199.412 136.783 195.038 135.358C198.351 125.671 200.596 115.651 201.732 105.476C201.817 104.787 201.625 104.093 201.199 103.546C200.772 102.998 200.145 102.643 199.457 102.558C198.768 102.473 198.074 102.665 197.527 103.092C196.979 103.518 196.624 104.145 196.539 104.834C195.444 114.652 193.279 124.321 190.081 133.668C181.077 130.324 172.375 126.218 164.069 121.394C163.47 121.094 162.78 121.035 162.138 121.227C161.497 121.42 160.954 121.851 160.619 122.431C160.285 123.012 160.185 123.698 160.341 124.349C160.496 125.001 160.894 125.568 161.454 125.936C169.976 130.881 178.902 135.095 188.136 138.531C187.853 139.173 187.57 139.796 187.277 140.419C183.311 148.662 178.694 153.194 174.285 153.194C167.903 153.194 161.341 143.903 156.743 128.343C156.645 128.014 156.483 127.706 156.266 127.439C156.049 127.172 155.782 126.95 155.48 126.786C155.177 126.622 154.845 126.519 154.503 126.483C154.161 126.448 153.815 126.48 153.485 126.578C153.155 126.676 152.848 126.838 152.581 127.054C152.314 127.271 152.092 127.538 151.928 127.841C151.764 128.143 151.661 128.475 151.625 128.817C151.59 129.159 151.622 129.505 151.72 129.835C157.177 148.275 165.193 158.434 174.285 158.434C180.894 158.434 187.031 152.986 191.998 142.695C192.375 141.911 192.744 141.09 193.102 140.259C197.817 141.808 202.634 143.023 207.52 143.894C210.996 144.507 214.518 144.823 218.047 144.838C227.036 144.838 233.362 142.241 236.251 137.228C241.661 127.805 233.664 112.491 214.828 96.2794H214.875ZM190.553 79.0201L188.901 78.0759C181.068 73.5284 172.895 69.5921 164.456 66.3022C163.817 66.0923 163.122 66.136 162.514 66.4241C161.906 66.7123 161.431 67.2229 161.189 67.8506C160.947 68.4783 160.955 69.1751 161.211 69.7971C161.468 70.4191 161.954 70.9188 162.568 71.193C170.752 74.3837 178.676 78.2065 186.267 82.6268L187.872 83.571C188.273 83.8134 188.734 83.9408 189.203 83.9392C189.795 83.9657 190.379 83.7901 190.859 83.4412C191.338 83.0922 191.685 82.5906 191.842 82.0187C191.999 81.4468 191.957 80.8385 191.723 80.2937C191.489 79.7488 191.076 79.2997 190.553 79.0201ZM157.913 114.728C157.913 113.375 157.512 112.051 156.76 110.925C156.008 109.8 154.938 108.922 153.688 108.404C152.437 107.886 151.061 107.751 149.733 108.015C148.405 108.279 147.185 108.931 146.228 109.888C145.271 110.845 144.619 112.065 144.354 113.393C144.09 114.721 144.226 116.097 144.744 117.348C145.262 118.599 146.139 119.668 147.265 120.42C148.391 121.172 149.714 121.574 151.068 121.574C152.884 121.574 154.625 120.852 155.908 119.569C157.192 118.285 157.913 116.544 157.913 114.728ZM207.473 90.5578C207.474 89.2017 207.074 87.8755 206.322 86.747C205.57 85.6185 204.5 84.7385 203.248 84.2182C201.995 83.6979 200.617 83.5609 199.286 83.8243C197.956 84.0877 196.734 84.7398 195.774 85.6981C194.815 86.6563 194.161 87.8777 193.896 89.2076C193.63 90.5375 193.766 91.9163 194.284 93.1693C194.803 94.4224 195.681 95.4935 196.809 96.2471C197.936 97.0007 199.262 97.403 200.618 97.403C201.52 97.403 202.413 97.2251 203.245 96.8794C204.078 96.5338 204.835 96.0272 205.472 95.3886C206.108 94.7501 206.613 93.9923 206.956 93.1584C207.3 92.3246 207.475 91.4312 207.473 90.5295V90.5578Z" fill="url(#paint0_linear)"/>
<path d="M242.832 179.215C257.722 179.215 268.467 190.092 268.467 203.461C268.467 216.831 257.722 227.707 242.832 227.707H227.112C226.862 227.707 226.622 227.608 226.445 227.431C226.267 227.254 226.168 227.014 226.168 226.763V180.121C226.168 179.871 226.267 179.631 226.445 179.454C226.622 179.277 226.862 179.177 227.112 179.177L242.832 179.215ZM235.874 217.095C235.874 217.345 235.973 217.586 236.151 217.763C236.328 217.94 236.568 218.039 236.818 218.039H242.842C251.849 218.039 258.081 212.148 258.081 203.49C258.081 194.832 251.849 188.94 242.842 188.94H236.818C236.568 188.94 236.328 189.039 236.151 189.216C235.973 189.394 235.874 189.634 235.874 189.884V217.095Z" fill="url(#paint1_linear)"/>
<path d="M306.507 180.121V187.996C306.507 188.246 306.408 188.486 306.231 188.663C306.054 188.84 305.813 188.94 305.563 188.94H283.847C283.597 188.94 283.357 189.039 283.18 189.216C283.002 189.393 282.903 189.634 282.903 189.884V196.72C282.903 196.97 283.002 197.21 283.18 197.387C283.357 197.564 283.597 197.664 283.847 197.664H299.341C299.591 197.664 299.831 197.763 300.009 197.94C300.186 198.117 300.285 198.358 300.285 198.608V206.482C300.285 206.733 300.186 206.973 300.009 207.15C299.831 207.327 299.591 207.427 299.341 207.427H283.866C283.616 207.427 283.375 207.526 283.198 207.703C283.021 207.88 282.922 208.12 282.922 208.371V217.284C282.922 217.534 283.021 217.774 283.198 217.951C283.375 218.128 283.616 218.228 283.866 218.228H306.29C306.54 218.228 306.781 218.327 306.958 218.504C307.135 218.681 307.234 218.922 307.234 219.172V227.056C307.234 227.306 307.135 227.546 306.958 227.723C306.781 227.9 306.54 228 306.29 228H274.188C273.938 228 273.698 227.9 273.521 227.723C273.344 227.546 273.244 227.306 273.244 227.056V180.121C273.244 179.871 273.344 179.631 273.521 179.454C273.698 179.277 273.938 179.177 274.188 179.177H305.62C305.86 179.192 306.086 179.297 306.251 179.473C306.416 179.648 306.508 179.88 306.507 180.121Z" fill="url(#paint2_linear)"/>
<path d="M324.21 179.602L333.472 193.019C333.561 193.134 333.674 193.228 333.804 193.292C333.935 193.357 334.078 193.39 334.223 193.39C334.368 193.39 334.512 193.357 334.642 193.292C334.772 193.228 334.886 193.134 334.974 193.019L344.236 179.602C344.323 179.483 344.437 179.386 344.568 179.319C344.699 179.252 344.844 179.216 344.991 179.215H354.839C355.003 179.225 355.161 179.276 355.299 179.366C355.437 179.455 355.549 179.579 355.624 179.725C355.699 179.87 355.735 180.033 355.728 180.197C355.722 180.361 355.672 180.521 355.585 180.66L340.478 201.535C340.369 201.693 340.31 201.881 340.31 202.073C340.31 202.266 340.369 202.454 340.478 202.612L357.643 226.216C357.73 226.354 357.78 226.513 357.787 226.676C357.794 226.839 357.759 227.002 357.685 227.147C357.611 227.293 357.5 227.417 357.364 227.506C357.227 227.596 357.07 227.649 356.907 227.66H347.068C346.923 227.658 346.779 227.622 346.65 227.554C346.521 227.487 346.409 227.391 346.323 227.273L334.993 211.062C334.904 210.948 334.791 210.856 334.662 210.793C334.533 210.73 334.391 210.697 334.247 210.697C334.103 210.697 333.961 210.73 333.831 210.793C333.702 210.856 333.589 210.948 333.501 211.062L322.171 227.273C322.085 227.391 321.973 227.487 321.843 227.554C321.714 227.622 321.571 227.658 321.425 227.66H311.511C311.348 227.649 311.191 227.596 311.054 227.506C310.918 227.417 310.807 227.293 310.733 227.147C310.659 227.002 310.624 226.839 310.631 226.676C310.638 226.513 310.688 226.354 310.775 226.216L327.949 202.612C328.059 202.454 328.117 202.266 328.117 202.073C328.117 201.881 328.059 201.693 327.949 201.535L312.842 180.66C312.755 180.521 312.706 180.363 312.699 180.2C312.691 180.036 312.726 179.874 312.801 179.728C312.875 179.583 312.986 179.459 313.122 179.369C313.258 179.279 313.416 179.226 313.579 179.215H323.455C323.602 179.216 323.747 179.252 323.878 179.319C324.01 179.386 324.123 179.483 324.21 179.602Z" fill="url(#paint3_linear)"/>
<path d="M122.205 192.273C124.824 190.592 127.856 189.667 130.967 189.601C136.424 189.601 140.352 191.121 143.024 193.614C143.292 193.856 143.637 193.996 143.999 194.008C144.36 194.02 144.714 193.904 144.997 193.68C148.176 191.158 152.083 189.728 156.139 189.601C167.582 189.601 172.539 196.078 172.539 206.379V225.064C172.536 225.468 172.374 225.854 172.087 226.139C171.801 226.424 171.413 226.584 171.009 226.584H165.212C164.809 226.584 164.422 226.424 164.137 226.139C163.852 225.854 163.692 225.467 163.692 225.064V207.351C163.692 201.252 161.02 198.117 155.836 198.117C152.848 198.152 149.99 199.347 147.868 201.45C147.711 201.595 147.586 201.77 147.5 201.965C147.414 202.16 147.369 202.37 147.367 202.583V225.045C147.367 225.448 147.207 225.835 146.922 226.12C146.637 226.405 146.25 226.565 145.847 226.565H140.05C139.85 226.566 139.651 226.528 139.465 226.452C139.28 226.376 139.111 226.264 138.969 226.123C138.827 225.982 138.714 225.814 138.637 225.629C138.56 225.444 138.52 225.245 138.52 225.045V207.351C138.52 201.252 135.848 198.117 130.665 198.117C127.68 198.152 124.825 199.347 122.706 201.45C122.547 201.593 122.421 201.768 122.335 201.963C122.249 202.159 122.204 202.37 122.205 202.583V225.045C122.203 225.449 122.04 225.835 121.754 226.12C121.467 226.405 121.08 226.565 120.676 226.565H114.879C114.475 226.565 114.089 226.405 113.804 226.12C113.519 225.835 113.358 225.448 113.358 225.045V192.273C113.358 192.073 113.398 191.876 113.474 191.691C113.551 191.507 113.662 191.339 113.804 191.198C113.945 191.057 114.112 190.945 114.297 190.868C114.481 190.792 114.679 190.753 114.879 190.753H120.685C121.088 190.755 121.473 190.916 121.757 191.201C122.042 191.485 122.203 191.87 122.205 192.273Z" fill="white"/>
<path d="M69.4449 220.031C69.4419 219.794 69.3838 219.561 69.2752 219.35C69.1666 219.139 69.0104 218.957 68.819 218.816C68.6276 218.676 68.4062 218.583 68.1724 218.543C67.9385 218.503 67.6986 218.518 67.4716 218.587C66.21 218.985 64.8951 219.189 63.5722 219.191C60.5225 219.191 57.8505 217.208 57.8505 211.109V201.195C57.8505 200.79 58.0117 200.401 58.2985 200.114C58.5854 199.827 58.9744 199.666 59.3801 199.666H67.9248C68.328 199.666 68.7146 199.506 68.9997 199.221C69.2847 198.936 69.4449 198.549 69.4449 198.146V192.273C69.4462 192.073 69.4078 191.874 69.3319 191.688C69.2561 191.503 69.1443 191.334 69.003 191.192C68.8618 191.05 68.6938 190.937 68.5087 190.86C68.3237 190.783 68.1252 190.743 67.9248 190.743H59.3801C58.9744 190.743 58.5854 190.582 58.2985 190.295C58.0117 190.009 57.8505 189.62 57.8505 189.214V183.115C57.8505 182.711 57.6904 182.325 57.4053 182.04C57.1202 181.755 56.7336 181.594 56.3304 181.594H50.4577C50.0569 181.594 49.6721 181.752 49.3861 182.032C49.1 182.313 48.9356 182.695 48.9282 183.096V189.195C48.9294 189.395 48.891 189.594 48.8152 189.78C48.7394 189.965 48.6276 190.134 48.4863 190.276C48.345 190.418 48.177 190.531 47.992 190.608C47.8069 190.685 47.6085 190.725 47.4081 190.725H43.9713C43.7709 190.725 43.5724 190.764 43.3874 190.841C43.2024 190.918 43.0344 191.031 42.8931 191.173C42.7518 191.315 42.64 191.484 42.5642 191.669C42.4884 191.855 42.45 192.054 42.4512 192.254V198.127C42.4512 198.53 42.6114 198.917 42.8964 199.202C43.1815 199.487 43.5682 199.647 43.9713 199.647H47.4081C47.6085 199.647 47.8069 199.687 47.992 199.764C48.177 199.841 48.345 199.953 48.4863 200.095C48.6276 200.238 48.7394 200.406 48.8152 200.592C48.891 200.777 48.9294 200.976 48.9282 201.176V211.846C48.9282 221.759 53.8851 227.708 63.5722 227.708C65.1999 227.65 66.8127 227.377 68.3686 226.896C68.6816 226.8 68.9555 226.606 69.1494 226.342C69.3433 226.079 69.447 225.759 69.4449 225.432V220.031Z" fill="white"/>
<path d="M90.3765 189.582C86.6067 189.584 82.922 190.703 79.7884 192.799C76.6548 194.895 74.213 197.873 72.7716 201.356C71.3302 204.84 70.9541 208.672 71.6907 212.369C72.4273 216.067 74.2436 219.462 76.9099 222.127C79.5763 224.792 82.9729 226.607 86.6705 227.342C90.368 228.077 94.2004 227.699 97.6831 226.255C101.166 224.812 104.142 222.369 106.237 219.234C108.331 216.1 109.449 212.415 109.449 208.645C109.449 206.141 108.955 203.661 107.997 201.348C107.038 199.034 105.633 196.932 103.862 195.162C102.091 193.392 99.9883 191.988 97.6744 191.03C95.3605 190.073 92.8807 189.581 90.3765 189.582ZM90.3765 219.163C88.2947 219.17 86.2574 218.56 84.5228 217.409C82.7881 216.257 81.4341 214.617 80.6323 212.696C79.8304 210.775 79.6167 208.659 80.0183 206.616C80.4198 204.573 81.4186 202.696 82.888 201.221C84.3575 199.746 86.2315 198.741 88.2729 198.332C90.3142 197.923 92.4309 198.129 94.355 198.924C96.2792 199.719 97.9241 201.067 99.0815 202.797C100.239 204.528 100.857 206.563 100.857 208.645C100.857 211.428 99.7538 214.097 97.7895 216.069C95.8251 218.04 93.1595 219.153 90.3765 219.163Z" fill="white"/>
<path d="M186.598 181.415C186.598 178.876 184.539 176.817 181.999 176.817C179.46 176.817 177.401 178.876 177.401 181.415C177.401 183.954 179.46 186.013 181.999 186.013C184.539 186.013 186.598 183.954 186.598 181.415Z" fill="white"/>
<path d="M184.842 190.724H179.054C178.209 190.724 177.524 191.409 177.524 192.254V225.035C177.524 225.88 178.209 226.565 179.054 226.565H184.842C185.686 226.565 186.371 225.88 186.371 225.035V192.254C186.371 191.409 185.686 190.724 184.842 190.724Z" fill="white"/>
<path d="M37.3815 190.724H31.5843C31.3823 190.722 31.1818 190.76 30.9946 190.835C30.8073 190.911 30.6371 191.024 30.4938 191.166C30.3505 191.309 30.2371 191.478 30.16 191.665C30.083 191.852 30.044 192.052 30.0453 192.254V192.547C27.1618 190.713 23.8387 189.687 20.4233 189.578C17.0079 189.468 13.6257 190.278 10.6304 191.922C7.63511 193.567 5.13676 195.987 3.39657 198.927C1.65638 201.868 0.738281 205.223 0.738281 208.64C0.738281 212.057 1.65638 215.411 3.39657 218.352C5.13676 221.293 7.63511 223.713 10.6304 225.357C13.6257 227.002 17.0079 227.812 20.4233 227.702C23.8387 227.592 27.1618 226.567 30.0453 224.733V225.045C30.0453 225.448 30.2054 225.835 30.4905 226.12C30.7756 226.405 31.1622 226.565 31.5654 226.565H37.3626C37.7666 226.565 38.1542 226.405 38.4408 226.12C38.7274 225.835 38.8896 225.449 38.8921 225.045V192.254C38.8922 191.851 38.7336 191.465 38.4508 191.179C38.1681 190.893 37.7838 190.729 37.3815 190.724ZM19.8389 219.163C17.8651 219.165 15.9306 218.612 14.2564 217.566C12.5822 216.521 11.2359 215.026 10.3715 213.251C9.50697 211.477 9.15918 209.495 9.36784 207.533C9.5765 205.57 10.3332 203.706 11.5514 202.153C12.7696 200.6 14.4002 199.421 16.2568 198.751C18.1133 198.081 20.1209 197.947 22.05 198.364C23.9792 198.781 25.752 199.733 27.1659 201.11C28.5797 202.487 29.5775 204.235 30.0453 206.152V211.137C29.4859 213.423 28.1767 215.456 26.3266 216.911C24.4765 218.365 22.1924 219.158 19.8389 219.163Z" fill="white"/>
<path d="M219.616 219.021C219.615 218.766 219.55 218.515 219.427 218.291C219.305 218.067 219.127 217.877 218.912 217.739C218.697 217.601 218.451 217.519 218.196 217.5C217.942 217.482 217.686 217.528 217.454 217.633C215.262 218.64 212.879 219.165 210.467 219.172C203.858 219.172 199.713 214.518 199.713 208.645C199.713 202.772 203.839 198.118 210.467 198.118C212.879 198.125 215.262 198.65 217.454 199.657C217.685 199.764 217.94 199.812 218.196 199.795C218.451 199.779 218.697 199.698 218.913 199.56C219.128 199.423 219.306 199.233 219.429 199.009C219.552 198.785 219.616 198.534 219.616 198.278V192.556C219.618 192.254 219.53 191.958 219.361 191.707C219.193 191.456 218.952 191.262 218.672 191.15C216.062 190.096 213.272 189.563 210.457 189.582C198.636 189.582 190.63 198.08 190.63 208.645C190.63 219.21 198.636 227.708 210.457 227.708C213.271 227.73 216.062 227.2 218.672 226.15C218.953 226.036 219.194 225.84 219.362 225.587C219.531 225.335 219.619 225.037 219.616 224.734V219.021Z" fill="white"/>
<defs>
<linearGradient id="paint0_linear" x1="109.978" y1="79.445" x2="248.648" y2="79.445" gradientUnits="userSpaceOnUse">
<stop offset="0.02" stop-color="#2ABCF1"/>
<stop offset="1" stop-color="#6A4DE3"/>
</linearGradient>
<linearGradient id="paint1_linear" x1="222.271" y1="177.466" x2="352.731" y2="241.179" gradientUnits="userSpaceOnUse">
<stop offset="0.02" stop-color="#2ABCF1"/>
<stop offset="1" stop-color="#6A4DE3"/>
</linearGradient>
<linearGradient id="paint2_linear" x1="227.328" y1="156.228" x2="338.574" y2="238.145" gradientUnits="userSpaceOnUse">
<stop offset="0.02" stop-color="#2ABCF1"/>
<stop offset="1" stop-color="#6A4DE3"/>
</linearGradient>
<linearGradient id="paint3_linear" x1="228.339" y1="149.149" x2="364.867" y2="235.111" gradientUnits="userSpaceOnUse">
<stop offset="0.02" stop-color="#2ABCF1"/>
<stop offset="1" stop-color="#6A4DE3"/>
</linearGradient>
</defs>
</svg>
