<?xml version="1.0" encoding="UTF-8"?>
<svg width="119px" height="135px" viewBox="0 0 119 135" version="1.1" xmlns="http://www.w3.org/2000/svg" xmlns:xlink="http://www.w3.org/1999/xlink">
    <!-- Generator: Sketch 53.2 (72643) - https://sketchapp.com -->
    <title>claim reward</title>
    <desc>Created with Sketch.</desc>
    <g id="Dashboards" stroke="none" stroke-width="1" fill="none" fill-rule="evenodd">
        <g id="claim-reward" transform="translate(-128.000000, -140.000000)">
            <g transform="translate(128.000000, 140.000000)">
                <path d="M66.999856,52.6768099 L68.585888,62.5736408 L60.206384,57.8524437 C59.741808,57.591 59.188696,57.591 58.72412,57.8524437 L50.347472,62.5783944 L51.928744,52.679662 C52.025848,52.0683592 51.840208,51.4475493 51.4318,51.0206831 L44.785888,44.0776901 L54.029808,42.6345211 C54.560072,42.5518099 55.022744,42.1838873 55.267408,41.651493 L59.459064,32.5380423 L63.65548,41.6495915 C63.901096,42.1819859 64.362816,42.5489577 64.89308,42.6307183 L74.138904,44.0691338 L67.495848,51.0168803 C67.08744,51.4437465 66.9018,52.0636056 66.999856,52.6768099 M72.407216,65.546493 L70.398496,53.0114577 L78.900808,44.1195211 C79.370144,43.628007 79.540552,42.8731479 79.33492,42.1962465 C79.136904,41.542162 78.613304,41.0592042 78.00212,40.9641338 L66.193512,39.1273732 L60.92324,27.6827958 C60.638592,27.0676901 60.077864,26.6845563 59.458112,26.6845563 C58.83836,26.6845563 58.27668,27.0676901 57.993936,27.6837465 L52.728424,39.1311761 L40.920768,40.9736408 C40.300064,41.0706127 39.789792,41.5440634 39.587968,42.2076549 C39.383288,42.8845563 39.553696,43.6403662 40.023032,44.1299789 L48.531056,53.017162 L46.528048,65.5540986 C46.416664,66.2538169 46.683224,66.9706479 47.207776,67.3785 C47.698056,67.7597324 48.359696,67.8120211 48.890912,67.5115986 L59.46668,61.5459296 L70.045304,67.5058944 C70.58604,67.8110704 71.231496,67.7587817 71.72844,67.3718451 C72.252992,66.9630423 72.519552,66.2462113 72.407216,65.546493" id="Fill-1" fill="#41EAD4"></path>
                <path d="M28.663292,129.383049 L22.929396,115.426711 L27.5009,107.95893 C27.997844,107.14893 27.742708,106.085092 26.933508,105.588824 C26.542236,105.350197 26.08242,105.276042 25.634028,105.382521 C25.18754,105.489951 24.808644,105.765655 24.567788,106.157345 L19.964868,113.673613 L4.955636,115.690056 L25.04474,80.7250563 L25.924388,81.5968521 C31.979108,87.5976972 39.512284,91.8720634 47.708052,93.9598099 L48.923756,94.2687887 L28.663292,129.383049 Z M15.219148,47.7137535 C15.219148,23.3044225 35.066444,3.44611268 59.462396,3.44611268 C83.857396,3.44611268 103.70374,23.3044225 103.70374,47.7137535 C103.70374,72.1230845 83.857396,91.9813944 59.462396,91.9813944 C35.066444,91.9813944 15.219148,72.1230845 15.219148,47.7137535 L15.219148,47.7137535 Z M113.968204,115.690056 L98.95802,113.673613 L94.354148,106.157345 C94.114244,105.764704 93.7363,105.489951 93.28886,105.382521 C92.844276,105.275092 92.382556,105.348296 91.991284,105.588824 C91.18018,106.086042 90.925044,107.14893 91.421988,107.95893 L95.995396,115.426711 L90.259596,129.383049 L70.000084,94.2687887 L71.215788,93.9598099 C79.412508,91.8720634 86.944732,87.5976972 92.9985,81.5968521 L93.878148,80.7250563 L113.968204,115.690056 Z M53.151588,95.0084366 C57.334676,95.5636479 61.590116,95.5636479 65.773204,95.0084366 L66.362492,94.9304789 L66.772804,95.5722042 L89.031516,134.138472 C89.337108,134.670866 89.908308,134.99981 90.520444,134.99981 L90.633732,134.996007 C91.2849,134.952275 91.864668,134.535866 92.110284,133.93312 L99.006572,117.156993 L116.97462,119.570831 C117.62674,119.661148 118.262676,119.373085 118.630148,118.824528 C118.998572,118.275021 119.022372,117.577204 118.692028,117.00393 L118.692028,117.00393 L96.281948,78.000338 L96.686548,77.4945634 C103.528572,68.9496338 107.144268,58.6516056 107.144268,47.7137535 C107.144268,21.4039648 85.754732,-0.000190140845 59.462396,-0.000190140845 C33.169108,-0.000190140845 11.779572,21.4039648 11.779572,47.7137535 C11.779572,58.6516056 15.395268,68.9496338 22.237292,77.4945634 L22.641892,78.000338 L0.231812,117.00393 C-0.098532,117.577204 -0.074732,118.275021 0.294644,118.825479 C0.656404,119.363577 1.307572,119.658296 1.950172,119.570831 L19.91822,117.156993 L26.813556,133.93312 C27.060124,134.535866 27.639892,134.952275 28.288204,134.996007 L28.4053,134.99981 C29.016484,134.99981 29.587684,134.670866 29.892324,134.139423 L52.50994,94.942838 L53.151588,95.0084366 Z" id="Fill-3" fill="#FFFFFF"></path>
                <path d="M59.3634832,13.9221127 C53.5220112,13.9221127 47.7605072,15.3795423 42.6996752,18.1365845 C42.2941232,18.3580986 42.0056672,18.7155634 41.8847632,19.1452817 C41.7695712,19.5597887 41.8247872,19.9942606 42.0437472,20.3697887 C42.5140352,21.1797887 43.5821792,21.4678521 44.4256512,21.0048592 C48.9609792,18.5330282 54.1265312,17.2267606 59.3634832,17.2267606 C76.1957952,17.2267606 89.8893632,30.4995423 89.8893632,46.8126761 C89.8893632,51.2733803 88.8916672,55.5601056 86.9219792,59.5540141 C86.7306272,59.9409507 86.7049232,60.3773239 86.8486752,60.7823239 C86.9981392,61.2053873 87.3132512,61.5466901 87.7359392,61.7425352 C88.5841712,62.1342254 89.6704032,61.7615493 90.0664352,60.9572535 C92.2541312,56.5203169 93.3632112,51.7610915 93.3632112,46.8126761 C93.3632112,28.6770423 78.1102672,13.9221127 59.3634832,13.9221127" id="Fill-6" fill="#FFFFFF"></path>
                <path d="M84.2409568,67.0724683 C83.8315968,66.6760246 83.2956208,66.4583134 82.7263248,66.4583134 L82.6930048,66.4583134 C82.1113328,66.4678204 81.5677408,66.7016937 81.1640928,67.1181021 L81.1126848,67.1713415 C80.7061808,67.5858486 80.4862688,68.1344049 80.4919808,68.7152852 C80.4995968,69.2952148 80.7318848,69.8380669 81.1479088,70.2430669 C81.5582208,70.6423627 82.0980048,70.8619754 82.6692048,70.8619754 C83.2603968,70.8619754 83.8135088,70.6290528 84.2257248,70.2069401 L84.2866528,70.1451444 C84.6922048,69.7277852 84.9102128,69.1792289 84.9006928,68.5992993 C84.8930768,68.018419 84.6579328,67.4765176 84.2409568,67.0724683" id="Fill-8" fill="#41EAD4"></path>
                <path d="M75.7231272,75.2509014 C75.2585512,74.4266408 74.1856472,74.1300211 73.3336072,74.5863592 C68.8382632,76.9982958 63.7307832,78.2731901 58.5652312,78.2731901 C41.6548552,78.2731901 27.8984552,64.8692113 27.8984552,48.393507 C27.8984552,44.0754085 28.8218952,39.9094225 30.6449752,36.0134366 C30.8325192,35.6141408 30.8506072,35.1682606 30.6963832,34.758507 C30.5364472,34.3306901 30.2118152,33.9912887 29.7824632,33.8001972 C29.5444632,33.694669 29.2950392,33.6452324 29.0503752,33.6452324 C28.3820712,33.6452324 27.7461352,34.0131549 27.4548232,34.6377676 C25.4270632,38.9672746 24.3998552,43.5962535 24.3998552,48.393507 C24.3998552,66.7211831 39.7251512,81.6310775 58.5642792,81.6310775 C64.3267352,81.6310775 70.0244552,80.2088239 75.0386392,77.518331 C75.4508552,77.2977676 75.7459752,76.9365 75.8716392,76.5010775 C75.9944472,76.0799155 75.9411352,75.6359366 75.7240792,75.2509014 L75.7231272,75.2509014 Z" id="Fill-10" fill="#FFFFFF"></path>
                <path d="M37.7370896,25.2758028 C37.3182096,24.8860141 36.7831856,24.6930211 36.2500656,24.6930211 C35.6655376,24.6930211 35.0819616,24.924993 34.6535616,25.3851338 L34.6021536,25.4402746 C34.2061216,25.8661901 34.0004896,26.4214014 34.0242896,27.0022817 C34.0461856,27.583162 34.2946576,28.1212606 34.7221056,28.5158028 C35.1267056,28.8894296 35.6531616,29.0957324 36.2034176,29.0957324 C36.8088896,29.0957324 37.3934176,28.8409437 37.8046816,28.3969648 L37.8465696,28.3522817 C38.2426016,27.9273169 38.4501376,27.3730563 38.4301456,26.7921761 C38.4092016,26.2103451 38.1626336,25.6722465 37.7370896,25.2758028" id="Fill-12" fill="#41EAD4"></path>
            </g>
        </g>
    </g>
</svg>