<?xml version="1.0" encoding="UTF-8"?>
<svg width="22px" height="29px" viewBox="0 0 22 29" version="1.1" xmlns="http://www.w3.org/2000/svg" xmlns:xlink="http://www.w3.org/1999/xlink">
    <!-- Generator: Sketch 53.2 (72643) - https://sketchapp.com -->
    <title>download-green</title>
    <desc>Created with Sketch.</desc>
    <g id="Dashboards" stroke="none" stroke-width="1" fill="none" fill-rule="evenodd">
        <g id="Download-Alert" transform="translate(-176.000000, -309.000000)">
            <g id="download-green" transform="translate(176.000000, 309.000000)">
                <g id="Group-5"></g>
                <path d="M20.8535098,27 L1.14649018,27 C0.513627599,27 0,27.447 0,28 C0,28.553 0.513627599,29 1.14649018,29 L20.8535098,29 C21.4875189,29 22,28.553 22,28 C22,27.447 21.4875189,27 20.8535098,27" id="Fill-1" fill="#41EAD4"></path>
                <path d="M20.1892664,10.8857669 L12.1200463,17.4361933 L12.1200463,1.17076434 C12.1200463,0.523331661 11.6175428,0 10.9983866,0 C10.3792304,0 9.87672687,0.523331661 9.87672687,1.17076434 L9.87672687,17.4350226 L1.80975008,10.8857669 C1.3218281,10.4865362 0.616304128,10.5801974 0.23606148,11.0906506 C-0.144181169,11.6011039 -0.0555700505,12.3363439 0.433473592,12.733233 L10.3096875,20.7529687 C10.3534323,20.7880917 10.4039069,20.8044824 10.4510166,20.8314099 C10.4902747,20.855996 10.5250462,20.8794113 10.5665476,20.8981435 C10.7045117,20.9590232 10.8492059,21 10.9983866,21 L10.9995083,21 C11.148689,21 11.2945048,20.9578525 11.4358339,20.8946312 C11.4537804,20.8864359 11.4739703,20.8899482 11.4919169,20.880582 C11.5367833,20.8583375 11.573798,20.8220438 11.6141778,20.7939455 C11.6377326,20.776384 11.6646525,20.7705302 11.6870857,20.7529687 L21.5677862,12.733233 C22.0557082,12.3363439 22.1443193,11.6011039 21.762955,11.0906506 C21.3827124,10.5813681 20.6794317,10.487707 20.1892664,10.8857669" id="Fill-3" fill="#41EAD4"></path>
            </g>
        </g>
    </g>
</svg>