<?xml version="1.0" encoding="UTF-8"?>
<svg width="16px" height="17px" viewBox="0 0 16 17" version="1.1" xmlns="http://www.w3.org/2000/svg" xmlns:xlink="http://www.w3.org/1999/xlink">
    <!-- Generator: Sketch 53.2 (72643) - https://sketchapp.com -->
    <title>trash/gray</title>
    <desc>Created with Sketch.</desc>
    <g id="Setting" stroke="none" stroke-width="1" fill="none" fill-rule="evenodd">
        <g id="Settings---Main" transform="translate(-34.000000, -780.000000)" fill="#FFFFFF">
            <g id="trash/white" transform="translate(34.000000, 780.000000)">
                <g id="trash">
                    <path d="M14.28,3.48632812 C14.28,3.76095117 14.051214,3.984375 13.77,3.984375 L1.53,3.984375 C1.248786,3.984375 1.02,3.76095117 1.02,3.48632812 C1.02,3.21170508 1.248786,2.98828125 1.53,2.98828125 L13.77,2.98828125 C14.051214,2.98828125 14.28,3.21170508 14.28,3.48632812 L14.28,3.48632812 Z M12.319696,15.5472305 C12.297834,15.803293 12.074624,16.0039062 11.811464,16.0039062 L3.488536,16.0039062 C3.22541,16.0039062 3.002166,15.803293 2.980372,15.5474629 L2.083996,4.98046875 L13.216004,4.98046875 L12.319696,15.5472305 Z M5.1,1.49414062 C5.1,1.21951758 5.328786,0.99609375 5.61,0.99609375 L9.69,0.99609375 C9.971214,0.99609375 10.2,1.21951758 10.2,1.49414062 L10.2,1.9921875 L5.1,1.9921875 L5.1,1.49414062 Z M9.69,0 L5.61,0 C4.766358,0 4.08,0.670271484 4.08,1.49414062 L4.08,1.9921875 L1.53,1.9921875 C0.686358,1.9921875 0,2.66245898 0,3.48632812 C0,4.148 0.44285,4.71022852 1.05417,4.90612695 L1.96384,15.6299062 C2.029358,16.3981934 2.69909,17 3.488536,17 L11.811464,17 C12.600944,17 13.270676,16.3981934 13.336228,15.6296738 L14.24583,4.90609375 C14.85715,4.71022852 15.3,4.148 15.3,3.48632812 C15.3,2.66245898 14.613642,1.9921875 13.77,1.9921875 L11.22,1.9921875 L11.22,1.49414062 C11.22,0.670271484 10.533608,0 9.69,0 L9.69,0 Z" id="Fill-1"></path>
                    <path d="M4.5909452,14.5405682 C4.6077072,14.8046326 4.8322432,15.0078025 5.0994832,15.0078025 C5.3948412,15.0078025 5.6271292,14.7648885 5.6090072,14.4789432 L5.0990072,6.44375371 C5.0815652,6.16923027 4.8382272,5.96038262 4.5584412,5.97748223 C4.2772952,5.99451543 4.0635372,6.23085527 4.0809452,6.50541191 L4.5909452,14.5405682 Z" id="Fill-3"></path>
                    <path d="M7.65,15.0078125 C7.931656,15.0078125 8.16,14.7848203 8.16,14.5097656 L8.16,6.47460938 C8.16,6.19955469 7.931656,5.9765625 7.65,5.9765625 C7.368344,5.9765625 7.14,6.19955469 7.14,6.47460938 L7.14,14.5097656 C7.14,14.7848203 7.368344,15.0078125 7.65,15.0078125" id="Fill-5"></path>
                    <path d="M10.1684582,15.0068396 C10.4497062,15.0238729 10.6916162,14.8150252 10.7089902,14.5405682 L11.2189902,6.50544512 C11.2364322,6.23085527 11.0226742,5.99451543 10.7414942,5.97751543 C10.4609942,5.96048223 10.2183702,6.16926348 10.2009622,6.44378691 L9.6909622,14.4789764 C9.6735542,14.7534666 9.8873122,14.9898064 10.1684582,15.0068396" id="Fill-7"></path>
                </g>
            </g>
        </g>
    </g>
</svg>