<?xml version="1.0" encoding="UTF-8"?>
<svg width="15px" height="15px" viewBox="0 0 15 15" version="1.1" xmlns="http://www.w3.org/2000/svg" xmlns:xlink="http://www.w3.org/1999/xlink">
    <!-- Generator: Sketch 53.2 (72643) - https://sketchapp.com -->
    <title>link to external</title>
    <desc>Created with Sketch.</desc>
    <g id="Setting" stroke="none" stroke-width="1" fill="none" fill-rule="evenodd">
        <g id="Settings---Main" transform="translate(-326.000000, -685.000000)" fill="#C9C9C9">
            <g id="link-to-external" transform="translate(326.000000, 685.000000)">
                <polygon id="Fill-1" points="0.13753125 14.1997031 0.80034375 14.8625156 11.112375 4.55001563 10.4500312 3.88720313"></polygon>
                <polygon id="Fill-2" points="11.25 7.5 10.3125 7.5 10.3125 4.6875 7.5 4.6875 7.5 3.75 11.25 3.75"></polygon>
                <path d="M13.125,15 L3.75,15 L3.75,14.0625 L13.125,14.0625 C13.6420313,14.0625 14.0625,13.6420313 14.0625,13.125 L14.0625,1.875 C14.0625,1.35796875 13.6420313,0.9375 13.125,0.9375 L1.875,0.9375 C1.35796875,0.9375 0.9375,1.35796875 0.9375,1.875 L0.9375,11.25 L0,11.25 L0,1.875 C0,0.8409375 0.8409375,0 1.875,0 L13.125,0 C14.1590625,0 15,0.8409375 15,1.875 L15,13.125 C15,14.1590625 14.1590625,15 13.125,15" id="Fill-3"></path>
            </g>
        </g>
    </g>
</svg>