<?xml version="1.0" encoding="UTF-8"?>
<svg width="39px" height="35px" viewBox="0 0 39 35" version="1.1" xmlns="http://www.w3.org/2000/svg" xmlns:xlink="http://www.w3.org/1999/xlink">
    <!-- Generator: Sketch 53.2 (72643) - https://sketchapp.com -->
    <title>create wallet</title>
    <desc>Created with Sketch.</desc>
    <g id="Setup" stroke="none" stroke-width="1" fill="none" fill-rule="evenodd">
        <g id="00-Loading-2-buttons" transform="translate(-165.000000, -350.000000)">
            <g id="create-wallet" transform="translate(165.500000, 350.000000)">
                <path d="M32.6607541,17.692523 C32.6607541,18.3950908 32.0921154,18.9638414 31.3895477,18.9638414 C30.687092,18.9638414 30.1184533,18.3950908 30.1184533,17.692523 C30.1184533,16.9905152 30.6875399,16.4214287 31.3895477,16.4214287 C32.0921154,16.4214287 32.6607541,16.9909631 32.6607541,17.692523 L32.6607541,17.692523 Z M36.5472727,20.1643879 L30.8975039,20.1643879 C29.5764661,20.1643879 28.502122,19.0901558 28.502122,17.7692299 L28.502122,17.5216403 C28.502122,16.2010504 29.5764661,15.1267063 30.8975039,15.1267063 L36.5472727,15.1267063 L36.5472727,20.1643879 Z M35.1077592,27.1211969 C35.1077592,28.0734818 34.3330758,28.8481652 33.3807908,28.8481652 L10.8786912,28.8481652 C9.9264062,28.8481652 9.15138688,28.0734818 9.15138688,27.1211969 L9.15138688,7.35400499 C9.15138688,6.40172003 9.9264062,5.62658873 10.8786912,5.62658873 L17.3604775,5.62658873 L14.5991422,7.1624058 L11.2387095,7.1624058 C10.9202361,7.1624058 10.6625682,7.42018566 10.6625682,7.73809924 C10.6625682,8.05612479 10.9202361,8.31379268 11.2387095,8.31379268 L35.1077592,8.31379268 L35.1077592,13.9758793 L30.8975039,13.9758793 C28.9422067,13.9758793 27.3508471,15.5672389 27.3508471,17.5224242 L27.3508471,17.7700138 C27.3508471,19.725311 28.9422067,21.3166706 30.8975039,21.3166706 L35.1077592,21.3166706 L35.1077592,27.1211969 Z M27.6473724,1.22406244 C27.9173581,1.07266436 28.2808479,1.17848624 28.4295585,1.44757617 L31.6079103,7.16162193 L16.9689925,7.16162193 L27.6473724,1.22406244 Z M33.3807908,5.62658873 C34.267455,5.62658873 34.9912991,6.30037738 35.0889464,7.1624058 L32.9253648,7.1624058 L32.0719589,5.62658873 L33.3807908,5.62658873 Z M37.6985476,13.9754314 L36.259482,13.9754314 L36.259482,7.35400499 C36.259482,5.76656476 34.9681191,4.47531383 33.3807908,4.47531383 L31.4312046,4.47531383 L29.4360421,0.888455896 C29.1320142,0.340309739 28.5532973,0 27.9260927,0 C27.6333748,0 27.3434564,0.075251117 27.0871323,0.21746677 L19.4307791,4.47531383 L10.8786912,4.47531383 C9.29125094,4.47531383 8,5.76656476 8,7.35400499 L8,27.1211969 C8,28.7081892 9.29125094,30 10.8786912,30 L33.3807908,30 C34.9681191,30 36.259482,28.7081892 36.259482,27.1211969 L36.259482,21.3157747 L37.6985476,21.3157747 L37.6985476,13.9754314 Z" id="Fill-1" fill="#FFFFFF"></path>
                <g id="plus" transform="translate(0.000000, 19.000000)">
                    <circle id="Oval-Copy" fill="#41EAD4" fill-rule="nonzero" cx="8" cy="8" r="8"></circle>
                    <path d="M4,8.25 L12,8.25" id="Line-2" stroke="#FFFFFF" stroke-linecap="square"></path>
                    <path d="M4.25,8 L12.25,8" id="Line-2" stroke="#FFFFFF" stroke-linecap="square" transform="translate(8.250000, 8.000000) rotate(-270.000000) translate(-8.250000, -8.000000) "></path>
                </g>
            </g>
        </g>
    </g>
</svg>