<svg width="177" height="113" viewBox="0 0 177 113" fill="none" xmlns="http://www.w3.org/2000/svg">
<path d="M70.6147 31.5695C70.6147 30.8991 70.8136 30.2437 71.1862 29.6863C71.5588 29.1288 72.0883 28.6945 72.7078 28.4381C73.3274 28.1818 74.009 28.1149 74.6665 28.2461C75.324 28.3772 75.9279 28.7004 76.4016 29.1748C76.8754 29.6493 77.1978 30.2536 77.328 30.9113C77.4583 31.569 77.3905 32.2505 77.1333 32.8697C76.8761 33.4888 76.441 34.0178 75.8831 34.3896C75.3251 34.7614 74.6694 34.9594 73.999 34.9585C73.101 34.9573 72.2402 34.5997 71.6056 33.9642C70.9711 33.3288 70.6147 32.4675 70.6147 31.5695ZM69.4524 51.6419C66.7786 49.4474 64.3312 46.9906 62.147 44.3085C64.3839 41.8235 66.8142 39.5197 69.415 37.4185C69.5462 37.3106 69.6549 37.178 69.7348 37.0281C69.8147 36.8782 69.8643 36.7141 69.8808 36.545C69.8972 36.376 69.8802 36.2053 69.8308 36.0428C69.7813 35.8803 69.7003 35.7292 69.5924 35.598C69.4845 35.4668 69.3518 35.3582 69.202 35.2783C69.0521 35.1984 68.8879 35.1488 68.7189 35.1323C68.5498 35.1158 68.3792 35.1328 68.2167 35.1823C68.0542 35.2317 67.9031 35.3127 67.7719 35.4206C65.2161 37.4927 62.8165 39.7504 60.5925 42.1752C58.3612 38.7862 57.6097 35.8781 58.6927 34.0109C59.7756 32.1437 62.6044 31.3315 66.7683 31.5789C67.109 31.5966 67.443 31.4789 67.6973 31.2514C67.9517 31.024 68.1058 30.7052 68.1261 30.3646C68.1465 30.024 68.0313 29.6892 67.8058 29.4331C67.5803 29.177 67.2628 29.0204 66.9223 28.9975C61.6568 28.6847 58.0532 29.9684 56.4474 32.7319C55.4484 34.4684 54.8556 37.5726 57.7404 42.4973C58.0718 43.0668 58.4453 43.6503 58.8561 44.2384C54.8463 49.2799 53.4925 53.6397 55.2104 56.6133C56.5081 58.8585 59.3042 60.0022 63.4073 60.0022C64.9353 59.9913 66.4601 59.8618 67.9679 59.6148C68.3072 59.5615 68.6113 59.3757 68.8136 59.0982C69.0158 58.8207 69.0995 58.4742 69.0463 58.135C68.993 57.7958 68.8072 57.4916 68.5297 57.2894C68.2522 57.0872 67.9057 57.0035 67.5665 57.0567C62.2543 57.8876 58.5713 57.2528 57.4557 55.3202C56.4894 53.6491 57.2876 50.5215 60.4665 46.367C62.6746 49.0168 65.1267 51.4533 67.7906 53.6444C68.0226 53.8412 68.3172 53.9487 68.6215 53.9478C68.8877 53.9487 69.1477 53.8674 69.366 53.715C69.5842 53.5626 69.7502 53.3465 69.8411 53.0963C69.932 52.8461 69.9434 52.5739 69.8738 52.3169C69.8043 52.06 69.6571 51.8307 69.4524 51.6605V51.6419ZM73.2101 37.4979C73.0397 37.4966 72.8708 37.5292 72.7131 37.5937C72.5554 37.6582 72.4121 37.7533 72.2914 37.8736C72.1707 37.9938 72.0751 38.1368 72.01 38.2943C71.9449 38.4517 71.9118 38.6205 71.9124 38.7909V39.0383C71.9124 42.558 72.0804 46.0403 72.4072 49.4059C72.4384 49.7262 72.5876 50.0234 72.8257 50.2399C73.0637 50.4564 73.3738 50.5768 73.6956 50.5776H73.8216C74.1603 50.5433 74.472 50.3772 74.6894 50.1153C74.9068 49.8533 75.0126 49.5164 74.9839 49.1772C74.6665 45.9096 74.5171 42.4926 74.5171 39.057V38.8189C74.5209 38.6458 74.4898 38.4737 74.4255 38.3129C74.3613 38.1521 74.2653 38.0059 74.1433 37.883C74.0213 37.7601 73.8758 37.6631 73.7154 37.5977C73.5551 37.5324 73.3832 37.5 73.2101 37.5025V37.4979ZM92.6476 47.4547C88.9503 49.5273 85.1312 51.3746 81.211 52.9862C80.9337 53.1006 80.7045 53.3076 80.5626 53.5718C80.4206 53.8361 80.3746 54.1414 80.4324 54.4358C80.4901 54.7302 80.6481 54.9955 80.8795 55.1865C81.1108 55.3776 81.4011 55.4825 81.7011 55.4836C81.8693 55.4826 82.0357 55.4494 82.1913 55.3856C86.207 53.7335 90.1197 51.8411 93.9079 49.7186C94.1877 49.5412 94.389 49.2634 94.4706 48.9423C94.5522 48.6212 94.5079 48.281 94.3467 47.9916C94.1856 47.7021 93.9198 47.4852 93.6039 47.3854C93.2879 47.2855 92.9458 47.3103 92.6476 47.4547ZM122.327 17.8644C120.375 14.4894 115.133 13.6072 107.156 15.3156C104.185 15.9706 101.264 16.8315 98.4125 17.8924C97.9104 15.6668 97.2744 13.4735 96.508 11.3245C93.8099 3.91643 90.2715 0 86.2524 0C79.0544 0 74.6665 12.4588 72.9533 24.1194C72.9038 24.4593 72.9913 24.8049 73.1966 25.0802C73.4019 25.3555 73.7082 25.538 74.048 25.5875C74.3878 25.637 74.7334 25.5495 75.0087 25.3443C75.2841 25.139 75.4665 24.8327 75.5161 24.4929C77.4066 11.5953 81.8225 2.59073 86.2524 2.59073C89.0019 2.59073 91.854 6.09638 94.0526 12.2068C94.8208 14.3718 95.4538 16.5824 95.9478 18.826C91.1614 20.7581 86.5189 23.0294 82.0559 25.6225C81.2904 26.0893 80.5061 26.5281 79.7219 27.0229C79.5766 27.1112 79.4502 27.2272 79.3497 27.3644C79.2493 27.5015 79.1768 27.6571 79.1365 27.8223C79.0962 27.9874 79.0888 28.1589 79.1148 28.3269C79.1407 28.4949 79.1995 28.6561 79.2878 28.8014C79.3761 28.9467 79.4921 29.0732 79.6292 29.1736C79.7664 29.2741 79.922 29.3465 80.0871 29.3868C80.2523 29.4271 80.4238 29.4345 80.5918 29.4086C80.7598 29.3826 80.921 29.3238 81.0663 29.2356C81.8365 28.7688 82.6021 28.302 83.3489 27.8818C87.5706 25.4276 91.9564 23.2675 96.4753 21.4167C97.4169 26.6562 97.9228 31.9647 97.9877 37.2878C97.9926 37.6275 98.131 37.9516 98.373 38.1901C98.6149 38.4286 98.941 38.5622 99.2808 38.5622H99.3041C99.6471 38.5548 99.9733 38.4124 100.212 38.166C100.45 37.9195 100.582 37.5888 100.578 37.2458C100.51 31.6181 99.9567 26.0067 98.926 20.4738C110.036 16.3659 118.27 16.0765 120.063 19.1807C121.043 20.8799 120.179 23.7787 117.631 27.3357C114.858 31.1774 110.4 35.4766 104.724 39.6778C104.587 39.7793 104.472 39.9066 104.385 40.0525C104.298 40.1985 104.24 40.3601 104.215 40.5283C104.191 40.6965 104.199 40.8679 104.241 41.0327C104.282 41.1976 104.356 41.3526 104.458 41.489C104.559 41.6254 104.686 41.7405 104.832 41.8277C104.978 41.9148 105.14 41.9724 105.308 41.9971C105.476 42.0219 105.648 42.0132 105.812 41.9717C105.977 41.9301 106.132 41.8565 106.269 41.7551C112.16 37.3672 116.814 32.8859 119.731 28.8201C121.981 25.6739 124.25 21.2393 122.327 17.8644ZM106.343 47.3613C106.083 47.1372 105.745 47.0256 105.403 47.051C105.06 47.0764 104.742 47.2367 104.518 47.4967C104.294 47.7567 104.183 48.095 104.208 48.4373C104.233 48.7796 104.394 49.0978 104.654 49.3219C112.589 56.1418 116.604 62.9757 114.671 66.3226C113.336 68.6566 109.135 69.3708 103.146 68.3392C100.907 67.9402 98.6983 67.3865 96.536 66.6821C98.174 61.8926 99.2838 56.9385 99.8456 51.9079C99.8877 51.5675 99.7928 51.2242 99.5818 50.9537C99.3708 50.6832 99.061 50.5076 98.7206 50.4655C98.3801 50.4234 98.0369 50.5183 97.7664 50.7293C97.4959 50.9403 97.3203 51.25 97.2782 51.5905C96.7368 56.4447 95.6661 61.2251 94.0853 65.8465C89.6337 64.1933 85.3313 62.1631 81.225 59.7781C80.929 59.6299 80.5874 59.6004 80.2703 59.6957C79.9533 59.791 79.6846 60.0039 79.5194 60.2909C79.3541 60.5778 79.3048 60.917 79.3815 61.2391C79.4582 61.5612 79.6551 61.8418 79.932 62.0234C84.1451 64.4686 88.5582 66.5518 93.1237 68.2505C92.9836 68.5679 92.8436 68.876 92.6989 69.1841C90.7383 73.2593 88.4557 75.4999 86.2758 75.4999C83.1202 75.4999 79.876 70.9066 77.6027 63.2138C77.5542 63.0507 77.4742 62.8988 77.367 62.7667C77.2599 62.6346 77.1278 62.5248 76.9782 62.4438C76.8287 62.3627 76.6646 62.3119 76.4954 62.2943C76.3263 62.2766 76.1553 62.2924 75.9922 62.3409C75.8291 62.3893 75.6772 62.4694 75.5451 62.5765C75.413 62.6836 75.3033 62.8158 75.2222 62.9653C75.1412 63.1148 75.0903 63.2789 75.0727 63.4481C75.055 63.6172 75.0709 63.7883 75.1193 63.9513C77.8174 73.0679 81.7805 78.0906 86.2758 78.0906C89.5433 78.0906 92.5775 75.3972 95.0329 70.3091C95.2196 69.9217 95.4017 69.5155 95.579 69.1048C97.9098 69.8709 100.292 70.4715 102.707 70.9019C104.426 71.2051 106.167 71.3612 107.912 71.3687C112.356 71.3687 115.483 70.085 116.912 67.6063C119.586 62.9477 115.633 55.3762 106.32 47.3613H106.343ZM94.3187 38.8283L93.5018 38.3615C89.6291 36.1131 85.5886 34.167 81.4164 32.5405C81.1003 32.4367 80.7565 32.4583 80.4559 32.6008C80.1553 32.7432 79.9209 32.9957 79.801 33.306C79.6812 33.6164 79.6852 33.9609 79.812 34.2684C79.9389 34.5759 80.179 34.8229 80.4828 34.9585C84.5291 36.536 88.4465 38.426 92.1994 40.6114L92.993 41.0782C93.1915 41.1981 93.4192 41.2611 93.6512 41.2603C93.9441 41.2734 94.2328 41.1866 94.4698 41.014C94.7069 40.8415 94.8783 40.5935 94.9559 40.3108C95.0336 40.028 95.0128 39.7273 94.897 39.4579C94.7812 39.1885 94.5773 38.9665 94.3187 38.8283ZM78.1815 56.4825C78.1815 55.8132 77.983 55.1589 77.6111 54.6023C77.2393 54.0458 76.7107 53.612 76.0923 53.3559C75.4739 53.0997 74.7934 53.0327 74.137 53.1633C73.4805 53.2939 72.8775 53.6162 72.4042 54.0895C71.9309 54.5628 71.6085 55.1658 71.4779 55.8223C71.3474 56.4788 71.4144 57.1593 71.6705 57.7777C71.9267 58.3961 72.3605 58.9246 72.917 59.2965C73.4735 59.6683 74.1278 59.8668 74.7972 59.8668C75.6948 59.8668 76.5556 59.5103 77.1902 58.8756C77.8249 58.2409 78.1815 57.3801 78.1815 56.4825ZM102.684 44.5325C102.685 43.8621 102.487 43.2064 102.115 42.6484C101.743 42.0905 101.214 41.6554 100.595 41.3982C99.9757 41.141 99.2942 41.0732 98.6365 41.2034C97.9788 41.3337 97.3745 41.6561 96.9001 42.1299C96.4256 42.6036 96.1024 43.2075 95.9713 43.865C95.8401 44.5225 95.907 45.2041 96.1633 45.8237C96.4197 46.4432 96.8541 46.9728 97.4115 47.3453C97.9689 47.7179 98.6243 47.9168 99.2948 47.9168C99.7406 47.9168 100.182 47.8288 100.594 47.6579C101.006 47.4871 101.38 47.2366 101.694 46.9209C102.009 46.6052 102.259 46.2305 102.428 45.8183C102.598 45.406 102.685 44.9643 102.684 44.5185V44.5325Z" fill="url(#paint0_linear)"/>
<path d="M120.166 88.3649C127.527 88.3649 132.839 93.7424 132.839 100.352C132.839 106.962 127.527 112.34 120.166 112.34H112.394C112.27 112.34 112.151 112.29 112.063 112.203C111.976 112.115 111.927 111.997 111.927 111.873V88.813C111.927 88.6892 111.976 88.5705 112.063 88.4829C112.151 88.3954 112.27 88.3462 112.394 88.3462L120.166 88.3649ZM116.725 107.093C116.725 107.217 116.775 107.335 116.862 107.423C116.95 107.51 117.068 107.56 117.192 107.56H120.17C124.624 107.56 127.705 104.647 127.705 100.366C127.705 96.0857 124.624 93.1729 120.17 93.1729H117.192C117.068 93.1729 116.95 93.2221 116.862 93.3096C116.775 93.3972 116.725 93.5159 116.725 93.6397V107.093Z" fill="url(#paint1_linear)"/>
<path d="M151.646 88.813V92.7061C151.646 92.8299 151.597 92.9486 151.51 93.0362C151.422 93.1237 151.303 93.1729 151.18 93.1729H140.443C140.32 93.1729 140.201 93.2221 140.113 93.3096C140.026 93.3972 139.977 93.5159 139.977 93.6397V97.0193C139.977 97.1431 140.026 97.2618 140.113 97.3494C140.201 97.4369 140.32 97.4861 140.443 97.4861H148.103C148.227 97.4861 148.346 97.5353 148.434 97.6228C148.521 97.7104 148.57 97.8291 148.57 97.9529V101.846C148.57 101.97 148.521 102.089 148.434 102.176C148.346 102.264 148.227 102.313 148.103 102.313H140.453C140.329 102.313 140.21 102.362 140.123 102.45C140.035 102.537 139.986 102.656 139.986 102.78V107.186C139.986 107.31 140.035 107.429 140.123 107.516C140.21 107.604 140.329 107.653 140.453 107.653H151.539C151.663 107.653 151.782 107.702 151.869 107.79C151.957 107.877 152.006 107.996 152.006 108.12V112.018C152.006 112.141 151.957 112.26 151.869 112.348C151.782 112.435 151.663 112.484 151.539 112.484H135.668C135.544 112.484 135.425 112.435 135.338 112.348C135.25 112.26 135.201 112.141 135.201 112.018V88.813C135.201 88.6892 135.25 88.5705 135.338 88.4829C135.425 88.3954 135.544 88.3462 135.668 88.3462H151.208C151.327 88.3533 151.438 88.4057 151.52 88.4924C151.601 88.5792 151.647 88.6939 151.646 88.813Z" fill="url(#paint2_linear)"/>
<path d="M160.399 88.5564L164.978 95.1896C165.022 95.2467 165.078 95.2929 165.143 95.3248C165.207 95.3566 165.278 95.3732 165.35 95.3732C165.421 95.3732 165.492 95.3566 165.557 95.3248C165.621 95.2929 165.677 95.2467 165.721 95.1896L170.3 88.5564C170.343 88.4975 170.399 88.4496 170.464 88.4164C170.529 88.3831 170.601 88.3655 170.673 88.365H175.542C175.623 88.3696 175.702 88.3953 175.77 88.4394C175.838 88.4836 175.893 88.5448 175.93 88.6169C175.968 88.689 175.985 88.7695 175.982 88.8506C175.979 88.9317 175.954 89.0105 175.911 89.0792L168.442 99.4001C168.388 99.4782 168.359 99.5711 168.359 99.6662C168.359 99.7613 168.388 99.8541 168.442 99.9322L176.929 111.602C176.972 111.671 176.996 111.749 177 111.83C177.003 111.91 176.986 111.991 176.949 112.063C176.913 112.135 176.858 112.196 176.79 112.24C176.723 112.285 176.645 112.311 176.564 112.316H171.7C171.628 112.315 171.558 112.297 171.494 112.264C171.43 112.231 171.374 112.183 171.332 112.125L165.73 104.11C165.686 104.054 165.63 104.008 165.567 103.977C165.503 103.946 165.432 103.929 165.361 103.929C165.29 103.929 165.22 103.946 165.156 103.977C165.092 104.008 165.036 104.054 164.992 104.11L159.391 112.125C159.348 112.183 159.293 112.231 159.229 112.264C159.165 112.297 159.094 112.315 159.022 112.316H154.121C154.04 112.311 153.962 112.285 153.895 112.24C153.827 112.196 153.773 112.135 153.736 112.063C153.699 111.991 153.682 111.91 153.686 111.83C153.689 111.749 153.714 111.671 153.757 111.602L162.248 99.9322C162.302 99.8541 162.331 99.7613 162.331 99.6662C162.331 99.5711 162.302 99.4782 162.248 99.4001L154.779 89.0792C154.736 89.0108 154.711 88.9324 154.708 88.8517C154.704 88.771 154.722 88.6907 154.758 88.6187C154.795 88.5468 154.85 88.4855 154.917 88.4411C154.985 88.3966 155.062 88.3704 155.143 88.365H160.026C160.099 88.3655 160.17 88.3831 160.235 88.4164C160.3 88.4496 160.356 88.4975 160.399 88.5564Z" fill="url(#paint3_linear)"/>
<path d="M60.5272 94.8207C61.8219 93.9897 63.321 93.5326 64.8591 93.4996C67.5572 93.4996 69.4991 94.2512 70.8201 95.4835C70.9527 95.6034 71.1234 95.6724 71.3019 95.6784C71.4805 95.6843 71.6555 95.6269 71.7957 95.5162C73.3675 94.2697 75.2989 93.5626 77.3039 93.4996C82.9615 93.4996 85.4122 96.7019 85.4122 101.795V111.033C85.411 111.232 85.3308 111.423 85.1891 111.564C85.0474 111.705 84.8558 111.784 84.656 111.784H81.7899C81.5905 111.784 81.3994 111.705 81.2584 111.564C81.1175 111.423 81.0383 111.232 81.0383 111.033V102.275C81.0383 99.2599 79.7173 97.7102 77.1546 97.7102C75.6772 97.7271 74.2643 98.318 73.2148 99.3579C73.1374 99.4294 73.0756 99.516 73.033 99.6124C72.9905 99.7087 72.9681 99.8128 72.9674 99.9181V111.023C72.9674 111.223 72.8882 111.414 72.7473 111.555C72.6063 111.696 72.4152 111.775 72.2158 111.775H69.3497C69.2506 111.775 69.1524 111.756 69.0607 111.719C68.9689 111.681 68.8855 111.626 68.8153 111.556C68.745 111.486 68.6892 111.403 68.6511 111.312C68.6131 111.22 68.5935 111.122 68.5935 111.023V102.275C68.5935 99.2599 67.2725 97.7102 64.7097 97.7102C63.2338 97.7273 61.8224 98.3183 60.7746 99.3579C60.6964 99.4287 60.6339 99.5152 60.5913 99.6117C60.5487 99.7082 60.5268 99.8126 60.5272 99.9181V111.023C60.526 111.223 60.4458 111.414 60.3041 111.555C60.1624 111.696 59.9708 111.775 59.771 111.775H56.9049C56.7055 111.775 56.5144 111.696 56.3734 111.555C56.2325 111.414 56.1533 111.223 56.1533 111.023V94.8207C56.1533 94.722 56.1728 94.6243 56.2105 94.5331C56.2483 94.4419 56.3037 94.359 56.3734 94.2892C56.4432 94.2195 56.5261 94.1641 56.6173 94.1263C56.7084 94.0886 56.8062 94.0691 56.9049 94.0691H59.7757C59.9746 94.0704 60.1651 94.1499 60.3057 94.2906C60.4464 94.4313 60.526 94.6217 60.5272 94.8207Z" fill="white"/>
<path d="M34.4424 108.545C34.441 108.427 34.4123 108.312 34.3585 108.208C34.3048 108.103 34.2276 108.013 34.133 107.944C34.0384 107.875 33.9289 107.828 33.8133 107.809C33.6977 107.789 33.5791 107.796 33.4668 107.83C32.8431 108.027 32.193 108.128 31.539 108.129C30.0312 108.129 28.7102 107.149 28.7102 104.133V99.232C28.7102 99.0314 28.7898 98.8391 28.9317 98.6973C29.0735 98.5554 29.2658 98.4758 29.4664 98.4758H33.6909C33.8902 98.4758 34.0814 98.3966 34.2223 98.2556C34.3633 98.1147 34.4424 97.9235 34.4424 97.7242V94.8207C34.4431 94.7217 34.4241 94.6234 34.3866 94.5317C34.3491 94.44 34.2938 94.3566 34.224 94.2863C34.1541 94.216 34.0711 94.1602 33.9796 94.1222C33.8881 94.0841 33.79 94.0645 33.6909 94.0645H29.4664C29.2658 94.0645 29.0735 93.9849 28.9317 93.843C28.7898 93.7012 28.7102 93.5089 28.7102 93.3083V90.2928C28.7102 90.0935 28.631 89.9023 28.49 89.7614C28.3491 89.6204 28.1579 89.5413 27.9586 89.5413H25.0551C24.857 89.5412 24.6667 89.619 24.5253 89.7578C24.3839 89.8966 24.3026 90.0853 24.2989 90.2835V93.299C24.2995 93.3981 24.2806 93.4963 24.2431 93.588C24.2056 93.6797 24.1503 93.7631 24.0805 93.8334C24.0106 93.9037 23.9276 93.9595 23.8361 93.9975C23.7446 94.0356 23.6465 94.0552 23.5474 94.0552H21.8482C21.7492 94.0552 21.651 94.0748 21.5596 94.1128C21.4681 94.1509 21.385 94.2067 21.3152 94.277C21.2453 94.3472 21.19 94.4306 21.1526 94.5224C21.1151 94.6141 21.0961 94.7123 21.0967 94.8114V97.7149C21.0967 97.9142 21.1759 98.1054 21.3168 98.2463C21.4578 98.3873 21.6489 98.4664 21.8482 98.4664H23.5474C23.6465 98.4664 23.7446 98.486 23.8361 98.5241C23.9276 98.5621 24.0106 98.6179 24.0805 98.6882C24.1503 98.7585 24.2056 98.8419 24.2431 98.9336C24.2806 99.0253 24.2995 99.1236 24.2989 99.2226V104.497C24.2989 109.399 26.7496 112.34 31.539 112.34C32.3437 112.311 33.1411 112.176 33.9103 111.938C34.0651 111.891 34.2005 111.795 34.2963 111.665C34.3922 111.534 34.4435 111.376 34.4424 111.215V108.545Z" fill="white"/>
<path d="M44.7916 93.4904C42.9277 93.4913 41.106 94.0448 39.5568 95.081C38.0075 96.1171 36.8003 97.5894 36.0877 99.3116C35.375 101.034 35.1891 102.929 35.5532 104.757C35.9174 106.584 36.8154 108.263 38.1336 109.581C39.4519 110.898 41.1312 111.796 42.9593 112.159C44.7874 112.522 46.6821 112.335 48.404 111.622C50.1258 110.908 51.5975 109.7 52.6329 108.151C53.6683 106.601 54.2209 104.779 54.2209 102.915C54.2209 101.677 53.977 100.451 53.503 99.3073C53.0291 98.1635 52.3345 97.1243 51.4588 96.2491C50.5832 95.3739 49.5436 94.6798 48.3997 94.2064C47.2557 93.7331 46.0296 93.4897 44.7916 93.4904ZM44.7916 108.115C43.7623 108.119 42.7551 107.817 41.8975 107.248C41.0399 106.679 40.3704 105.868 39.974 104.918C39.5775 103.968 39.4719 102.922 39.6704 101.912C39.869 100.902 40.3627 99.9737 41.0892 99.2446C41.8157 98.5155 42.7423 98.0184 43.7515 97.8162C44.7607 97.614 45.8073 97.7159 46.7586 98.109C47.7098 98.502 48.5231 99.1685 49.0953 100.024C49.6676 100.88 49.973 101.886 49.973 102.915C49.973 104.291 49.4277 105.611 48.4566 106.585C47.4854 107.56 46.1675 108.11 44.7916 108.115Z" fill="white"/>
<path d="M92.363 89.4525C92.363 88.197 91.3452 87.1792 90.0897 87.1792C88.8342 87.1792 87.8164 88.197 87.8164 89.4525C87.8164 90.708 88.8342 91.7258 90.0897 91.7258C91.3452 91.7258 92.363 90.708 92.363 89.4525Z" fill="white"/>
<path d="M91.4946 94.0552H88.6332C88.2155 94.0552 87.877 94.3937 87.877 94.8114V111.019C87.877 111.436 88.2155 111.775 88.6332 111.775H91.4946C91.9123 111.775 92.2509 111.436 92.2509 111.019V94.8114C92.2509 94.3937 91.9123 94.0552 91.4946 94.0552Z" fill="white"/>
<path d="M18.5901 94.0551H15.724C15.6241 94.0539 15.525 94.0725 15.4324 94.11C15.3398 94.1475 15.2557 94.2031 15.1848 94.2735C15.114 94.3439 15.0579 94.4278 15.0198 94.5201C14.9817 94.6124 14.9625 94.7114 14.9631 94.8113V94.956C13.5375 94.0494 11.8945 93.5424 10.2059 93.4881C8.51735 93.4339 6.84519 93.8342 5.36432 94.6474C3.88344 95.4606 2.64825 96.6567 1.7879 98.1107C0.927542 99.5647 0.473633 101.223 0.473633 102.913C0.473633 104.602 0.927542 106.26 1.7879 107.714C2.64825 109.168 3.88344 110.365 5.36432 111.178C6.84519 111.991 8.51735 112.391 10.2059 112.337C11.8945 112.283 13.5375 111.776 14.9631 110.869V111.023C14.9631 111.223 15.0423 111.414 15.1832 111.555C15.3242 111.696 15.5153 111.775 15.7146 111.775H18.5808C18.7805 111.775 18.9722 111.696 19.1139 111.555C19.2555 111.414 19.3358 111.223 19.337 111.023V94.8113C19.337 94.6124 19.2586 94.4214 19.1188 94.2799C18.979 94.1383 18.789 94.0576 18.5901 94.0551ZM9.91701 108.115C8.94119 108.116 7.98475 107.843 7.15703 107.326C6.32931 106.809 5.6637 106.07 5.2363 105.193C4.8089 104.315 4.63695 103.336 4.74011 102.365C4.84327 101.395 5.21738 100.473 5.81967 99.7053C6.42196 98.9376 7.22812 98.3548 8.146 98.0235C9.06388 97.6923 10.0564 97.626 11.0102 97.8323C11.964 98.0385 12.8405 98.509 13.5395 99.1899C14.2385 99.8707 14.7318 100.735 14.9631 101.683V104.147C14.6865 105.278 14.0392 106.282 13.1246 107.002C12.2099 107.721 11.0806 108.113 9.91701 108.115Z" fill="white"/>
<path d="M108.687 108.045C108.686 107.919 108.654 107.795 108.594 107.684C108.533 107.573 108.445 107.479 108.339 107.411C108.233 107.343 108.111 107.302 107.985 107.293C107.859 107.284 107.733 107.307 107.618 107.359C106.534 107.857 105.356 108.116 104.163 108.12C100.896 108.12 98.8466 105.819 98.8466 102.915C98.8466 100.012 100.886 97.7103 104.163 97.7103C105.356 97.714 106.534 97.9734 107.618 98.4712C107.732 98.5246 107.858 98.5482 107.984 98.5399C108.111 98.5316 108.233 98.4916 108.339 98.4237C108.446 98.3558 108.533 98.262 108.594 98.1512C108.655 98.0404 108.687 97.9161 108.687 97.7897V94.9609C108.688 94.8114 108.644 94.6651 108.561 94.541C108.477 94.4169 108.359 94.3208 108.22 94.2654C106.93 93.7443 105.55 93.4811 104.159 93.4905C98.3144 93.4905 94.356 97.6917 94.356 102.915C94.356 108.139 98.3144 112.34 104.159 112.34C105.55 112.351 106.929 112.089 108.22 111.57C108.359 111.513 108.478 111.416 108.561 111.291C108.645 111.167 108.688 111.019 108.687 110.869V108.045Z" fill="white"/>
<defs>
<linearGradient id="paint0_linear" x1="54.4822" y1="39.0383" x2="123.041" y2="39.0383" gradientUnits="userSpaceOnUse">
<stop offset="0.02" stop-color="#2ABCF1"/>
<stop offset="1" stop-color="#6A4DE3"/>
</linearGradient>
<linearGradient id="paint1_linear" x1="110" y1="87.5" x2="174.5" y2="119" gradientUnits="userSpaceOnUse">
<stop offset="0.02" stop-color="#2ABCF1"/>
<stop offset="1" stop-color="#6A4DE3"/>
</linearGradient>
<linearGradient id="paint2_linear" x1="112.5" y1="77" x2="167.5" y2="117.5" gradientUnits="userSpaceOnUse">
<stop offset="0.02" stop-color="#2ABCF1"/>
<stop offset="1" stop-color="#6A4DE3"/>
</linearGradient>
<linearGradient id="paint3_linear" x1="113" y1="73.5" x2="180.5" y2="116" gradientUnits="userSpaceOnUse">
<stop offset="0.02" stop-color="#2ABCF1"/>
<stop offset="1" stop-color="#6A4DE3"/>
</linearGradient>
</defs>
</svg>
