<svg width="177" height="113" viewBox="0 0 177 113" fill="none" xmlns="http://www.w3.org/2000/svg">
<path d="M70.6113 31.5695C70.6113 30.8991 70.8102 30.2437 71.1827 29.6863C71.5553 29.1288 72.0849 28.6945 72.7044 28.4381C73.3239 28.1818 74.0056 28.1149 74.6631 28.2461C75.3206 28.3772 75.9245 28.7004 76.3982 29.1748C76.872 29.6493 77.1944 30.2536 77.3246 30.9113C77.4549 31.569 77.3871 32.2505 77.1299 32.8697C76.8727 33.4888 76.4376 34.0178 75.8796 34.3896C75.3217 34.7614 74.666 34.9594 73.9956 34.9585C73.0976 34.9573 72.2368 34.5997 71.6022 33.9642C70.9677 33.3288 70.6113 32.4675 70.6113 31.5695ZM69.4489 51.6419C66.7751 49.4474 64.3278 46.9906 62.1436 44.3085C64.3805 41.8235 66.8108 39.5197 69.4116 37.4185C69.5428 37.3106 69.6514 37.178 69.7313 37.0281C69.8113 36.8782 69.8609 36.7141 69.8773 36.545C69.8938 36.376 69.8768 36.2053 69.8273 36.0428C69.7779 35.8803 69.6969 35.7292 69.589 35.598C69.4811 35.4668 69.3484 35.3582 69.1985 35.2783C69.0487 35.1984 68.8845 35.1488 68.7155 35.1323C68.5464 35.1158 68.3758 35.1328 68.2133 35.1823C68.0508 35.2317 67.8997 35.3127 67.7685 35.4206C65.2127 37.4927 62.8131 39.7504 60.5891 42.1752C58.3578 38.7862 57.6063 35.8781 58.6893 34.0109C59.7722 32.1437 62.601 31.3315 66.7649 31.5789C67.1056 31.5966 67.4396 31.4789 67.6939 31.2514C67.9483 31.024 68.1024 30.7052 68.1227 30.3646C68.1431 30.024 68.0279 29.6892 67.8024 29.4331C67.5769 29.177 67.2593 29.0204 66.9189 28.9975C61.6534 28.6847 58.0497 29.9684 56.444 32.7319C55.445 34.4684 54.8522 37.5726 57.737 42.4973C58.0684 43.0668 58.4419 43.6503 58.8526 44.2384C54.8428 49.2799 53.4891 53.6397 55.2069 56.6133C56.5046 58.8585 59.3008 60.0022 63.4039 60.0022C64.9319 59.9913 66.4566 59.8618 67.9645 59.6148C68.3038 59.5615 68.6079 59.3757 68.8101 59.0982C69.0124 58.8207 69.0961 58.4742 69.0428 58.135C68.9896 57.7958 68.8038 57.4916 68.5263 57.2894C68.2488 57.0872 67.9023 57.0035 67.5631 57.0567C62.2509 57.8876 58.5679 57.2528 57.4522 55.3202C56.486 53.6491 57.2842 50.5215 60.4631 46.367C62.6712 49.0168 65.1233 51.4533 67.7871 53.6444C68.0192 53.8412 68.3138 53.9487 68.618 53.9478C68.8843 53.9487 69.1443 53.8674 69.3625 53.715C69.5808 53.5626 69.7467 53.3465 69.8376 53.0963C69.9285 52.8461 69.94 52.5739 69.8704 52.3169C69.8008 52.06 69.6537 51.8307 69.4489 51.6605V51.6419ZM73.2067 37.4979C73.0363 37.4966 72.8674 37.5292 72.7097 37.5937C72.552 37.6582 72.4086 37.7533 72.288 37.8736C72.1673 37.9938 72.0716 38.1368 72.0066 38.2943C71.9415 38.4517 71.9084 38.6205 71.909 38.7909V39.0383C71.909 42.558 72.077 46.0403 72.4038 49.4059C72.435 49.7262 72.5842 50.0234 72.8222 50.2399C73.0603 50.4564 73.3703 50.5768 73.6921 50.5776H73.8182C74.1569 50.5433 74.4685 50.3772 74.686 50.1153C74.9034 49.8533 75.0092 49.5164 74.9805 49.1772C74.6631 45.9096 74.5137 42.4926 74.5137 39.057V38.8189C74.5175 38.6458 74.4863 38.4737 74.4221 38.3129C74.3579 38.1521 74.2619 38.0059 74.1399 37.883C74.0179 37.7601 73.8724 37.6631 73.712 37.5977C73.5517 37.5324 73.3798 37.5 73.2067 37.5025V37.4979ZM92.6441 47.4547C88.9469 49.5273 85.1278 51.3746 81.2076 52.9862C80.9302 53.1006 80.7011 53.3076 80.5591 53.5718C80.4172 53.8361 80.3712 54.1414 80.4289 54.4358C80.4867 54.7302 80.6447 54.9955 80.876 55.1865C81.1074 55.3776 81.3977 55.4825 81.6977 55.4836C81.8659 55.4826 82.0323 55.4494 82.1879 55.3856C86.2036 53.7335 90.1162 51.8411 93.9045 49.7186C94.1843 49.5412 94.3856 49.2634 94.4672 48.9423C94.5488 48.6212 94.5045 48.281 94.3433 47.9916C94.1822 47.7021 93.9164 47.4852 93.6004 47.3854C93.2845 47.2855 92.9424 47.3103 92.6441 47.4547ZM122.323 17.8644C120.372 14.4894 115.13 13.6072 107.152 15.3156C104.182 15.9706 101.26 16.8315 98.4091 17.8924C97.907 15.6668 97.271 13.4735 96.5046 11.3245C93.8065 3.91643 90.2681 0 86.249 0C79.051 0 74.6631 12.4588 72.9499 24.1194C72.9004 24.4593 72.9879 24.8049 73.1932 25.0802C73.3985 25.3555 73.7047 25.538 74.0446 25.5875C74.3844 25.637 74.73 25.5495 75.0053 25.3443C75.2806 25.139 75.4631 24.8327 75.5127 24.4929C77.4032 11.5953 81.8191 2.59073 86.249 2.59073C88.9984 2.59073 91.8506 6.09638 94.0492 12.2068C94.8174 14.3718 95.4504 16.5824 95.9444 18.826C91.158 20.7581 86.5155 23.0294 82.0525 25.6225C81.2869 26.0893 80.5027 26.5281 79.7185 27.0229C79.5732 27.1112 79.4467 27.2272 79.3463 27.3644C79.2459 27.5015 79.1734 27.6571 79.1331 27.8223C79.0928 27.9874 79.0854 28.1589 79.1114 28.3269C79.1373 28.4949 79.1961 28.6561 79.2844 28.8014C79.3727 28.9467 79.4887 29.0732 79.6258 29.1736C79.763 29.2741 79.9186 29.3465 80.0837 29.3868C80.2489 29.4271 80.4203 29.4345 80.5883 29.4086C80.7563 29.3826 80.9176 29.3238 81.0629 29.2356C81.8331 28.7688 82.5986 28.302 83.3455 27.8818C87.5672 25.4276 91.953 23.2675 96.4719 21.4167C97.4135 26.6562 97.9194 31.9647 97.9843 37.2878C97.9892 37.6275 98.1276 37.9516 98.3696 38.1901C98.6115 38.4286 98.9376 38.5622 99.2773 38.5622H99.3007C99.6436 38.5548 99.9699 38.4124 100.208 38.166C100.447 37.9195 100.579 37.5888 100.575 37.2458C100.506 31.6181 99.9533 26.0067 98.9226 20.4738C110.032 16.3659 118.267 16.0765 120.059 19.1807C121.039 20.8799 120.176 23.7787 117.627 27.3357C114.854 31.1774 110.396 35.4766 104.72 39.6778C104.584 39.7793 104.469 39.9066 104.382 40.0525C104.294 40.1985 104.237 40.3601 104.212 40.5283C104.187 40.6965 104.196 40.8679 104.238 41.0327C104.279 41.1976 104.353 41.3526 104.454 41.489C104.556 41.6254 104.683 41.7405 104.829 41.8277C104.975 41.9148 105.136 41.9724 105.305 41.9971C105.473 42.0219 105.644 42.0132 105.809 41.9717C105.974 41.9301 106.129 41.8565 106.265 41.7551C112.156 37.3672 116.81 32.8859 119.728 28.8201C121.978 25.6739 124.246 21.2393 122.323 17.8644ZM106.34 47.3613C106.08 47.1372 105.742 47.0256 105.399 47.051C105.057 47.0764 104.739 47.2367 104.515 47.4967C104.291 47.7567 104.179 48.095 104.204 48.4373C104.23 48.7796 104.39 49.0978 104.65 49.3219C112.586 56.1418 116.6 62.9757 114.668 66.3226C113.333 68.6566 109.131 69.3708 103.142 68.3392C100.903 67.9402 98.6949 67.3865 96.5326 66.6821C98.1706 61.8926 99.2804 56.9385 99.8422 51.9079C99.8842 51.5675 99.7894 51.2242 99.5784 50.9537C99.3674 50.6832 99.0576 50.5076 98.7172 50.4655C98.3767 50.4234 98.0335 50.5183 97.763 50.7293C97.4925 50.9403 97.3169 51.25 97.2748 51.5905C96.7334 56.4447 95.6627 61.2251 94.0819 65.8465C89.6303 64.1933 85.3279 62.1631 81.2216 59.7781C80.9255 59.6299 80.584 59.6004 80.2669 59.6957C79.9498 59.791 79.6812 60.0039 79.5159 60.2909C79.3507 60.5778 79.3014 60.917 79.3781 61.2391C79.4548 61.5612 79.6517 61.8418 79.9286 62.0234C84.1417 64.4686 88.5548 66.5518 93.1203 68.2505C92.9802 68.5679 92.8402 68.876 92.6955 69.1841C90.7349 73.2593 88.4523 75.4999 86.2723 75.4999C83.1168 75.4999 79.8725 70.9066 77.5992 63.2138C77.5508 63.0507 77.4707 62.8988 77.3636 62.7667C77.2565 62.6346 77.1243 62.5248 76.9748 62.4438C76.8253 62.3627 76.6612 62.3119 76.492 62.2943C76.3228 62.2766 76.1518 62.2924 75.9888 62.3409C75.8257 62.3893 75.6738 62.4694 75.5417 62.5765C75.4096 62.6836 75.2999 62.8158 75.2188 62.9653C75.1377 63.1148 75.0869 63.2789 75.0693 63.4481C75.0516 63.6172 75.0674 63.7883 75.1159 63.9513C77.814 73.0679 81.7771 78.0906 86.2723 78.0906C89.5399 78.0906 92.5741 75.3972 95.0295 70.3091C95.2162 69.9217 95.3982 69.5155 95.5756 69.1048C97.9063 69.8709 100.288 70.4715 102.704 70.9019C104.422 71.2051 106.163 71.3612 107.908 71.3687C112.352 71.3687 115.48 70.085 116.908 67.6063C119.583 62.9477 115.629 55.3762 106.317 47.3613H106.34ZM94.3153 38.8283L93.4984 38.3615C89.6256 36.1131 85.5852 34.167 81.413 32.5405C81.0969 32.4367 80.7531 32.4583 80.4525 32.6008C80.1519 32.7432 79.9174 32.9957 79.7976 33.306C79.6778 33.6164 79.6817 33.9609 79.8086 34.2684C79.9355 34.5759 80.1756 34.8229 80.4794 34.9585C84.5257 36.536 88.443 38.426 92.196 40.6114L92.9896 41.0782C93.1881 41.1981 93.4158 41.2611 93.6478 41.2603C93.9407 41.2734 94.2293 41.1866 94.4664 41.014C94.7035 40.8415 94.8749 40.5935 94.9525 40.3108C95.0301 40.028 95.0093 39.7273 94.8935 39.4579C94.7778 39.1885 94.5738 38.9665 94.3153 38.8283ZM78.1781 56.4825C78.1781 55.8132 77.9796 55.1589 77.6077 54.6023C77.2358 54.0458 76.7073 53.612 76.0889 53.3559C75.4705 53.0997 74.79 53.0327 74.1335 53.1633C73.4771 53.2939 72.874 53.6162 72.4007 54.0895C71.9274 54.5628 71.6051 55.1658 71.4745 55.8223C71.3439 56.4788 71.411 57.1593 71.6671 57.7777C71.9233 58.3961 72.357 58.9246 72.9136 59.2965C73.4701 59.6683 74.1244 59.8668 74.7938 59.8668C75.6913 59.8668 76.5522 59.5103 77.1868 58.8756C77.8215 58.2409 78.1781 57.3801 78.1781 56.4825ZM102.68 44.5325C102.681 43.8621 102.483 43.2064 102.111 42.6484C101.74 42.0905 101.211 41.6554 100.591 41.3982C99.9723 41.141 99.2907 41.0732 98.633 41.2034C97.9753 41.3337 97.3711 41.6561 96.8966 42.1299C96.4222 42.6036 96.099 43.2075 95.9678 43.865C95.8367 44.5225 95.9035 45.2041 96.1599 45.8237C96.4163 46.4432 96.8506 46.9728 97.408 47.3453C97.9655 47.7179 98.6209 47.9168 99.2913 47.9168C99.7372 47.9168 100.179 47.8288 100.59 47.6579C101.002 47.4871 101.376 47.2366 101.691 46.9209C102.006 46.6052 102.255 46.2305 102.425 45.8183C102.595 45.406 102.682 44.9643 102.68 44.5185V44.5325Z" fill="url(#paint0_linear)"/>
<path d="M120.162 88.3649C127.523 88.3649 132.835 93.7424 132.835 100.352C132.835 106.962 127.523 112.34 120.162 112.34H112.39C112.266 112.34 112.147 112.29 112.06 112.203C111.972 112.115 111.923 111.997 111.923 111.873V88.813C111.923 88.6892 111.972 88.5705 112.06 88.4829C112.147 88.3954 112.266 88.3462 112.39 88.3462L120.162 88.3649ZM116.722 107.093C116.722 107.217 116.771 107.335 116.858 107.423C116.946 107.51 117.065 107.56 117.188 107.56H120.167C124.62 107.56 127.701 104.647 127.701 100.366C127.701 96.0857 124.62 93.1729 120.167 93.1729H117.188C117.065 93.1729 116.946 93.2221 116.858 93.3096C116.771 93.3972 116.722 93.5159 116.722 93.6397V107.093Z" fill="url(#paint1_linear)"/>
<path d="M151.643 88.813V92.7061C151.643 92.8299 151.593 92.9486 151.506 93.0362C151.418 93.1237 151.3 93.1729 151.176 93.1729H140.439C140.316 93.1729 140.197 93.2221 140.109 93.3096C140.022 93.3972 139.973 93.5159 139.973 93.6397V97.0193C139.973 97.1431 140.022 97.2618 140.109 97.3494C140.197 97.4369 140.316 97.4861 140.439 97.4861H148.1C148.223 97.4861 148.342 97.5353 148.43 97.6228C148.517 97.7104 148.566 97.8291 148.566 97.9529V101.846C148.566 101.97 148.517 102.089 148.43 102.176C148.342 102.264 148.223 102.313 148.1 102.313H140.449C140.325 102.313 140.206 102.362 140.119 102.45C140.031 102.537 139.982 102.656 139.982 102.78V107.186C139.982 107.31 140.031 107.429 140.119 107.516C140.206 107.604 140.325 107.653 140.449 107.653H151.535C151.659 107.653 151.778 107.702 151.865 107.79C151.953 107.877 152.002 107.996 152.002 108.12V112.018C152.002 112.141 151.953 112.26 151.865 112.348C151.778 112.435 151.659 112.484 151.535 112.484H135.664C135.54 112.484 135.422 112.435 135.334 112.348C135.246 112.26 135.197 112.141 135.197 112.018V88.813C135.197 88.6892 135.246 88.5705 135.334 88.4829C135.422 88.3954 135.54 88.3462 135.664 88.3462H151.204C151.323 88.3533 151.434 88.4057 151.516 88.4924C151.597 88.5792 151.643 88.6939 151.643 88.813Z" fill="url(#paint2_linear)"/>
<path d="M160.395 88.5564L164.975 95.1896C165.018 95.2467 165.074 95.2929 165.139 95.3248C165.203 95.3566 165.274 95.3732 165.346 95.3732C165.418 95.3732 165.488 95.3566 165.553 95.3248C165.617 95.2929 165.673 95.2467 165.717 95.1896L170.296 88.5564C170.339 88.4975 170.395 88.4496 170.46 88.4164C170.525 88.3831 170.597 88.3655 170.67 88.365H175.538C175.619 88.3696 175.698 88.3953 175.766 88.4394C175.834 88.4836 175.889 88.5448 175.926 88.6169C175.964 88.689 175.981 88.7695 175.978 88.8506C175.975 88.9317 175.95 89.0105 175.907 89.0792L168.438 99.4001C168.384 99.4782 168.355 99.5711 168.355 99.6662C168.355 99.7613 168.384 99.8541 168.438 99.9322L176.925 111.602C176.968 111.671 176.992 111.749 176.996 111.83C176.999 111.91 176.982 111.991 176.945 112.063C176.909 112.135 176.854 112.196 176.786 112.24C176.719 112.285 176.641 112.311 176.561 112.316H171.696C171.624 112.315 171.554 112.297 171.49 112.264C171.426 112.231 171.37 112.183 171.328 112.125L165.726 104.11C165.682 104.054 165.627 104.008 165.563 103.977C165.499 103.946 165.429 103.929 165.357 103.929C165.286 103.929 165.216 103.946 165.152 103.977C165.088 104.008 165.032 104.054 164.989 104.11L159.387 112.125C159.344 112.183 159.289 112.231 159.225 112.264C159.161 112.297 159.09 112.315 159.018 112.316H154.117C154.036 112.311 153.958 112.285 153.891 112.24C153.824 112.196 153.769 112.135 153.732 112.063C153.695 111.991 153.678 111.91 153.682 111.83C153.685 111.749 153.71 111.671 153.753 111.602L162.244 99.9322C162.298 99.8541 162.327 99.7613 162.327 99.6662C162.327 99.5711 162.298 99.4782 162.244 99.4001L154.775 89.0792C154.732 89.0108 154.708 88.9324 154.704 88.8517C154.7 88.771 154.718 88.6907 154.754 88.6187C154.791 88.5468 154.846 88.4855 154.913 88.4411C154.981 88.3966 155.059 88.3704 155.139 88.365H160.022C160.095 88.3655 160.166 88.3831 160.231 88.4164C160.296 88.4496 160.352 88.4975 160.395 88.5564Z" fill="url(#paint3_linear)"/>
<path d="M60.5238 94.8208C61.8185 93.9898 63.3176 93.5327 64.8557 93.4998C67.5538 93.4998 69.4957 94.2513 70.8167 95.4836C70.9492 95.6035 71.1199 95.6725 71.2985 95.6785C71.4771 95.6845 71.652 95.627 71.7923 95.5163C73.364 94.2698 75.2955 93.5627 77.3005 93.4998C82.9581 93.4998 85.4088 96.702 85.4088 101.795V111.033C85.4076 111.232 85.3273 111.424 85.1857 111.564C85.044 111.705 84.8523 111.784 84.6526 111.784H81.7864C81.5871 111.784 81.396 111.705 81.255 111.564C81.1141 111.423 81.0349 111.232 81.0349 111.033V102.276C81.0349 99.26 79.7139 97.7103 77.1511 97.7103C75.6738 97.7272 74.2609 98.3182 73.2114 99.3581C73.134 99.4296 73.0722 99.5162 73.0296 99.6125C72.9871 99.7089 72.9647 99.8129 72.964 99.9182V111.023C72.964 111.223 72.8848 111.414 72.7438 111.555C72.6029 111.696 72.4117 111.775 72.2124 111.775H69.3463C69.2472 111.776 69.149 111.757 69.0572 111.719C68.9655 111.682 68.8821 111.626 68.8118 111.556C68.7416 111.487 68.6858 111.404 68.6477 111.312C68.6097 111.221 68.5901 111.122 68.5901 111.023V102.276C68.5901 99.26 67.269 97.7103 64.7063 97.7103C63.2304 97.7275 61.819 98.3184 60.7712 99.3581C60.693 99.4288 60.6305 99.5153 60.5879 99.6118C60.5452 99.7083 60.5234 99.8127 60.5238 99.9182V111.023C60.5226 111.223 60.4423 111.414 60.3007 111.555C60.159 111.696 59.9673 111.775 59.7676 111.775H56.9014C56.7021 111.775 56.511 111.696 56.37 111.555C56.2291 111.414 56.1499 111.223 56.1499 111.023V94.8208C56.1499 94.7221 56.1693 94.6244 56.2071 94.5332C56.2449 94.442 56.3002 94.3592 56.37 94.2894C56.4398 94.2196 56.5227 94.1642 56.6138 94.1265C56.705 94.0887 56.8028 94.0692 56.9014 94.0692H59.7723C59.9712 94.0705 60.1616 94.15 60.3023 94.2907C60.443 94.4314 60.5226 94.6219 60.5238 94.8208Z" fill="#3C5368"/>
<path d="M34.439 108.545C34.4376 108.427 34.4088 108.312 34.3551 108.208C34.3014 108.103 34.2242 108.013 34.1296 107.944C34.0349 107.875 33.9255 107.828 33.8099 107.809C33.6943 107.789 33.5757 107.796 33.4634 107.83C32.8397 108.027 32.1896 108.128 31.5355 108.129C30.0278 108.129 28.7068 107.149 28.7068 104.133V99.232C28.7068 99.0314 28.7864 98.8391 28.9282 98.6973C29.0701 98.5554 29.2624 98.4758 29.463 98.4758H33.6875C33.8868 98.4758 34.078 98.3966 34.2189 98.2556C34.3598 98.1147 34.439 97.9235 34.439 97.7242V94.8207C34.4396 94.7217 34.4207 94.6234 34.3832 94.5317C34.3457 94.44 34.2904 94.3566 34.2206 94.2863C34.1507 94.216 34.0677 94.1602 33.9762 94.1222C33.8847 94.0841 33.7866 94.0645 33.6875 94.0645H29.463C29.2624 94.0645 29.0701 93.9849 28.9282 93.843C28.7864 93.7012 28.7068 93.5089 28.7068 93.3083V90.2928C28.7068 90.0935 28.6276 89.9023 28.4866 89.7614C28.3457 89.6204 28.1545 89.5413 27.9552 89.5413H25.0517C24.8536 89.5412 24.6633 89.619 24.5219 89.7578C24.3805 89.8966 24.2992 90.0853 24.2955 90.2835V93.299C24.2961 93.3981 24.2771 93.4963 24.2396 93.588C24.2022 93.6797 24.1469 93.7631 24.077 93.8334C24.0072 93.9037 23.9241 93.9595 23.8327 93.9975C23.7412 94.0356 23.6431 94.0552 23.544 94.0552H21.8448C21.7457 94.0552 21.6476 94.0748 21.5561 94.1128C21.4646 94.1509 21.3816 94.2067 21.3117 94.277C21.2419 94.3472 21.1866 94.4306 21.1491 94.5224C21.1116 94.6141 21.0927 94.7123 21.0933 94.8114V97.7149C21.0933 97.9142 21.1725 98.1054 21.3134 98.2463C21.4543 98.3873 21.6455 98.4664 21.8448 98.4664H23.544C23.6431 98.4664 23.7412 98.486 23.8327 98.5241C23.9241 98.5621 24.0072 98.6179 24.077 98.6882C24.1469 98.7585 24.2022 98.8419 24.2396 98.9336C24.2771 99.0253 24.2961 99.1236 24.2955 99.2226V104.497C24.2955 109.399 26.7462 112.34 31.5355 112.34C32.3403 112.311 33.1377 112.176 33.9069 111.938C34.0617 111.891 34.1971 111.795 34.2929 111.665C34.3888 111.534 34.44 111.376 34.439 111.215V108.545Z" fill="#3C5368"/>
<path d="M44.7881 93.4902C42.9243 93.4912 41.1026 94.0447 39.5534 95.0808C38.0041 96.117 36.7969 97.5893 36.0842 99.3115C35.3716 101.034 35.1857 102.929 35.5498 104.756C35.914 106.584 36.812 108.263 38.1302 109.581C39.4485 110.898 41.1278 111.796 42.9559 112.159C44.7839 112.522 46.6787 112.335 48.4006 111.622C50.1224 110.908 51.5941 109.7 52.6295 108.15C53.6648 106.601 54.2175 104.779 54.2175 102.915C54.2175 101.677 53.9735 100.451 53.4996 99.3072C53.0257 98.1634 52.3311 97.1242 51.4554 96.249C50.5797 95.3738 49.5402 94.6797 48.3962 94.2063C47.2522 93.7329 46.0262 93.4896 44.7881 93.4902ZM44.7881 108.115C43.7589 108.119 42.7517 107.817 41.894 107.248C41.0364 106.679 40.367 105.868 39.9706 104.918C39.5741 103.968 39.4685 102.922 39.667 101.912C39.8655 100.902 40.3593 99.9736 41.0858 99.2445C41.8123 98.5154 42.7389 98.0183 43.7481 97.8161C44.7573 97.6139 45.8039 97.7158 46.7551 98.1088C47.7064 98.5019 48.5197 99.1684 49.0919 100.024C49.6641 100.879 49.9696 101.886 49.9696 102.915C49.9696 104.291 49.4243 105.611 48.4531 106.585C47.482 107.56 46.1641 108.11 44.7881 108.115Z" fill="#3C5368"/>
<path d="M92.3596 89.4525C92.3596 88.197 91.3418 87.1792 90.0863 87.1792C88.8308 87.1792 87.813 88.197 87.813 89.4525C87.813 90.708 88.8308 91.7258 90.0863 91.7258C91.3418 91.7258 92.3596 90.708 92.3596 89.4525Z" fill="#3C5368"/>
<path d="M91.4912 94.0552H88.6298C88.2121 94.0552 87.8735 94.3937 87.8735 94.8114V111.019C87.8735 111.436 88.2121 111.775 88.6298 111.775H91.4912C91.9089 111.775 92.2474 111.436 92.2474 111.019V94.8114C92.2474 94.3937 91.9089 94.0552 91.4912 94.0552Z" fill="#3C5368"/>
<path d="M18.5867 94.0552H15.7206C15.6207 94.054 15.5216 94.0727 15.429 94.1102C15.3364 94.1477 15.2523 94.2032 15.1814 94.2737C15.1106 94.3441 15.0545 94.4279 15.0164 94.5202C14.9783 94.6126 14.959 94.7116 14.9597 94.8114V94.9561C13.5341 94.0495 11.8911 93.5426 10.2025 93.4883C8.51393 93.434 6.84178 93.8344 5.3609 94.6476C3.88003 95.4607 2.64483 96.6569 1.78448 98.1108C0.924124 99.5648 0.470215 101.223 0.470215 102.913C0.470215 104.602 0.924124 106.261 1.78448 107.715C2.64483 109.169 3.88003 110.365 5.3609 111.178C6.84178 111.991 8.51393 112.391 10.2025 112.337C11.8911 112.283 13.5341 111.776 14.9597 110.869V111.023C14.9597 111.223 15.0389 111.414 15.1798 111.555C15.3207 111.696 15.5119 111.775 15.7112 111.775H18.5774C18.7771 111.775 18.9688 111.696 19.1104 111.555C19.2521 111.414 19.3323 111.223 19.3336 111.023V94.8114C19.3336 94.6125 19.2552 94.4215 19.1154 94.28C18.9756 94.1384 18.7856 94.0577 18.5867 94.0552ZM9.91359 108.115C8.93777 108.116 7.98134 107.843 7.15361 107.326C6.32589 106.809 5.66028 106.07 5.23288 105.193C4.80548 104.315 4.63353 103.336 4.73669 102.365C4.83985 101.395 5.21396 100.473 5.81625 99.7055C6.41854 98.9377 7.2247 98.3549 8.14259 98.0237C9.06047 97.6924 10.053 97.6262 11.0068 97.8324C11.9606 98.0387 12.8371 98.5091 13.5361 99.19C14.2351 99.8709 14.7284 100.735 14.9597 101.683V104.147C14.6831 105.278 14.0358 106.283 13.1212 107.002C12.2065 107.721 11.0772 108.113 9.91359 108.115Z" fill="#3C5368"/>
<path d="M108.683 108.045C108.683 107.919 108.651 107.795 108.59 107.684C108.529 107.573 108.442 107.479 108.336 107.411C108.229 107.343 108.108 107.302 107.982 107.293C107.856 107.284 107.729 107.307 107.614 107.359C106.531 107.857 105.353 108.116 104.16 108.12C100.892 108.12 98.8431 105.819 98.8431 102.915C98.8431 100.012 100.883 97.7103 104.16 97.7103C105.353 97.714 106.531 97.9734 107.614 98.4712C107.729 98.5246 107.855 98.5482 107.981 98.5399C108.107 98.5316 108.229 98.4916 108.336 98.4237C108.442 98.3558 108.53 98.262 108.591 98.1512C108.651 98.0404 108.683 97.9161 108.683 97.7897V94.9609C108.685 94.8114 108.641 94.6651 108.557 94.541C108.474 94.4169 108.355 94.3208 108.216 94.2654C106.926 93.7443 105.547 93.4811 104.155 93.4905C98.311 93.4905 94.3525 97.6917 94.3525 102.915C94.3525 108.139 98.311 112.34 104.155 112.34C105.546 112.351 106.926 112.089 108.216 111.57C108.356 111.513 108.475 111.416 108.558 111.291C108.641 111.167 108.685 111.019 108.683 110.869V108.045Z" fill="#3C5368"/>
<defs>
<linearGradient id="paint0_linear" x1="54.4787" y1="39.0383" x2="123.037" y2="39.0383" gradientUnits="userSpaceOnUse">
<stop offset="0.02" stop-color="#2ABCF1"/>
<stop offset="1" stop-color="#6A4DE3"/>
</linearGradient>
<linearGradient id="paint1_linear" x1="109.996" y1="87.5" x2="174.496" y2="119" gradientUnits="userSpaceOnUse">
<stop offset="0.02" stop-color="#2ABCF1"/>
<stop offset="1" stop-color="#6A4DE3"/>
</linearGradient>
<linearGradient id="paint2_linear" x1="112.496" y1="77" x2="167.496" y2="117.5" gradientUnits="userSpaceOnUse">
<stop offset="0.02" stop-color="#2ABCF1"/>
<stop offset="1" stop-color="#6A4DE3"/>
</linearGradient>
<linearGradient id="paint3_linear" x1="112.996" y1="73.5" x2="180.496" y2="116" gradientUnits="userSpaceOnUse">
<stop offset="0.02" stop-color="#2ABCF1"/>
<stop offset="1" stop-color="#6A4DE3"/>
</linearGradient>
</defs>
</svg>
