<?xml version="1.0" encoding="UTF-8"?>
<svg width="13px" height="21px" viewBox="0 0 13 21" version="1.1" xmlns="http://www.w3.org/2000/svg" xmlns:xlink="http://www.w3.org/1999/xlink">
    <!-- Generator: Sketch 53.2 (72643) - https://sketchapp.com -->
    <title>mic</title>
    <desc>Created with Sketch.</desc>
    <g id="News" stroke="none" stroke-width="1" fill="none" fill-rule="evenodd">
        <g id="NewsFeed-Search" transform="translate(-334.000000, -55.000000)">
            <g id="mic" transform="translate(335.000000, 56.000000)">
                <path d="M11.2142857,8.87771429 C11.0171429,8.87771429 10.8571429,9.03771429 10.8571429,9.23485714 L10.8571429,11.3777143 C10.8571429,14.1348571 8.61428571,16.3777143 5.85714286,16.3777143 C3.1,16.3777143 0.857142857,14.1348571 0.857142857,11.3777143 L0.857142857,9.23485714 C0.857142857,9.03771429 0.697142857,8.87771429 0.5,8.87771429 C0.302857143,8.87771429 0.142857143,9.03771429 0.142857143,9.23485714 L0.142857143,11.3777143 C0.142857143,14.4084286 2.51571429,16.8884286 5.5,17.0741429 L5.5,18.8777143 L3.71428571,18.8777143 C3.51714286,18.8777143 3.35714286,19.0377143 3.35714286,19.2348571 C3.35714286,19.4327143 3.51714286,19.592 3.71428571,19.592 L8,19.592 C8.19714286,19.592 8.35714286,19.4327143 8.35714286,19.2348571 C8.35714286,19.0377143 8.19714286,18.8777143 8,18.8777143 L6.21428571,18.8777143 L6.21428571,17.0741429 C9.19857143,16.8884286 11.5714286,14.4077143 11.5714286,11.3777143 L11.5714286,9.23485714 C11.5714286,9.03771429 11.4114286,8.87771429 11.2142857,8.87771429" id="Fill-1" fill="#FFFFFF"></path>
                <path d="M11.2142857,8.87771429 C11.0171429,8.87771429 10.8571429,9.03771429 10.8571429,9.23485714 L10.8571429,11.3777143 C10.8571429,14.1348571 8.61428571,16.3777143 5.85714286,16.3777143 C3.1,16.3777143 0.857142857,14.1348571 0.857142857,11.3777143 L0.857142857,9.23485714 C0.857142857,9.03771429 0.697142857,8.87771429 0.5,8.87771429 C0.302857143,8.87771429 0.142857143,9.03771429 0.142857143,9.23485714 L0.142857143,11.3777143 C0.142857143,14.4084286 2.51571429,16.8884286 5.5,17.0741429 L5.5,18.8777143 L3.71428571,18.8777143 C3.51714286,18.8777143 3.35714286,19.0377143 3.35714286,19.2348571 C3.35714286,19.4327143 3.51714286,19.592 3.71428571,19.592 L8,19.592 C8.19714286,19.592 8.35714286,19.4327143 8.35714286,19.2348571 C8.35714286,19.0377143 8.19714286,18.8777143 8,18.8777143 L6.21428571,18.8777143 L6.21428571,17.0741429 C9.19857143,16.8884286 11.5714286,14.4077143 11.5714286,11.3777143 L11.5714286,9.23485714 C11.5714286,9.03771429 11.4114286,8.87771429 11.2142857,8.87771429 Z" id="Stroke-3" stroke="#FFFFFF" stroke-width="0.4"></path>
                <path d="M2.92678571,3.63707143 C2.92678571,2.06064286 4.26821429,0.7785 5.91607143,0.7785 C7.56392857,0.7785 8.90464286,2.06064286 8.90464286,3.63707143 L8.90464286,11.2620714 C8.90464286,12.8385 7.56392857,14.1206429 5.91607143,14.1206429 C4.26821429,14.1206429 2.92678571,12.8385 2.92678571,11.2620714 L2.92678571,3.63707143 Z M5.91607143,14.7556429 C7.93035714,14.7556429 9.56964286,13.1885 9.56964286,11.2620714 L9.56964286,3.63707143 C9.56964286,1.71064286 7.93035714,0.142785714 5.91607143,0.142785714 C3.90178571,0.142785714 2.2625,1.71064286 2.2625,3.63707143 L2.2625,11.2620714 C2.2625,13.1885 3.90178571,14.7556429 5.91607143,14.7556429 L5.91607143,14.7556429 Z" id="Fill-5" fill="#FFFFFF"></path>
                <path d="M2.92678571,3.63707143 C2.92678571,2.06064286 4.26821429,0.7785 5.91607143,0.7785 C7.56392857,0.7785 8.90464286,2.06064286 8.90464286,3.63707143 L8.90464286,11.2620714 C8.90464286,12.8385 7.56392857,14.1206429 5.91607143,14.1206429 C4.26821429,14.1206429 2.92678571,12.8385 2.92678571,11.2620714 L2.92678571,3.63707143 Z M5.91607143,14.7556429 C7.93035714,14.7556429 9.56964286,13.1885 9.56964286,11.2620714 L9.56964286,3.63707143 C9.56964286,1.71064286 7.93035714,0.142785714 5.91607143,0.142785714 C3.90178571,0.142785714 2.2625,1.71064286 2.2625,3.63707143 L2.2625,11.2620714 C2.2625,13.1885 3.90178571,14.7556429 5.91607143,14.7556429 Z" id="Stroke-7" stroke="#FFFFFF" stroke-width="0.4"></path>
            </g>
        </g>
    </g>
</svg>