<?xml version="1.0" encoding="UTF-8"?>
<svg width="110px" height="95px" viewBox="0 0 110 95" version="1.1" xmlns="http://www.w3.org/2000/svg" xmlns:xlink="http://www.w3.org/1999/xlink">
    <!-- Generator: Sketch 53.2 (72643) - https://sketchapp.com -->
    <title>log</title>
    <desc>Created with Sketch.</desc>
    <g id="Setting" stroke="none" stroke-width="1" fill="none" fill-rule="evenodd">
        <g id="log-out-set-pw" transform="translate(-128.000000, -249.000000)">
            <g id="log" transform="translate(123.000000, 244.000000)">
                <path d="M51,24.6621779 C51,13.803078 42.0456735,5 31,5 C19.9550973,5 11,13.803078 11,24.6621779 C11,30.9643815 14.0703411,36.5110178 18.761033,40.1084878 L11,83 L51,83 L43.238967,40.1084878 C47.9296589,36.5110178 51,30.9643815 51,24.6621779" id="Fill-1" fill="#41EAD4" opacity="0.15" transform="translate(31.000000, 44.000000) rotate(-17.000000) translate(-31.000000, -44.000000) "></path>
                <path d="M113.070782,74.7001713 C115.902119,70.0168788 114.30539,63.9835632 109.502849,61.2225288 C104.701079,58.4614945 98.5133676,60.0185763 95.6820301,64.7018688 C94.0389741,67.4199856 93.9270177,70.5785727 95.0280505,73.302713 L80.4714084,89.8583779 L97.8609323,99.8566804 L105.669309,79.4211109 C108.647348,79.0423816 111.427726,77.4175351 113.070782,74.7001713" id="Fill-3" fill="#41EAD4" opacity="0.15"></path>
                <path d="M73.3950219,62.1485994 L67.3770219,59.1795994 L80.5500219,32.4805994 C83.3640219,26.7795994 81.0130219,19.8525994 75.3110219,17.0385994 C69.6090219,14.2255994 62.6820219,16.5755994 59.8690219,22.2765994 L46.6960219,48.9755994 L40.6790219,46.0065994 L53.8520219,19.3075994 C58.3020219,10.2875994 69.2600219,6.57059937 78.2800219,11.0215994 C87.3010219,15.4715994 91.0180219,26.4305994 86.5680219,35.4495994 L73.3950219,62.1485994 Z" id="Stroke-19" stroke="#1D2837" stroke-width="3" transform="translate(64.564026, 35.644265) rotate(-26.000000) translate(-64.564026, -35.644265) "></path>
                <path d="M75.8646173,78.8076967 L40.6436173,61.4306967 C38.9246173,60.5816967 38.2126173,58.4816967 39.0606173,56.7626967 L52.1296173,30.2736967 L93.6016173,50.7356967 L80.5316173,77.2246967 C79.6846173,78.9436967 77.5836173,79.6556967 75.8646173,78.8076967 Z" id="Stroke-23" stroke="#1D2837" stroke-width="3" fill="#FFFFFF" transform="translate(66.152259, 54.719555) rotate(-26.000000) translate(-66.152259, -54.719555) "></path>
                <path d="M71.6580015,54.0747402 C72.6500015,52.0637402 71.8250015,49.6297402 69.8140015,48.6377402 C67.8030015,47.6447402 65.3680015,48.4707402 64.3760015,50.4817402 C63.8010015,51.6487402 63.8530015,52.9517402 64.3780015,54.0397402 L59.0460015,61.2847402 L66.3280015,64.8777402 L68.8340015,56.2377402 C70.0170015,55.9927402 71.0820015,55.2417402 71.6580015,54.0747402" id="Fill-25" fill="#41EAD4" transform="translate(65.562019, 56.547503) rotate(-26.000000) translate(-65.562019, -56.547503) "></path>
            </g>
        </g>
    </g>
</svg>