<?xml version="1.0" encoding="UTF-8"?>
<svg width="21px" height="20px" viewBox="0 0 21 20" version="1.1" xmlns="http://www.w3.org/2000/svg" xmlns:xlink="http://www.w3.org/1999/xlink">
    <!-- Generator: Sketch 53.2 (72643) - https://sketchapp.com -->
    <title>QRcode</title>
    <desc>Created with Sketch.</desc>
    <defs>
        <polygon id="path-1" points="0 19.9949609 20.0117371 19.9949609 20.0117371 0 0 0"></polygon>
    </defs>
    <g id="Dashboards" stroke="none" stroke-width="1" fill="none" fill-rule="evenodd">
        <g id="Send-1" transform="translate(-320.000000, -222.000000)">
            <g id="QRcode" transform="translate(320.000000, 222.000000)">
                <path d="M2.41661659,2.76015649 L2.41661659,8.18710485 C2.41661659,8.40397496 2.59245383,8.57956182 2.80907355,8.57956182 L8.2362723,8.57956182 C8.45292332,8.57956182 8.62872926,8.40397496 8.62872926,8.18710485 L8.62872926,7.15815336 C8.62872926,6.94125196 8.45292332,6.7656964 8.2362723,6.7656964 C8.01962128,6.7656964 7.84394053,6.94125196 7.84394053,7.15815336 L7.84394053,7.79486698 L3.20156182,7.79486698 L3.20156182,3.15248826 L7.84394053,3.15248826 L7.84394053,4.0972144 C7.84394053,4.31399061 8.01962128,4.48979656 8.2362723,4.48979656 C8.45292332,4.48979656 8.62872926,4.31399061 8.62872926,4.0972144 L8.62872926,2.76015649 C8.62872926,2.54338028 8.45292332,2.36769953 8.2362723,2.36769953 L2.80907355,2.36769953 C2.59245383,2.36769953 2.41661659,2.54338028 2.41661659,2.76015649" id="Fill-1" fill="#FEFEFE"></path>
                <mask id="mask-2" fill="white">
                    <use xlink:href="#path-1"></use>
                </mask>
                <g id="Clip-4"></g>
                <path d="M5.10112676,5.89543036 L5.94447574,5.89543036 L5.94447574,5.05208138 L5.10112676,5.05208138 L5.10112676,5.89543036 Z M4.7086698,4.26726135 C4.49189358,4.26726135 4.31633803,4.4428482 4.31633803,4.65962441 L4.31633803,6.28776213 C4.31633803,6.50441315 4.49189358,6.68021909 4.7086698,6.68021909 L6.33680751,6.68021909 C6.55345853,6.68021909 6.72926448,6.50441315 6.72926448,6.28776213 L6.72926448,4.65962441 C6.72926448,4.4428482 6.55345853,4.26726135 6.33680751,4.26726135 L4.7086698,4.26726135 Z" id="Fill-3" fill="#FEFEFE" mask="url(#mask-2)"></path>
                <path d="M3.20156495,16.8092019 L7.84394366,16.8092019 L7.84394366,12.1668545 L3.20156495,12.1668545 L3.20156495,16.8092019 Z M8.23627543,11.3820344 L2.80907668,11.3820344 C2.59245696,11.3820344 2.41661972,11.5577152 2.41661972,11.7743662 L2.41661972,17.2015336 C2.41661972,17.4183099 2.59245696,17.5938967 2.80907668,17.5938967 L8.23627543,17.5938967 C8.45292645,17.5938967 8.62873239,17.4183099 8.62873239,17.2015336 L8.62873239,11.7743662 C8.62873239,11.5577152 8.45292645,11.3820344 8.23627543,11.3820344 L8.23627543,11.3820344 Z" id="Fill-5" fill="#FEFEFE" mask="url(#mask-2)"></path>
                <path d="M12.243036,7.79486698 L16.8854147,7.79486698 L16.8854147,3.15248826 L12.243036,3.15248826 L12.243036,7.79486698 Z M11.8506729,8.57956182 L17.2779969,8.57956182 C17.4945227,8.57956182 17.6702034,8.40397496 17.6702034,8.18710485 L17.6702034,2.76015649 C17.6702034,2.54338028 17.4945227,2.36769953 17.2779969,2.36769953 L11.8506729,2.36769953 C11.6340532,2.36769953 11.458216,2.54338028 11.458216,2.76015649 L11.458216,8.18710485 C11.458216,8.40397496 11.6340532,8.57956182 11.8506729,8.57956182 L11.8506729,8.57956182 Z" id="Fill-6" fill="#FEFEFE" mask="url(#mask-2)"></path>
                <path d="M12.243036,16.8092019 L16.8854147,16.8092019 L16.8854147,12.1668545 L12.243036,12.1668545 L12.243036,16.8092019 Z M17.6702034,17.2015336 L17.6702034,11.7743662 C17.6702034,11.5577152 17.4945227,11.3820344 17.2779969,11.3820344 L11.8506729,11.3820344 C11.6340532,11.3820344 11.458216,11.5577152 11.458216,11.7743662 L11.458216,17.2015336 C11.458216,17.4183099 11.6340532,17.5938967 11.8506729,17.5938967 L17.2779969,17.5938967 C17.4945227,17.5938967 17.6702034,17.4183099 17.6702034,17.2015336 L17.6702034,17.2015336 Z" id="Fill-7" fill="#FEFEFE" mask="url(#mask-2)"></path>
                <path d="M17.2780031,10.3969546 C17.494529,10.3969546 17.6702097,10.22118 17.6702097,10.0044977 C17.6702097,9.78772144 17.494529,9.61216588 17.2780031,9.61216588 L10.3979718,9.61216588 L10.3979718,2.71661033 C10.3979718,2.49999061 10.2221346,2.32415336 10.0056401,2.32415336 C9.78864476,2.32415336 9.6130579,2.49999061 9.6130579,2.71661033 L9.6130579,9.61216588 L4.40473239,9.61216588 C4.18808138,9.61216588 4.01240063,9.78787793 4.01240063,10.0044977 C4.01240063,10.2213052 4.18808138,10.3969546 4.40473239,10.3969546 L9.6130579,10.3969546 L9.6130579,17.2015243 C9.6130579,17.4183005 9.78864476,17.5938873 10.0056401,17.5938873 C10.2221346,17.5938873 10.3979718,17.4183005 10.3979718,17.2015243 L10.3979718,10.3969546 L17.2780031,10.3969546 Z" id="Fill-8" fill="#FEFEFE" mask="url(#mask-2)"></path>
                <path d="M5.10112676,14.9388419 L5.94447574,14.9388419 L5.94447574,14.095493 L5.10112676,14.095493 L5.10112676,14.9388419 Z M4.7086698,15.723662 L6.33680751,15.723662 C6.55345853,15.723662 6.72926448,15.5479499 6.72926448,15.331205 L6.72926448,13.703036 C6.72926448,13.4862598 6.55345853,13.3107042 6.33680751,13.3107042 L4.7086698,13.3107042 C4.49189358,13.3107042 4.31633803,13.4862598 4.31633803,13.703036 L4.31633803,15.331205 C4.31633803,15.5479499 4.49189358,15.723662 4.7086698,15.723662 L4.7086698,15.723662 Z" id="Fill-9" fill="#FEFEFE" mask="url(#mask-2)"></path>
                <path d="M14.142723,5.89543036 L14.9858216,5.89543036 L14.9858216,5.05208138 L14.142723,5.05208138 L14.142723,5.89543036 Z M15.3782786,4.26726135 L13.7501408,4.26726135 C13.5334898,4.26726135 13.3576839,4.4428482 13.3576839,4.65962441 L13.3576839,6.28776213 C13.3576839,6.50441315 13.5334898,6.68021909 13.7501408,6.68021909 L15.3782786,6.68021909 C15.5950548,6.68021909 15.7707355,6.50441315 15.7707355,6.28776213 L15.7707355,4.65962441 C15.7707355,4.4428482 15.5950548,4.26726135 15.3782786,4.26726135 L15.3782786,4.26726135 Z" id="Fill-10" fill="#FEFEFE" mask="url(#mask-2)"></path>
                <path d="M14.142723,14.9388419 L14.9858216,14.9388419 L14.9858216,14.095493 L14.142723,14.095493 L14.142723,14.9388419 Z M13.7501408,15.723662 L15.3782786,15.723662 C15.5950548,15.723662 15.7707355,15.5479499 15.7707355,15.331205 L15.7707355,13.703036 C15.7707355,13.4862598 15.5950548,13.3107042 15.3782786,13.3107042 L13.7501408,13.3107042 C13.5334898,13.3107042 13.3576839,13.4862598 13.3576839,13.703036 L13.3576839,15.331205 C13.3576839,15.5479499 13.5334898,15.723662 13.7501408,15.723662 L13.7501408,15.723662 Z" id="Fill-11" fill="#FEFEFE" mask="url(#mask-2)"></path>
                <path d="M2.7297277,9.61377778 L2.70860094,9.61866041 C2.49767762,9.66855086 2.3669734,9.87981847 2.41661346,10.0907105 C2.45930516,10.2713991 2.62043192,10.3933083 2.7982097,10.3933083 C2.82816275,10.3933083 2.8583662,10.3897715 2.88866354,10.3825415 L2.90957121,10.3776588 C3.12074491,10.3278623 3.25141784,10.1165947 3.20155869,9.90573396 C3.15204382,9.69484194 2.94065102,9.56413772 2.7297277,9.61377778" id="Fill-12" fill="#FEFEFE" mask="url(#mask-2)"></path>
                <path d="M8.157277,5.23608764 L8.13615023,5.24109546 C7.92513302,5.29061033 7.7943036,5.50175274 7.84381847,5.71276995 C7.88610329,5.89370892 8.04726135,6.01574335 8.22550861,6.01574335 C8.25508607,6.01574335 8.28516432,6.01230047 8.31536776,6.00510172 L8.33640063,6.00021909 C8.54741784,5.95070423 8.67824726,5.73943662 8.62885759,5.5286385 C8.57934272,5.31762128 8.36807512,5.18654147 8.157277,5.23608764" id="Fill-13" fill="#FEFEFE" mask="url(#mask-2)"></path>
                <path d="M0.392366197,3.21411268 C0.609236307,3.21411268 0.784697966,3.03855712 0.784697966,2.82178091 L0.784697966,0.784785603 L2.74773396,0.784785603 C2.96447887,0.784785603 3.14028482,0.609198748 3.14028482,0.392453834 C3.14028482,0.175802817 2.96447887,-3.12989045e-06 2.74773396,-3.12989045e-06 L0.392366197,-3.12989045e-06 C0.17571518,-3.12989045e-06 3.12989045e-06,0.175802817 3.12989045e-06,0.392453834 L3.12989045e-06,2.82178091 C3.12989045e-06,3.03855712 0.17571518,3.21411268 0.392366197,3.21411268" id="Fill-14" fill="#FEFEFE" mask="url(#mask-2)"></path>
                <path d="M19.6193991,0 L17.2640313,0 C17.0471612,0 16.8714491,0.175805947 16.8714491,0.392456964 C16.8714491,0.609201878 17.0471612,0.784788732 17.2640313,0.784788732 L19.2269421,0.784788732 L19.2269421,2.82178404 C19.2269421,3.03856025 19.402529,3.21411581 19.6193991,3.21411581 C19.8359249,3.21411581 20.0117308,3.03856025 20.0117308,2.82178404 L20.0117308,0.392456964 C20.0117308,0.175805947 19.8359249,0 19.6193991,0" id="Fill-15" fill="#FEFEFE" mask="url(#mask-2)"></path>
                <path d="M2.74773083,19.2100407 L0.784694836,19.2100407 L0.784694836,17.1731706 C0.784694836,16.9565196 0.609233177,16.7808701 0.392363067,16.7808701 C0.17571205,16.7808701 0,16.9565196 0,17.1731706 L0,19.6024977 C0,19.8191487 0.17571205,19.9949546 0.392363067,19.9949546 L2.74773083,19.9949546 C2.96447574,19.9949546 3.14028169,19.8191487 3.14028169,19.6024977 C3.14028169,19.3857527 2.96447574,19.2100407 2.74773083,19.2100407" id="Fill-16" fill="#FEFEFE" mask="url(#mask-2)"></path>
                <path d="M19.6193991,16.7808607 C19.402529,16.7808607 19.2269421,16.9565102 19.2269421,17.1731612 L19.2269421,19.2100313 L17.2640313,19.2100313 C17.0471612,19.2100313 16.8714491,19.3857746 16.8714491,19.6024883 C16.8714491,19.8191393 17.0471612,19.9949452 17.2640313,19.9949452 L19.6193991,19.9949452 C19.8359249,19.9949452 20.0117308,19.8191393 20.0117308,19.6024883 L20.0117308,17.1731612 C20.0117308,16.9565102 19.8359249,16.7808607 19.6193991,16.7808607" id="Fill-17" fill="#FEFEFE" mask="url(#mask-2)"></path>
            </g>
        </g>
    </g>
</svg>