<?xml version="1.0" encoding="UTF-8"?>
<svg width="21px" height="22px" viewBox="0 0 21 22" version="1.1" xmlns="http://www.w3.org/2000/svg" xmlns:xlink="http://www.w3.org/1999/xlink">
    <!-- Generator: Sketch 53.2 (72643) - https://sketchapp.com -->
    <title>transaction</title>
    <desc>Created with Sketch.</desc>
    <g id="Dashboards" stroke="none" stroke-width="1" fill="none" fill-rule="evenodd">
        <g id="Success-Transaction-history---Details" transform="translate(-30.000000, -568.000000)" stroke="#FFFFFF">
            <g id="transaction" transform="translate(30.000000, 569.000000)">
                <path d="M8.579,11.9047619 L8.579,12.3809524 C8.579,12.9066667 9.00566667,13.3333333 9.53138095,13.3333333 L11.4361429,13.3333333 C11.9618571,13.3333333 12.3885238,12.9066667 12.3885238,12.3809524 L12.3885238,11.162381 C12.3885238,10.7528571 12.1261429,10.3885714 11.7370952,10.2590476 L9.23042857,9.74095238 C8.84138095,9.61142857 8.579,9.24714286 8.579,8.83761905 L8.579,7.61904762 C8.579,7.09333333 9.00566667,6.66666667 9.53138095,6.66666667 L11.4361429,6.66666667 C11.9618571,6.66666667 12.3885238,7.09333333 12.3885238,7.61904762 L12.3885238,8.57142857" id="Stroke-1"></path>
                <path d="M10.4837619,6.66666667 L10.4837619,4.76190476" id="Stroke-3"></path>
                <path d="M10.4837619,13.3333333 L10.4837619,15.2380952" id="Stroke-5"></path>
                <path d="M6.196,16.268381 C4.72266667,15.128381 3.77409524,13.3426667 3.77409524,11.3355238 C3.77409524,10.3202857 4.03314286,9.34552381 4.46409524,8.49885714 L5.72171429,9.52361905 L6.31695238,2.79742857 L0.0217142857,4.91885714 L1.33838095,5.98171429 C0.79647619,7.21219048 0.483619048,8.56933333 0.483619048,9.99980952 C0.483619048,15.5226667 4.9607619,19.9998095 10.483619,19.9998095" id="Stroke-7"></path>
                <path d="M14.7855238,3.73161905 C16.2588571,4.87161905 17.2074286,6.65733333 17.2074286,8.66447619 C17.2074286,9.67971429 16.948381,10.6544762 16.5174286,11.5011429 L15.2598095,10.476381 L14.6645714,17.2025714 L20.9598095,15.0811429 L19.6431429,14.0182857 C20.1850476,12.7878095 20.4979048,11.4306667 20.4979048,10.0001905 C20.4979048,4.47733333 16.0207619,0.00019047619 10.4979048,0.00019047619" id="Stroke-9"></path>
            </g>
        </g>
    </g>
</svg>