<?xml version="1.0" encoding="UTF-8"?>
<svg width="15px" height="14px" viewBox="0 0 15 14" version="1.1" xmlns="http://www.w3.org/2000/svg" xmlns:xlink="http://www.w3.org/1999/xlink">
    <!-- Generator: Sketch 53.2 (72643) - https://sketchapp.com -->
    <title>exchange</title>
    <desc>Created with Sketch.</desc>
    <g id="Exchange" stroke="none" stroke-width="1" fill="none" fill-rule="evenodd">
        <g id="Exchange-load-1" transform="translate(-180.000000, -599.000000)" fill="#FFFFFF" fill-rule="nonzero">
            <g id="exchange" transform="translate(180.000000, 599.000000)">
                <path d="M14.4666821,8.8664339 L3.73351044,8.8664339 L3.73351044,7.46645499 C3.73351044,7.27792449 3.61964549,7.10712707 3.44511478,7.03526148 C3.27058408,6.9633959 3.07085375,7.00352863 2.93645578,7.13605996 L0.136497944,9.9360178 C-0.0454993148,10.1180151 -0.0454993148,10.4138773 0.136497944,10.5958745 L2.93645578,13.3958324 C3.07085375,13.529297 3.27058408,13.5694297 3.44511478,13.4975642 C3.61964549,13.4256986 3.73351044,13.2549011 3.73351044,13.0663707 L3.73351044,11.6663917 L14.4666821,11.6663917 C14.7242782,11.6663917 14.9333418,11.4573282 14.9333418,11.1997321 L14.9333418,9.33309354 C14.9333418,9.0745641 14.7242782,8.8664339 14.4666821,8.8664339 Z" id="Path-Copy" fill-opacity="0.5"></path>
                <path d="M14.7968438,2.93757126 L11.996886,0.136680105 C11.8634213,0.00321544859 11.6627577,-0.0369172803 11.488227,0.0358816233 C11.3136963,0.108680527 11.1998313,0.278544635 11.1998313,0.467075129 L11.1998313,1.86705405 L0.466659639,1.86705405 C0.209063518,1.86705405 1.27009514e-13,2.07611756 1.27009514e-13,2.33371368 L1.27009514e-13,4.20035224 C1.27009514e-13,4.45794836 0.209063518,4.66701188 0.466659639,4.66701188 L11.1998313,4.66701188 L11.1998313,6.06699079 C11.1998313,6.25552129 11.3136963,6.42631872 11.488227,6.4981843 C11.6627577,6.5709832 11.8634213,6.53085047 11.996886,6.39738582 L14.7968438,3.59742799 C14.9788411,3.41543073 14.9788411,3.11956852 14.7968438,2.93757126 Z" id="Path-Copy-2"></path>
            </g>
        </g>
    </g>
</svg>