<svg width="25" height="23" viewBox="0 0 25 23" fill="none" xmlns="http://www.w3.org/2000/svg">
<g filter="url(#filter0_i)">
<path d="M4.5 6.5C3.4 6.5 2.5 5.6 2.5 4.5C2.5 3.4 3.4 2.5 4.5 2.5H20.5V4.5H22.5V0.5H4.5C2.3 0.5 0.5 2.3 0.5 4.5V17.5C0.5 20.3 2.7 22.5 5.5 22.5H24.5V6.5H4.5ZM22.5 20.5H5.5C3.8 20.5 2.5 19.2 2.5 17.5V7.9C3.1 8.3 3.8 8.5 4.5 8.5H22.5V20.5ZM16.5 16.5C17.6 16.5 18.5 15.6 18.5 14.5C18.5 13.4 17.6 12.5 16.5 12.5C15.4 12.5 14.5 13.4 14.5 14.5C14.5 15.6 15.4 16.5 16.5 16.5Z" fill="#78808D"/>
</g>
<defs>
<filter id="filter0_i" x="0.5" y="0.5" width="24" height="23" filterUnits="userSpaceOnUse" color-interpolation-filters="sRGB">
<feFlood flood-opacity="0" result="BackgroundImageFix"/>
<feBlend mode="normal" in="SourceGraphic" in2="BackgroundImageFix" result="shape"/>
<feColorMatrix in="SourceAlpha" type="matrix" values="0 0 0 0 0 0 0 0 0 0 0 0 0 0 0 0 0 0 127 0" result="hardAlpha"/>
<feOffset dy="1"/>
<feGaussianBlur stdDeviation="1"/>
<feComposite in2="hardAlpha" operator="arithmetic" k2="-1" k3="1"/>
<feColorMatrix type="matrix" values="0 0 0 0 0.352941 0 0 0 0 0.396078 0 0 0 0 0.443137 0 0 0 0.25 0"/>
<feBlend mode="normal" in2="shape" result="effect1_innerShadow"/>
</filter>
</defs>
</svg>
