<?xml version="1.0" encoding="UTF-8"?>
<svg width="126px" height="136px" viewBox="0 0 126 136" version="1.1" xmlns="http://www.w3.org/2000/svg" xmlns:xlink="http://www.w3.org/1999/xlink">
    <!-- Generator: Sketch 53.2 (72643) - https://sketchapp.com -->
    <title>seed</title>
    <desc>Created with Sketch.</desc>
    <g id="Setting" stroke="none" stroke-width="1" fill="none" fill-rule="evenodd">
        <g id="Settings---View-Seed-Step-1" transform="translate(-122.000000, -130.000000)">
            <g id="seed" transform="translate(122.000000, 130.650785)">
                <g id="Group-5" transform="translate(0.000000, 30.349215)">
                    <path d="M49.2102922,4.15522537 L61.1496282,4.15522537 C67.0947713,4.15522537 71.9315549,8.92874827 71.9315549,14.796342 L71.9315549,18.4242693 L59.9922189,18.4242693 C54.0470758,18.4242693 49.2102922,13.6507464 49.2102922,7.7833604 L49.2102922,4.15522537 Z M83.5085954,22.5794947 L93.7897078,22.5794947 L93.7897078,26.1074888 C93.7897078,30.1162424 90.484839,33.3776788 86.4229596,33.3776788 L76.1420576,33.3776788 L76.1420576,29.8498925 C76.1420576,25.840931 79.446716,22.5794947 83.5085954,22.5794947 L83.5085954,22.5794947 Z M59.9922189,22.5794947 L71.9315549,22.5794947 L71.9315549,29.8498925 L71.9315549,35.4552915 L71.9315549,43.6404622 C71.3762174,43.6053505 70.8177222,43.5860287 70.2564902,43.5860287 C64.7237453,43.5860287 59.4345657,45.2693105 54.9609198,48.4536675 C54.0182353,49.1247364 53.8047735,50.4232443 54.4851567,51.3540148 C55.1653294,52.2847853 56.4810457,52.4954552 57.4239407,51.823763 C61.1759425,49.1531997 65.61338,47.7414619 70.2564902,47.7414619 C71.3787436,47.7414619 72.4881556,47.8291371 73.5779897,47.9938918 C73.6683005,48.0136291 73.7607164,48.0277569 73.8550269,48.0358596 C80.406031,49.1108164 86.1989721,53.0803032 89.4823684,58.9289907 C89.8667681,59.613564 90.5850439,60 91.3258448,60 C91.6706678,60 92.0207536,59.9160644 92.3438935,59.7392596 C93.3611001,59.1830827 93.7286586,57.9184399 93.165111,56.9147452 C89.5221557,50.426153 83.2858709,45.8801287 76.1418471,44.2508648 L76.1418471,37.5329042 L86.4229596,37.5329042 C92.8066046,37.5329042 98,32.4074337 98,26.1074888 L98,20.501882 C98,19.3546242 97.0575261,18.4242693 95.8948539,18.4242693 L83.5085954,18.4242693 C80.7125403,18.4242693 78.1446831,19.4078111 76.1420576,21.0424768 L76.1420576,20.501882 L76.1420576,14.796342 C76.1420576,6.63734924 69.4163264,0 61.1496282,0 L47.1051461,0 C45.9424739,0 45,0.93035496 45,2.07761268 L45,7.7833604 C45,15.9421454 51.7253102,22.5794947 59.9922189,22.5794947 L59.9922189,22.5794947 Z" id="Fill-1" fill="#41EAD4"></path>
                    <path d="M28.5147131,86.8235731 C28.4070859,87.1025388 28.1978922,87.3227306 27.9253761,87.4434268 C27.8921475,87.4579104 27.8595459,87.4738632 27.8271533,87.4902359 L4.17969468,99.4889069 L4.17969468,90.3002532 L10.3610452,87.2513624 C11.3971915,86.7402403 11.8247742,85.4822711 11.3158964,84.4415551 C10.8070186,83.400839 9.55415509,82.9715804 8.51863574,83.4829124 L4.17969468,85.6231183 L4.17969468,67.2917805 L16.6535755,61.801678 C16.9260916,61.6809818 17.2291195,61.673845 17.5066512,61.7817369 C17.7843919,61.8898387 18.0036169,62.100165 18.1239921,62.3738829 L27.954216,84.735424 C27.955052,84.7375231 27.9558879,84.7392024 27.9567238,84.7413014 L28.4952775,85.9663153 C28.6154437,86.2402432 28.6223402,86.5446075 28.5147131,86.8235731 M106.302593,67.4439627 C104.478365,63.2945325 99.633681,61.4102025 95.5026798,63.2412163 C95.4922305,63.2458342 95.4817813,63.2506621 95.471541,63.25528 L81.8171055,69.5801803 C80.768838,70.0656939 80.3111615,71.312538 80.7943342,72.3654287 C81.2777159,73.4183193 82.5192942,73.8778044 83.5673526,73.3927107 L97.2050694,67.0757868 C99.2244889,66.189352 101.587688,67.1127303 102.478799,69.1397967 C103.371791,71.1714809 102.452676,73.5539188 100.430122,74.4510589 L72.487609,86.8428845 C68.0600584,88.8065591 63.0346025,88.6925799 58.6994232,86.5290744 L48.4708743,81.4249899 C43.0205525,78.7052323 36.701481,78.5618663 31.1347547,81.0303658 L30.9337114,81.1197859 L23.2894678,63.7298784 L33.9023395,59.0233566 C38.9583072,56.7811362 44.5998501,56.6004068 49.7876871,58.5137038 L70.3565916,66.1005616 C72.2330656,66.7928329 73.2332665,68.901343 72.5862498,70.801206 C71.9269029,72.7373828 69.8203368,73.7785187 67.8909897,73.1231908 L51.9851616,67.7195698 C50.8915445,67.3482453 49.7055561,67.9372428 49.3356532,69.0356831 C48.9657502,70.1337036 49.5525793,71.3251324 50.6457785,71.6966668 L66.5518156,77.1002878 C67.3844107,77.3832417 68.2328888,77.5175818 69.0677828,77.5175818 C72.3484251,77.5175818 75.4227996,75.4432865 76.5410769,72.16056 C77.9176593,68.1190217 75.7895678,63.6329017 71.7975414,62.1601982 L51.2288459,54.5731305 C45.0190735,52.2828416 38.2663587,52.499465 32.2143698,55.1829087 L21.5329511,59.9198669 C20.93212,58.9925004 20.0646243,58.2752501 19.0174018,57.8674019 C17.6987082,57.3541807 16.2598483,57.3877658 14.9714574,57.9589211 L1.25098262,63.9972992 C0.491114125,64.3321 0,65.0865036 0,65.920042 L0,102.900936 C0,103.629941 0.376590491,104.306679 0.994767335,104.688919 C1.32956088,104.895677 1.70907716,105 2.08984734,105 C2.4121018,105 2.73498322,104.925273 3.03195052,104.77477 L29.6691447,91.2588959 C30.9358012,90.6801838 31.9086252,89.6455551 32.4120694,88.340147 C32.8315017,87.2528318 32.8841659,86.0842827 32.5736146,84.9816443 L32.8227244,84.8710236 C37.2506929,82.9075589 42.2761488,83.0221678 46.6111192,85.1850436 L56.839668,90.2891282 C62.2897809,93.0090956 68.6086433,93.1526716 74.1757876,90.6835423 L102.118509,78.2917167 C106.249511,76.4594435 108.126194,71.592973 106.302593,67.4439627" id="Fill-3" fill="#FFFFFF"></path>
                </g>
                <g id="Group-2" transform="translate(102.019684, 22.500000) rotate(13.000000) translate(-102.019684, -22.500000) translate(75.019684, 6.000000)" stroke="#FFFFFF" stroke-width="3">
                    <path d="M0.5,9.233 L0.5,8.52651283e-14" id="Stroke-34"></path>
                    <path d="M14,10.983 L16.137,2" id="Stroke-36"></path>
                    <path d="M27,15.181 L31.28,7" id="Stroke-38"></path>
                    <path d="M38,22.953 L44.076,16" id="Stroke-40"></path>
                    <path d="M46,32.416 L53.478,27" id="Stroke-42"></path>
                </g>
            </g>
        </g>
    </g>
</svg>