<?xml version="1.0" encoding="UTF-8"?>
<svg width="168px" height="170px" viewBox="0 0 168 170" version="1.1" xmlns="http://www.w3.org/2000/svg" xmlns:xlink="http://www.w3.org/1999/xlink">
    <!-- Generator: Sketch 53.2 (72643) - https://sketchapp.com -->
    <title>Welcome-wallet</title>
    <desc>Created with Sketch.</desc>
    <defs>
        <polygon id="path-1" points="0.0564949495 0.284191919 0.915080808 0.284191919 0.915080808 3.39433333 0.0564949495 3.39433333"></polygon>
        <polygon id="path-3" points="0.858585859 0.429292929 1.28787879 0.429292929 1.28787879 0.858585859 0.858585859 0.858585859"></polygon>
    </defs>
    <g id="Setup" stroke="none" stroke-width="1" fill="none" fill-rule="evenodd">
        <g id="Create-Wallet-landing" transform="translate(-105.000000, -141.000000)">
            <g id="Welcome-wallet" transform="translate(105.000000, 141.000000)">
                <path d="M73.5292929,113.060646 C73.5292929,123.920899 64.7244949,132.725697 53.8642424,132.725697 C43.0031313,132.725697 34.1983333,123.920899 34.1983333,113.060646 C34.1983333,102.199535 43.0031313,93.395596 53.8642424,93.395596 C64.7244949,93.395596 73.5292929,102.199535 73.5292929,113.060646" id="Fill-1" fill="#1E2938"></path>
                <g id="Group-33" transform="translate(2.575758, 4.008737)" opacity="0.15" stroke="#FFFFFF" stroke-width="4">
                    <path d="M3.35707071,105.016384 C1.17282828,97.6651717 0,89.8795152 0,81.8191111 C0,42.9749697 27.2369192,10.4929495 63.654697,2.4299697" id="Stroke-3"></path>
                    <path d="M128.548419,148.01153 C115.234328,157.529813 98.9272071,163.131227 81.311601,163.131227 C53.6179141,163.131227 29.156803,149.285672 14.4741263,128.139561" id="Stroke-5"></path>
                    <path d="M160.880788,98.6457626 C157.915232,112.739449 151.300687,125.488591 142.07003,135.858591" id="Stroke-7"></path>
                    <path d="M115.18496,7.87675253 C143.180869,20.7220556 162.623545,49.0004394 162.623545,81.8190253" id="Stroke-9"></path>
                    <path d="M81.3119444,0.507080808 C87.267096,0.507080808 93.0719949,1.14758586 98.6622475,2.36248485" id="Stroke-11"></path>
                    <path d="M39.2076667,136.947192 C22.6369596,124.271889 11.9475657,104.293455 11.9475657,81.8191111 C11.9475657,71.7736566 14.0828687,62.2270404 17.9250404,53.6085556" id="Stroke-13"></path>
                    <path d="M133.307475,127.731646 C120.597828,142.113818 102.014596,151.183061 81.3115152,151.183061 C72.0920202,151.183061 63.2923737,149.384323 55.2448485,146.118263" id="Stroke-15"></path>
                    <path d="M145.614444,55.7592273 C148.877929,63.8050354 150.676667,72.6021061 150.676667,81.8190253 C150.676667,95.3932677 146.77697,108.057409 140.037071,118.751096" id="Stroke-17"></path>
                    <path d="M130.974096,33.3932374 C133.932783,36.4266212 136.615005,39.7304596 138.982126,43.2635404" id="Stroke-19"></path>
                    <path d="M25.7947525,40.2288687 C38.4477323,23.3645253 58.6056111,12.4553333 81.3117727,12.4553333 C95.6776313,12.4553333 109.02349,16.822101 120.094096,24.3012424" id="Stroke-21"></path>
                    <path d="M48.993399,33.8875253 C58.218904,27.6550505 69.3410253,24.0155051 81.3122879,24.0155051" id="Stroke-23"></path>
                    <path d="M25.0971515,95.3342828 C24.0591212,90.9984242 23.5087677,86.4736768 23.5087677,81.8192828 C23.5087677,67.4396869 28.7590202,54.2870101 37.4470505,44.1728687" id="Stroke-25"></path>
                    <path d="M100.350056,136.414354 C94.3888939,138.49299 87.9821263,139.62203 81.3117727,139.62203 C59.484803,139.62203 40.4834394,127.524556 30.6474798,109.668545" id="Stroke-27"></path>
                    <path d="M131.584465,110.368722 C127.275222,117.939732 121.305475,124.442662 114.170626,129.381247" id="Stroke-29"></path>
                    <path d="M100.520657,27.283798 C123.002727,35.2025354 139.115808,56.629404 139.115808,81.8194545 C139.115808,86.6567273 138.520808,91.3557677 137.402071,95.8461717" id="Stroke-31"></path>
                </g>
                <path d="M92.0806717,27.0633131 L92.0806717,19.1359899" id="Stroke-34" stroke="#41EAD4" stroke-width="4"></path>
                <path d="M103.370646,28.3876818 L105.205444,20.6750051" id="Stroke-36" stroke="#41EAD4" stroke-width="4"></path>
                <path d="M114.700803,32.623601 L118.375551,25.5995101" id="Stroke-38" stroke="#41EAD4" stroke-width="4"></path>
                <path d="M124.186288,39.114596 L129.403056,33.1448485" id="Stroke-40" stroke="#41EAD4" stroke-width="4"></path>
                <path d="M131.597429,47.2358737 L138.017934,42.5857727" id="Stroke-42" stroke="#41EAD4" stroke-width="4"></path>
                <g id="Group-46" transform="translate(42.929293, 0.574394)">
                    <path d="M0.485787879,3.39433333 L0.485787879,0.283676768" id="Stroke-44" stroke="#41EAD4" stroke-width="4"></path>
                    <mask id="mask-2" fill="white">
                        <use xlink:href="#path-1"></use>
                    </mask>
                    <g id="Clip-45"></g>
                </g>
                <path d="M34.5399646,6.15039394 L33.0975404,3.39433333" id="Stroke-47" stroke="#41EAD4" stroke-width="4"></path>
                <path d="M27.9102222,11.8837727 L25.3911313,10.0592778" id="Stroke-49" stroke="#41EAD4" stroke-width="4"></path>
                <path d="M125.995672,76.1842121 L125.995672,105.906737 L108.373197,105.906737 C104.682995,105.88098 101.698551,102.893101 101.677086,99.202899 L101.677086,82.843404 C101.701985,79.1617879 104.691581,76.1885051 108.373197,76.1842121 L125.995672,76.1842121 Z M119.443803,123.157444 L73.8297121,123.157444 C75.4120859,120.247697 76.3067323,116.685424 76.3067323,113.019263 C76.3127424,100.788707 66.403803,90.8677475 54.1723889,90.8600202 C50.7449141,90.8548687 47.3646616,91.6645152 44.3106717,93.2202727 L44.3106717,65.4596162 C44.3106717,61.7917374 47.2058232,58.7248687 50.8728434,58.7248687 L119.442086,58.7248687 C123.109965,58.7248687 125.995672,61.7908788 125.995672,65.4596162 L125.995672,72.8580505 L108.373197,72.8580505 C102.855066,72.8649192 98.378399,77.3252727 98.3517828,82.843404 L98.3517828,99.202899 C98.3749646,104.728758 102.847338,109.204566 108.373197,109.23204 L125.995672,109.23204 L125.995672,116.589263 C126.011985,118.333909 125.327692,120.011586 124.095621,121.247091 C122.864409,122.480879 121.186732,123.170323 119.443803,123.157444 L119.443803,123.157444 Z M54.128601,131.914162 C43.7165303,131.914162 35.2740556,123.473404 35.2740556,113.060475 C35.2740556,102.648404 43.7165303,94.2067879 54.128601,94.2067879 C64.5415303,94.2067879 72.9822879,102.648404 72.9822879,113.060475 C72.9711263,123.468253 64.5355202,131.903 54.128601,131.914162 L54.128601,131.914162 Z M88.6222879,41.4338081 L92.0274394,46.2796667 L72.8028434,55.3995657 L68.6043586,55.3995657 L88.6222879,41.4338081 Z M112.256581,55.3995657 L80.5481465,55.3995657 L106.411328,43.1037576 L112.256581,55.3995657 Z M119.443803,55.3995657 L115.938197,55.3995657 L108.69946,40.2146162 C108.509712,39.8188081 108.167995,39.5157273 107.751581,39.3714848 C107.336884,39.228101 106.880975,39.2555758 106.485167,39.4470404 L95.0728434,44.8827475 L90.3944091,38.2012323 C90.1411263,37.8406263 89.7556212,37.5950707 89.3211768,37.5195152 C88.8918838,37.4285051 88.4445606,37.5126465 88.0779444,37.7547677 L62.8020354,55.3995657 L50.8728434,55.3995657 C45.3710253,55.3995657 40.9853687,59.9560808 40.9853687,65.4596162 L40.9853687,95.2705758 C35.3736515,99.3188081 31.9942576,105.786535 31.9942576,113.060475 C32.0002677,125.29103 41.9195101,135.202545 54.1500657,135.199111 C61.0548131,135.24204 67.5697626,132.008606 71.7098636,126.482747 L119.443803,126.482747 C122.069359,126.494768 124.591025,125.45502 126.445571,123.59704 C128.301833,121.738202 129.336429,119.214818 129.320975,116.589263 L129.320975,65.4596162 C129.320975,59.9560808 124.943904,55.3995657 119.443803,55.3995657 L119.443803,55.3995657 Z" id="Fill-51" fill="#FFFFFF"></path>
                <path d="M111.449596,88.8420859 C112.655051,88.8420859 113.632121,89.818298 113.632121,91.0246111 C113.632121,92.2283485 112.655051,93.2062778 111.449596,93.2062778 C110.244141,93.2062778 109.267071,92.2283485 109.267071,91.0246111 C109.267929,89.8191566 110.245,88.843803 111.449596,88.8420859 M105.940909,91.0246111 C105.940909,94.0665808 108.407626,96.5324394 111.449596,96.5324394 C114.491566,96.5324394 116.957424,94.0665808 116.957424,91.0246111 C116.957424,87.9826414 114.491566,85.5159242 111.449596,85.5159242 C108.409343,85.5193586 105.944343,87.9835 105.940909,91.0246111" id="Fill-53" fill="#41EAD4"></path>
                <g id="Group-57" transform="translate(0.000000, 167.998636)">
                    <mask id="mask-4" fill="white">
                        <use xlink:href="#path-3"></use>
                    </mask>
                    <g id="Clip-56"></g>
                    <path d="" id="Fill-55" fill="#000000" mask="url(#mask-4)"></path>
                </g>
                <path d="M53.8635556,126.704949 C46.6162323,126.704949 40.7203232,120.808182 40.7203232,113.560859 C40.7203232,106.313535 46.6162323,100.417626 53.8635556,100.417626 C54.8835556,100.417626 55.9095657,100.537828 56.9115354,100.776515 C57.6688081,100.956818 58.1367374,101.716667 57.9572929,102.473939 C57.7769899,103.231212 57.018,103.699141 56.2598687,103.519697 C55.4708283,103.331667 54.6646162,103.237222 53.8635556,103.237222 C48.1711313,103.237222 43.5390606,107.868434 43.5390606,113.560859 C43.5390606,119.254141 48.1711313,123.885354 53.8635556,123.885354 C59.5568384,123.885354 64.1889091,119.254141 64.1889091,113.560859 C64.1889091,112.758939 64.0936061,111.950152 63.9047172,111.160253 C63.7244141,110.40298 64.1923434,109.642273 64.9496162,109.46197 C65.7068889,109.281667 66.4667374,109.749596 66.647899,110.506869 C66.8865859,111.511414 67.0076465,112.539141 67.0076465,113.560859 C67.0076465,120.808182 61.1108788,126.704949 53.8635556,126.704949" id="Fill-58" fill="#41EAD4"></path>
                <path d="M63.4749091,103.947444 C62.6549596,103.127495 61.3267273,103.127495 60.5067778,103.947444 C60.4887475,103.965475 60.4758687,103.986939 60.4578384,104.005828 C60.129,104.359566 59.9401111,104.797444 59.9014747,105.249061 L59.9014747,105.251636 C59.9014747,105.324616 59.8980404,105.398455 59.8946061,105.473152 C59.8911717,105.524667 59.8834444,105.575323 59.8791515,105.62598 C59.7958687,106.458808 59.4378384,107.269313 58.8007677,107.907242 C57.8468788,108.860273 56.5109192,109.19598 55.2865758,108.910929 C55.1912727,108.888606 55.0976869,108.862848 55.0049596,108.832798 C54.6048586,108.736636 54.1961717,108.691131 53.7874848,108.697141 C52.6292525,108.714313 51.4804646,109.151333 50.5695051,109.99103 C50.5214242,110.035677 50.4690505,110.073455 50.4218283,110.120677 C49.7830404,110.760323 49.3631919,111.533051 49.1545556,112.349566 C48.7415758,113.960273 49.1605657,115.739263 50.4218283,117.000525 C51.8170303,118.396586 53.8501616,118.761485 55.5845051,118.105525 C56.2095556,117.868556 56.7968283,117.502798 57.2999596,116.998808 C57.5068788,116.791889 57.6828889,116.566939 57.8451616,116.335121 C58.6522323,115.176889 58.9063737,113.749919 58.5895556,112.42598 C58.5603636,112.337545 58.5380404,112.24997 58.5165758,112.160677 C58.514,112.147798 58.5088485,112.134919 58.5054141,112.12204 C58.2263737,110.901131 58.5620808,109.569465 59.5125354,108.61901 C60.1650606,107.966485 60.9987475,107.606737 61.8504646,107.535475 C61.8779394,107.532899 61.9054141,107.527747 61.9337475,107.52603 C62.0127374,107.520879 62.0917273,107.518303 62.1707172,107.518303 L62.1896061,107.518303 C62.6592525,107.474515 63.1151616,107.272747 63.4740505,106.913859 C63.5581919,106.828859 63.6294545,106.735273 63.6964242,106.640828 C64.279404,105.820879 64.2081414,104.680677 63.4749091,103.947444" id="Fill-60" fill="#41EAD4"></path>
            </g>
        </g>
    </g>
</svg>