<?xml version="1.0" encoding="UTF-8"?>
<svg width="24px" height="24px" viewBox="0 0 24 24" version="1.1" xmlns="http://www.w3.org/2000/svg" xmlns:xlink="http://www.w3.org/1999/xlink">
    <!-- Generator: Sketch 53.2 (72643) - https://sketchapp.com -->
    <title>settings-green</title>
    <desc>Created with Sketch.</desc>
    <g id="Symbols" stroke="none" stroke-width="1" fill="none" fill-rule="evenodd" stroke-linejoin="round">
        <g id="menu/settings" transform="translate(-315.000000, -12.000000)" stroke="#41EAD4">
            <g id="setting" transform="translate(300.000000, 13.000000)">
                <g id="settings-green" transform="translate(15.000000, 0.000000)">
                    <path d="M3.97130556,8.822 C4.13936111,8.23838889 4.36852778,7.6725 4.67163889,7.13716667 L3.23430556,5.37411111 C2.83830556,4.88827778 2.87375,4.18061111 3.31741667,3.73755556 L4.34836111,2.706 C4.79202778,2.26294444 5.49908333,2.22688889 5.98491667,2.62288889 L7.74797222,4.06022222 L7.74919444,4.05777778 C8.28025,3.76444444 8.84308333,3.52611111 9.43525,3.36111111 L9.66563889,1.09816667 C9.72919444,0.474222222 10.25475,0 10.88175,0 L12.3404722,0 C12.9674722,0 13.4930278,0.474222222 13.5565833,1.09816667 L13.7869722,3.36111111 L13.7888056,3.35988889 C14.3724167,3.52855556 14.9383056,3.75772222 15.47425,4.06022222 L17.2373056,2.62288889 C17.7231389,2.22688889 18.4301944,2.26294444 18.8738611,2.706 L19.9048056,3.73755556 C20.3484722,4.18061111 20.3839167,4.88827778 19.9879167,5.37411111 L18.5505833,7.13716667 L18.5530278,7.13777778 C18.8463611,7.66944444 19.0846944,8.23166667 19.2496944,8.82444444 L21.5126389,9.05483333 C22.1365833,9.11838889 22.6108056,9.64394444 22.6108056,10.2709444 L22.6108056,11.7290556 C22.6108056,12.3560556 22.1365833,12.8816111 21.5126389,12.9451667 L19.2496944,13.1755556 L19.2509167,13.178 C19.0828611,13.7616111 18.8536944,14.3275 18.5505833,14.8628333 L19.9879167,16.6258889 C20.3839167,17.1117222 20.3484722,17.8193889 19.9048056,18.2624444 L18.8738611,19.294 C18.4301944,19.7370556 17.7231389,19.7731111 17.2373056,19.3765 L15.47425,17.9397778 L15.4730278,17.9422222 C14.9419722,18.2355556 14.3791389,18.4738889 13.7869722,18.6388889 L13.5565833,20.9018333 C13.4930278,21.5257778 12.9674722,22 12.3404722,22 L10.88175,22 C10.25475,22 9.72919444,21.5257778 9.66563889,20.9018333 L9.43525,18.6388889 L9.43341667,18.6395 C8.84980556,18.4714444 8.28391667,18.2422778 7.74797222,17.9397778 L5.98491667,19.3765 C5.49908333,19.7731111 4.79202778,19.7370556 4.34836111,19.294 L3.31741667,18.2624444 C2.87375,17.8193889 2.83830556,17.1117222 3.23430556,16.6258889 L4.67163889,14.8628333 L4.66919444,14.8622222 C4.37586111,14.3305556 4.13691667,13.7683333 3.97191667,13.1755556 L1.70958333,12.9451667 C1.08563889,12.8816111 0.610805556,12.3560556 0.610805556,11.7290556 L0.610805556,10.2709444 C0.610805556,9.64394444 1.08563889,9.11838889 1.70958333,9.05483333 L3.97191667,8.82444444 L3.97130556,8.822 Z" id="Stroke-1"></path>
                    <path d="M15.2777778,11 C15.2777778,8.97538889 13.6357222,7.33333333 11.6111111,7.33333333 C9.5865,7.33333333 7.94444444,8.97538889 7.94444444,11 C7.94444444,13.0246111 9.5865,14.6666667 11.6111111,14.6666667 C13.6357222,14.6666667 15.2777778,13.0246111 15.2777778,11 Z" id="Stroke-3"></path>
                </g>
            </g>
        </g>
    </g>
</svg>