<?xml version="1.0" encoding="UTF-8"?>
<svg width="26px" height="22px" viewBox="0 0 26 22" version="1.1" xmlns="http://www.w3.org/2000/svg" xmlns:xlink="http://www.w3.org/1999/xlink">
    <!-- Generator: Sketch 53.2 (72643) - https://sketchapp.com -->
    <title>amount</title>
    <desc>Created with Sketch.</desc>
    <g id="Dashboards" stroke="none" stroke-width="1" fill="none" fill-rule="evenodd">
        <g id="Send-Review" transform="translate(-32.000000, -208.000000)" stroke="#FFFFFF">
            <g id="amount" transform="translate(33.000000, 209.000000)">
                <path d="M16.4102564,0 C12.4451282,0 9.23076923,1.14769231 9.23076923,2.56410256 C9.23076923,3.98051282 12.4451282,5.12820513 16.4102564,5.12820513 C20.3753846,5.12820513 23.5897436,3.98051282 23.5897436,2.56410256 C23.5897436,1.14769231 20.3753846,0 16.4102564,0" id="Fill-1"></path>
                <path d="M23.5897436,2.56410256 L23.5897436,5.12820513 C23.5897436,6.54410256 20.3753846,7.69230769 16.4102564,7.69230769 C15.6112821,7.69230769 14.8435897,7.64564103 14.1261538,7.56" id="Fill-3"></path>
                <path d="M22.9907692,6.15384615 C23.3758974,6.46820513 23.5897436,6.81538462 23.5897436,7.18051282 L23.5897436,7.69333333 C23.5897436,9.10974359 20.3753846,10.2574359 16.4102564,10.2574359 C16.0841026,10.2574359 15.7625641,10.2497436 15.4482051,10.2348718" id="Fill-5"></path>
                <path d="M22.9907692,8.71794872 C23.3758974,9.03230769 23.5897436,9.37948718 23.5897436,9.74461538 L23.5897436,10.2574359 C23.5897436,11.6738462 20.3753846,12.8215385 16.4102564,12.8215385 C16.2235897,12.8215385 16.0379487,12.8189744 15.8548718,12.8138462" id="Fill-7"></path>
                <path d="M22.9907692,11.2820513 C23.3758974,11.5964103 23.5897436,11.9435897 23.5897436,12.3087179 L23.5897436,12.8215385 C23.5897436,14.2379487 20.3753846,15.385641 16.4102564,15.385641 C16.1138462,15.385641 15.8210256,15.3794872 15.5338462,15.3666667" id="Fill-9"></path>
                <path d="M22.9907692,13.8461538 C23.3758974,14.1605128 23.5897436,14.5076923 23.5897436,14.8728205 L23.5897436,15.385641 C23.5897436,16.8020513 20.3753846,17.9497436 16.4102564,17.9497436 C15.6471795,17.9497436 14.9117949,17.9071795 14.2215385,17.8287179" id="Fill-11"></path>
                <path d="M14.3589744,12.8205128 C14.3589744,16.785641 11.1446154,20 7.17948718,20 C3.21435897,20 0,16.785641 0,12.8205128 C0,8.85538462 3.21435897,5.64102564 7.17948718,5.64102564 C11.1446154,5.64102564 14.3589744,8.85538462 14.3589744,12.8205128" id="Fill-13"></path>
                <path d="M5.64102564,14.3589744 L5.64102564,14.8717949 C5.64102564,15.4379487 6.10051282,15.8974359 6.66666667,15.8974359 L7.69230769,15.8974359 C8.25846154,15.8974359 8.71794872,15.4379487 8.71794872,14.8717949 L8.71794872,14.0723077 C8.71794872,13.6312821 8.43538462,13.2389744 8.01692308,13.0994872 L6.34205128,12.5415385 C5.92358974,12.4020513 5.64102564,12.0097436 5.64102564,11.5687179 L5.64102564,11.2820513 C5.64102564,10.7158974 6.10051282,10.2564103 6.66666667,10.2564103 L7.69230769,10.2564103 C8.25846154,10.2564103 8.71794872,10.7158974 8.71794872,11.2820513 L8.71794872,11.7948718" id="Fill-15"></path>
                <path d="M7.17948718,10.2564103 L7.17948718,8.71794872" id="Fill-17"></path>
                <path d="M7.17948718,15.8974359 L7.17948718,17.4358974" id="Fill-19"></path>
                <path d="M9.23076923,2.56410256 L9.23076923,4.1025641" id="Fill-21"></path>
            </g>
        </g>
    </g>
</svg>