<?xml version="1.0" encoding="UTF-8"?>
<svg width="86px" height="32px" viewBox="0 0 86 32" version="1.1" xmlns="http://www.w3.org/2000/svg" xmlns:xlink="http://www.w3.org/1999/xlink">
    <!-- Generator: Sketch 53.2 (72643) - https://sketchapp.com -->
    <title>switch</title>
    <desc>Created with Sketch.</desc>
    <g id="Exchange" stroke="none" stroke-width="1" fill="none" fill-rule="evenodd">
        <g id="Trade-details" transform="translate(-145.000000, -266.000000)">
            <g id="switch" transform="translate(145.000000, 266.000000)">
                <rect id="Background" stroke="#41EAD4" x="0.5" y="0.5" width="85" height="31" rx="15.5"></rect>
                <g transform="translate(42.500000, 16.000000) rotate(90.000000) translate(-42.500000, -16.000000) translate(34.500000, 8.500000)" fill-rule="nonzero" id="Path">
                    <path d="M14.9326162,1.8664339 L4.19944452,1.8664339 L4.19944452,0.466454987 C4.19944452,0.277924493 4.08557956,0.107127065 3.91104886,0.0352614809 C3.73651815,-0.0366041035 3.53678783,0.00352862548 3.40238985,0.136059963 L0.602432021,2.9360178 C0.420434762,3.11801505 0.420434762,3.41387727 0.602432021,3.59587452 L3.40238985,6.39583236 C3.53678783,6.52929701 3.73651815,6.56942974 3.91104886,6.49756416 C4.08557956,6.42569857 4.19944452,6.25490115 4.19944452,6.06637065 L4.19944452,4.66639174 L14.9326162,4.66639174 C15.1902123,4.66639174 15.3992758,4.45732822 15.3992758,4.1997321 L15.3992758,2.33309354 C15.3992758,2.0745641 15.1902123,1.8664339 14.9326162,1.8664339 Z" fill="#FFFFFF"></path>
                    <path d="M14.7968438,10.4043588 L11.996886,7.60346765 C11.8634213,7.470003 11.6627577,7.42987027 11.488227,7.50266917 C11.3136963,7.57546808 11.1998313,7.74533218 11.1998313,7.93386268 L11.1998313,9.33384159 L0.466659639,9.33384159 C0.209063518,9.33384159 1.33226763e-14,9.54290511 1.33226763e-14,9.80050123 L1.33226763e-14,11.6671398 C1.33226763e-14,11.9247359 0.209063518,12.1337994 0.466659639,12.1337994 L11.1998313,12.1337994 L11.1998313,13.5337783 C11.1998313,13.7223088 11.3136963,13.8931063 11.488227,13.9649718 C11.6627577,14.0377708 11.8634213,13.997638 11.996886,13.8641734 L14.7968438,11.0642155 C14.9788411,10.8822183 14.9788411,10.5863561 14.7968438,10.4043588 Z" fill="#41EAD4"></path>
                </g>
            </g>
        </g>
    </g>
</svg>