<?xml version="1.0" encoding="UTF-8"?>
<svg width="26px" height="24px" viewBox="0 0 26 24" version="1.1" xmlns="http://www.w3.org/2000/svg" xmlns:xlink="http://www.w3.org/1999/xlink">
    <!-- Generator: Sketch 53.2 (72643) - https://sketchapp.com -->
    <title>news-green</title>
    <desc>Created with Sketch.</desc>
    <g id="Symbols" stroke="none" stroke-width="1" fill="none" fill-rule="evenodd">
        <g id="menu/news" transform="translate(-242.000000, -12.000000)" stroke="#41EAD4">
            <g id="news" transform="translate(240.000000, 13.000000)">
                <g id="news-green" transform="translate(3.000000, 0.000000)">
                    <polygon id="Stroke-1" stroke-linejoin="round" points="3.88235294 9.05882353 15.5294118 9.05882353 15.5294118 3.88235294 3.88235294 3.88235294"></polygon>
                    <path d="M3.23529412,12.2941176 L16.1764706,12.2941176" id="Stroke-2"></path>
                    <path d="M3.23529412,15.5294118 L16.1764706,15.5294118" id="Stroke-3"></path>
                    <path d="M3.23529412,18.7647059 L9.70588235,18.7647059" id="Stroke-4"></path>
                    <path d="M19.4117647,5.82352941 L22,5.82352941 C23.0721765,5.82352941 23.9411765,6.69252941 23.9411765,7.76470588 L23.9411765,19.7352941 C23.9411765,20.9860588 22.9272353,22 21.6764706,22 C20.4257059,22 19.4117647,20.9860588 19.4117647,19.7352941 L19.4117647,1.94117647 C19.4117647,0.869 18.5427647,0 17.4705882,0 L1.94117647,0 C0.869,0 0,0.869 0,1.94117647 L0,20.0588235 C0,21.131 0.869,22 1.94117647,22 L21.3529412,22" id="Stroke-5"></path>
                </g>
            </g>
        </g>
    </g>
</svg>