<?xml version="1.0" encoding="UTF-8"?>
<svg width="28px" height="24px" viewBox="0 0 28 24" version="1.1" xmlns="http://www.w3.org/2000/svg" xmlns:xlink="http://www.w3.org/1999/xlink">
    <!-- Generator: Sketch 53.2 (72643) - https://sketchapp.com -->
    <title>assets-green</title>
    <desc>Created with Sketch.</desc>
    <defs>
        <polygon id="path-1" points="0 0.0324503311 9.96766887 0.0324503311 9.96766887 9.99996689 0 9.99996689"></polygon>
    </defs>
    <g id="Symbols" stroke="none" stroke-width="1" fill="none" fill-rule="evenodd">
        <g id="menu/assets" transform="translate(-29.000000, -12.000000)">
            <g id="assets" transform="translate(21.000000, 13.000000)">
                <g id="assets-green" transform="translate(9.000000, 0.000000)">
                    <path d="M18.0512821,0 C13.689641,0 10.1538462,1.26246154 10.1538462,2.82051282 C10.1538462,4.3785641 13.689641,5.64102564 18.0512821,5.64102564 C22.4129231,5.64102564 25.9487179,4.3785641 25.9487179,2.82051282 C25.9487179,1.26246154 22.4129231,0 18.0512821,0 Z" id="Stroke-1" stroke="#41EAD4"></path>
                    <path d="M25.9487179,2.82051282 L25.9487179,5.64102564 C25.9487179,7.19851282 22.4129231,8.46153846 18.0512821,8.46153846 C17.1724103,8.46153846 16.3279487,8.41020513 15.5387692,8.316" id="Stroke-3" stroke="#41EAD4" stroke-linecap="round"></path>
                    <path d="M25.2898462,6.76923077 C25.7134872,7.11502564 25.9487179,7.49692308 25.9487179,7.8985641 L25.9487179,8.46266667 C25.9487179,10.0207179 22.4129231,11.2831795 18.0512821,11.2831795 C17.6925128,11.2831795 17.3388205,11.2747179 16.9930256,11.258359" id="Stroke-5" stroke="#41EAD4" stroke-linecap="round"></path>
                    <path d="M25.2898462,9.58974359 C25.7134872,9.93553846 25.9487179,10.3174359 25.9487179,10.7190769 L25.9487179,11.2831795 C25.9487179,12.8412308 22.4129231,14.1036923 18.0512821,14.1036923 C17.8459487,14.1036923 17.6417436,14.1008718 17.440359,14.0952308" id="Stroke-7" stroke="#41EAD4" stroke-linecap="round"></path>
                    <path d="M25.2898462,12.4102564 C25.7134872,12.7560513 25.9487179,13.1379487 25.9487179,13.5395897 L25.9487179,14.1036923 C25.9487179,15.6617436 22.4129231,16.9242051 18.0512821,16.9242051 C17.7252308,16.9242051 17.4031282,16.9174359 17.0872308,16.9033333" id="Stroke-9" stroke="#41EAD4" stroke-linecap="round"></path>
                    <path d="M25.2898462,15.2307692 C25.7134872,15.5765641 25.9487179,15.9584615 25.9487179,16.3601026 L25.9487179,16.9242051 C25.9487179,18.4822564 22.4129231,19.7447179 18.0512821,19.7447179 C17.2118974,19.7447179 16.4029744,19.6978974 15.6436923,19.6115897" id="Stroke-11" stroke="#41EAD4" stroke-linecap="round"></path>
                    <path d="M15.7948718,14.1025641 C15.7948718,18.4642051 12.2590769,22 7.8974359,22 C3.53579487,22 0,18.4642051 0,14.1025641 C0,9.74092308 3.53579487,6.20512821 7.8974359,6.20512821 C12.2590769,6.20512821 15.7948718,9.74092308 15.7948718,14.1025641 Z" id="Stroke-13" stroke="#41EAD4"></path>
                    <path d="M10.1538462,2.82051282 L10.1538462,4.51282051" id="Stroke-21" stroke="#41EAD4" stroke-linecap="round"></path>
                    <g id="Group-6" transform="translate(3.000000, 9.000000)">
                        <g id="Group-3">
                            <mask id="mask-2" fill="white">
                                <use xlink:href="#path-1"></use>
                            </mask>
                            <g id="Clip-2"></g>
                            <path d="M4.98376159,9.99996689 C2.23574834,9.99996689 -1.32450331e-05,7.76427152 -1.32450331e-05,5.01619205 C-1.32450331e-05,2.26817881 2.23574834,0.0324172185 4.98376159,0.0324172185 C5.37064901,0.0324172185 5.75939073,0.0783112583 6.1393245,0.168576159 C6.42654305,0.236788079 6.60402649,0.525 6.53581457,0.812152318 C6.4674702,1.09930464 6.17972185,1.27672185 5.89223841,1.20850993 C5.59309934,1.13745033 5.28753642,1.10142384 4.98376159,1.10142384 C2.82515232,1.10142384 1.06892715,2.85758278 1.06892715,5.01619205 C1.06892715,7.17486755 2.82515232,8.93102649 4.98376159,8.93102649 C7.14256954,8.93102649 8.89872848,7.17486755 8.89872848,5.01619205 C8.89872848,4.71188742 8.86256954,4.4055298 8.79104636,4.1057947 C8.72270199,3.81857616 8.90018543,3.53043046 9.18727152,3.46201987 C9.47462252,3.3934106 9.76250331,3.57096026 9.83104636,3.85811258 C9.92170861,4.23903974 9.96766887,4.62864238 9.96766887,5.01619205 C9.96766887,7.76427152 7.73190728,9.99996689 4.98376159,9.99996689" id="Fill-1" fill="#41EAD4" mask="url(#mask-2)"></path>
                        </g>
                        <path d="M8.70014988,1.30130882 C8.40642448,1.00767184 7.9303803,1.00767184 7.63659232,1.30130882 C7.63008317,1.30781601 7.62538907,1.31551201 7.61919286,1.32220691 C7.50121452,1.44897199 7.43349432,1.60595796 7.41959979,1.76744892 L7.41959979,1.76845002 C7.41959979,1.7948542 7.41859838,1.82119581 7.41715886,1.84810054 C7.41603227,1.86630816 7.41334099,1.88439064 7.41152594,1.90253569 C7.38192182,2.20111563 7.25367905,2.49137388 7.02510775,2.71981381 C6.68350255,3.06137875 6.20445414,3.18157407 5.76602534,3.07946123 C5.73178971,3.07164009 5.69805479,3.06237986 5.66488316,3.05161797 C5.52174445,3.01701723 5.3751634,3.00087439 5.22877011,3.00300174 C4.81356144,3.00900838 4.4019203,3.16543123 4.07564915,3.4663888 C4.05824969,3.4824065 4.03941071,3.49598401 4.02263713,3.51287767 C3.79350253,3.74181816 3.64341656,4.01899945 3.56849874,4.31138505 C3.42060334,4.8883351 3.57075191,5.52578951 4.02263713,5.97747614 C4.5227151,6.47746614 5.25117661,6.60848592 5.87261267,6.37328852 C6.09661505,6.28844477 6.30709843,6.15736242 6.48747699,5.97703815 C6.56164375,5.90289372 6.62473243,5.8222421 6.68275149,5.73908771 C6.97209573,5.32431687 7.06297347,4.81287672 6.94937629,4.33860263 C6.93917445,4.30719292 6.93103801,4.27565807 6.92346487,4.24387295 C6.92233828,4.23911769 6.92064841,4.23442501 6.91958441,4.22966975 C6.81931847,3.79237403 6.93961256,3.31540946 7.28027894,2.97484563 C7.51410764,2.74108732 7.8127149,2.61232003 8.11808165,2.58666668 C8.12803314,2.58579071 8.13792204,2.58410134 8.14787353,2.58347565 C8.17622589,2.58153601 8.20457824,2.58047233 8.2329306,2.58047233 C8.23480824,2.5805349 8.23781246,2.5805349 8.23975269,2.5805349 C8.40792659,2.56489262 8.57109346,2.49256269 8.69964917,2.36404568 C8.73012952,2.3335745 8.75560283,2.30016258 8.7796992,2.26618754 C8.98836753,1.97261313 8.96295681,1.56403664 8.70014988,1.30130882" id="Fill-4" fill="#41EAD4"></path>
                    </g>
                </g>
            </g>
        </g>
    </g>
</svg>