<?xml version="1.0" encoding="UTF-8"?>
<svg width="14px" height="16px" viewBox="0 0 14 16" version="1.1" xmlns="http://www.w3.org/2000/svg" xmlns:xlink="http://www.w3.org/1999/xlink">
    <!-- Generator: Sketch 53.2 (72643) - https://sketchapp.com -->
    <title>share</title>
    <desc>Created with Sketch.</desc>
    <g id="News" stroke="none" stroke-width="1" fill="none" fill-rule="evenodd">
        <g id="News-Feed-Single-Article-white" transform="translate(-346.000000, -100.000000)" fill="#1E2938">
            <g id="share" transform="translate(346.000000, 100.000000)">
                <path d="M13.4105588,15.0931315 L13.4105588,6.59126667 C13.4105588,6.2226 13.1031078,5.9246 12.7242843,5.9246 L10.3401667,5.9246 C9.96202941,5.9246 9.65389216,6.2226 9.65389216,6.59126667 C9.65389216,6.95926667 9.96202941,7.25726667 10.3401667,7.25726667 L12.0380098,7.25726667 L12.0380098,14.4264648 L1.37261765,14.4264648 L1.37261765,7.25726667 L2.83232353,7.25726667 C3.21114706,7.25726667 3.51859804,6.95926667 3.51859804,6.59126667 C3.51859804,6.2226 3.21114706,5.9246 2.83232353,5.9246 L0.686343137,5.9246 C0.306833333,5.9246 6.8627451e-05,6.2226 6.8627451e-05,6.59126667 L6.8627451e-05,15.0931315 C6.8627451e-05,15.4617982 0.306833333,15.7597982 0.686343137,15.7597982 L12.7242843,15.7597982 C13.1031078,15.7597982 13.4105588,16.2212667 13.4105588,15.8526" id="Fill-1"></path>
                <path d="M3.14190196,4.04153333 L6.02013725,2.02886667 L6.02013725,11.6328667 C6.02013725,12.0008667 6.32758824,12.2995333 6.70572549,12.2995333 C7.08523529,12.2995333 7.392,12.0008667 7.392,11.6328667 L7.392,2.02953333 L10.269549,4.04153333 C10.5680784,4.26886667 10.9997451,4.21553333 11.2323922,3.92486667 C11.4650392,3.6342 11.4108235,3.21553333 11.1116078,2.98953333 L7.12778431,0.1402 C7.10101961,0.1202 7.07013725,0.110866667 7.04131373,0.0955333333 C7.01660784,0.0822 6.99533333,0.0682 6.97062745,0.0575333333 C6.88552941,0.0235333333 6.797,0.0002 6.70572549,0.0002 C6.61445098,0.0002 6.52523529,0.0242 6.43876471,0.0595333333 C6.42778431,0.0642 6.41543137,0.0622 6.40445098,0.0675333333 C6.377,0.0808666667 6.35435294,0.100866667 6.32964706,0.116866667 C6.31454902,0.126866667 6.29876471,0.1302 6.28503922,0.1402 L2.29847059,2.98953333 C1.99994118,3.21553333 1.94572549,3.6342 2.17905882,3.92486667 C2.41170588,4.21486667 2.842,4.2682 3.14190196,4.04153333" id="Fill-4"></path>
            </g>
        </g>
    </g>
</svg>