<?xml version="1.0" encoding="UTF-8"?>
<svg width="19px" height="18px" viewBox="0 0 19 18" version="1.1" xmlns="http://www.w3.org/2000/svg" xmlns:xlink="http://www.w3.org/1999/xlink">
    <!-- Generator: Sketch 53.2 (72643) - https://sketchapp.com -->
    <title>logout</title>
    <desc>Created with Sketch.</desc>
    <defs>
        <polygon id="path-1" points="0.246190909 0.327640909 8.75372727 0.327640909 8.75372727 8.83714091 0.246190909 8.83714091"></polygon>
        <polygon id="path-3" points="4.09090909e-05 0.000163636364 11.7822682 0.000163636364 11.7822682 18 4.09090909e-05 18"></polygon>
    </defs>
    <g id="Setting" stroke="none" stroke-width="1" fill="none" fill-rule="evenodd">
        <g id="Settings---Main" transform="translate(-33.000000, -154.000000)">
            <g id="logout" transform="translate(33.000000, 154.000000)">
                <g id="Group-3" transform="translate(9.590909, 3.272727)">
                    <mask id="mask-2" fill="white">
                        <use xlink:href="#path-1"></use>
                    </mask>
                    <g id="Clip-2"></g>
                    <path d="M8.72991818,4.70614091 C8.76182727,4.62636818 8.76182727,4.53677727 8.72991818,4.45700455 C8.71232727,4.41691364 8.68819091,4.38009545 8.65791818,4.34982273 L4.73187273,0.423368182 C4.60382727,0.295731818 4.39600909,0.295731818 4.26837273,0.423368182 C4.14032727,0.551413636 4.14032727,0.757595455 4.26837273,0.885231818 L7.63682727,4.25368636 L0.572236364,4.25368636 C0.391418182,4.25368636 0.246190909,4.40095909 0.246190909,4.58136818 C0.246190909,4.76218636 0.391418182,4.90905 0.572236364,4.90905 L7.63682727,4.90905 L4.26837273,8.27750455 C4.14032727,8.40555 4.14032727,8.61336818 4.26837273,8.74100455 C4.33219091,8.80523182 4.41687273,8.83714091 4.49991818,8.83714091 C4.58296364,8.83714091 4.66764545,8.80523182 4.73187273,8.74100455 L8.65791818,4.81332273 C8.68819091,4.78264091 8.71232727,4.74745909 8.72991818,4.70614091" id="Fill-1" fill="#C9C9C9" mask="url(#mask-2)"></path>
                </g>
                <g id="Group-6">
                    <mask id="mask-4" fill="white">
                        <use xlink:href="#path-3"></use>
                    </mask>
                    <g id="Clip-5"></g>
                    <path d="M7.20085909,17.2249364 L0.655404545,15.1426636 L0.655404545,0.775390909 L7.20085909,2.85684545 L7.20085909,17.2249364 Z M11.4545864,9.49066364 C11.2741773,9.49066364 11.1269045,9.63752727 11.1269045,9.81834545 L11.1269045,15.0547091 L7.85417727,15.0547091 L7.85417727,2.61711818 C7.85417727,2.47516364 7.76172273,2.34916364 7.62590455,2.30620909 L2.43535909,0.655527273 L11.1269045,0.655527273 L11.1269045,5.88984545 C11.1269045,6.07270909 11.2741773,6.21793636 11.4545864,6.21793636 C11.6349955,6.21793636 11.7822682,6.07270909 11.7822682,5.88984545 L11.7822682,0.327436364 C11.7822682,0.146618182 11.6349955,0.000163636364 11.4545864,0.000163636364 L0.327722727,0.000163636364 C0.316268182,0.000163636364 0.308495455,0.00507272727 0.29745,0.00670909091 C0.279859091,0.00834545455 0.263904545,0.0108 0.246313636,0.0161181818 C0.215631818,0.0243 0.186995455,0.0349363636 0.161631818,0.0513 C0.151813636,0.0578454545 0.142404545,0.0578454545 0.134222727,0.0619363636 C0.124813636,0.0701181818 0.116631818,0.0795272727 0.107222727,0.0877090909 C0.100677273,0.0930272727 0.0957681818,0.0971181818 0.0912681818,0.103663636 C0.0654954545,0.130663636 0.0446318182,0.160118182 0.0303136364,0.193663636 C0.0270409091,0.199390909 0.0254045455,0.205936364 0.0225409091,0.212890909 C0.00945,0.248890909 4.09090909e-05,0.287754545 4.09090909e-05,0.327436364 L4.09090909e-05,15.3823909 C4.09090909e-05,15.4224818 0.00945,15.4609364 0.0241772727,15.4973455 C0.0286772727,15.5104364 0.0352227273,15.5202545 0.0417681818,15.5308909 C0.0528136364,15.5550273 0.0671318182,15.5758909 0.0847227273,15.5967545 C0.0941318182,15.6061636 0.10395,15.6155727 0.113359091,15.6253909 C0.132586364,15.6413455 0.15345,15.6556636 0.177586364,15.6683455 C0.188631818,15.6748909 0.199677273,15.6814364 0.212768182,15.6859364 C0.218904545,15.6875727 0.222177273,15.6924818 0.228722727,15.6941182 L7.42913182,17.9854364 C7.46104091,17.9952545 7.49458636,18.0001636 7.52649545,18.0001636 C7.59522273,18.0001636 7.66395,17.9776636 7.71999545,17.9375727 C7.80467727,17.8753909 7.85417727,17.7780273 7.85417727,17.6724818 L7.85417727,15.7084364 L11.4545864,15.7084364 C11.6349955,15.7084364 11.7822682,15.5632091 11.7822682,15.3823909 L11.7822682,9.81834545 C11.7822682,9.63752727 11.6349955,9.49066364 11.4545864,9.49066364 L11.4545864,9.49066364 Z" id="Fill-4" fill="#C9C9C9" mask="url(#mask-4)"></path>
                </g>
            </g>
        </g>
    </g>
</svg>