<?xml version="1.0" encoding="UTF-8"?>
<svg width="67px" height="63px" viewBox="0 0 67 63" version="1.1" xmlns="http://www.w3.org/2000/svg" xmlns:xlink="http://www.w3.org/1999/xlink">
    <!-- Generator: Sketch 53.2 (72643) - https://sketchapp.com -->
    <title>delete wallet</title>
    <desc>Created with Sketch.</desc>
    <g id="Setting" stroke="none" stroke-width="1" fill="none" fill-rule="evenodd">
        <g id="Delete-Wallet-alert" transform="translate(-148.000000, -255.000000)">
            <g id="delete-wallet" transform="translate(148.000000, 255.000000)">
                <path d="M57.2113825,32.4362922 C57.2113825,33.7243331 56.1688783,34.7670425 54.8808375,34.7670425 C53.5930019,34.7670425 52.5504978,33.7243331 52.5504978,32.4362922 C52.5504978,31.1492779 53.5938231,30.1059525 54.8808375,30.1059525 C56.1688783,30.1059525 57.2113825,31.1500991 57.2113825,32.4362922 L57.2113825,32.4362922 Z M64.3366666,36.9680444 L53.9787572,36.9680444 C51.5568545,36.9680444 49.5872237,34.9986189 49.5872237,32.5769215 L49.5872237,32.1230072 C49.5872237,29.7019257 51.5568545,27.7322949 53.9787572,27.7322949 L64.3366666,27.7322949 L64.3366666,36.9680444 Z M61.6975584,49.7221942 C61.6975584,51.46805 60.2773056,52.8883029 58.5314498,52.8883029 L17.2776005,52.8883029 C15.5317447,52.8883029 14.110876,51.46805 14.110876,49.7221942 L14.110876,13.4823425 C14.110876,11.7364867 15.5317447,10.3154127 17.2776005,10.3154127 L29.1608754,10.3154127 L24.0984274,13.1310773 L17.9376341,13.1310773 C17.3537661,13.1310773 16.881375,13.6036737 16.881375,14.1865153 C16.881375,14.7695621 17.3537661,15.2419532 17.9376341,15.2419532 L61.6975584,15.2419532 L61.6975584,25.6224454 L53.9787572,25.6224454 C50.3940456,25.6224454 47.4765531,28.539938 47.4765531,32.1244443 L47.4765531,32.5783586 C47.4765531,36.1630702 50.3940456,39.0805627 53.9787572,39.0805627 L61.6975584,39.0805627 L61.6975584,49.7221942 Z M48.0201827,2.24411447 C48.5151566,1.96655133 49.1815545,2.16055811 49.4541905,2.65388965 L55.2811689,13.1296402 L28.4431529,13.1296402 L48.0201827,2.24411447 Z M58.5314498,10.3154127 C60.1570009,10.3154127 61.4840483,11.5506919 61.6630683,13.1310773 L57.6965021,13.1310773 L56.1319246,10.3154127 L58.5314498,10.3154127 Z M66.4473373,25.6216242 L63.8090503,25.6216242 L63.8090503,13.4823425 C63.8090503,10.5720354 61.4415516,8.20474201 58.5314498,8.20474201 L54.9572084,8.20474201 L51.2994106,1.62883581 C50.742026,0.623901188 49.681045,0 48.5311699,0 C47.9945204,0 47.4630034,0.137960381 46.9930759,0.398689078 L32.9564283,8.20474201 L17.2776005,8.20474201 C14.3672934,8.20474201 12,10.5720354 12,13.4823425 L12,49.7221942 C12,52.6316801 14.3672934,55 17.2776005,55 L58.5314498,55 C61.4415516,55 63.8090503,52.6316801 63.8090503,49.7221942 L63.8090503,39.0789204 L66.4473373,39.0789204 L66.4473373,25.6216242 Z" id="Fill-1" fill="#DC0333"></path>
                <circle id="Oval" fill="#DC0333" cx="14" cy="49" r="14"></circle>
                <g id="trash/white" transform="translate(7.000000, 42.000000)" fill="#FFFFFF">
                    <g id="trash">
                        <path d="M12.495,3.07617188 C12.495,3.31848633 12.2948122,3.515625 12.04875,3.515625 L1.33875,3.515625 C1.09268775,3.515625 0.8925,3.31848633 0.8925,3.07617188 C0.8925,2.83385742 1.09268775,2.63671875 1.33875,2.63671875 L12.04875,2.63671875 C12.2948122,2.63671875 12.495,2.83385742 12.495,3.07617188 L12.495,3.07617188 Z M10.779734,13.7181445 C10.7606047,13.944082 10.565296,14.1210938 10.335031,14.1210938 L3.052469,14.1210938 C2.82223375,14.1210938 2.62689525,13.944082 2.6078255,13.7183496 L1.8234965,4.39453125 L11.5640035,4.39453125 L10.779734,13.7181445 Z M4.4625,1.31835938 C4.4625,1.07604492 4.66268775,0.87890625 4.90875,0.87890625 L8.47875,0.87890625 C8.72481225,0.87890625 8.925,1.07604492 8.925,1.31835938 L8.925,1.7578125 L4.4625,1.7578125 L4.4625,1.31835938 Z M8.47875,0 L4.90875,0 C4.17056325,0 3.57,0.591416016 3.57,1.31835938 L3.57,1.7578125 L1.33875,1.7578125 C0.60056325,1.7578125 0,2.34922852 0,3.07617188 C0,3.66 0.38749375,4.15608398 0.92239875,4.32893555 L1.71836,13.7910937 C1.77568825,14.4689941 2.36170375,15 3.052469,15 L10.335031,15 C11.025826,15 11.6118415,14.4689941 11.6691995,13.7908887 L12.4651013,4.32890625 C13.0000063,4.15608398 13.3875,3.66 13.3875,3.07617188 C13.3875,2.34922852 12.7869368,1.7578125 12.04875,1.7578125 L9.8175,1.7578125 L9.8175,1.31835938 C9.8175,0.591416016 9.216907,0 8.47875,0 L8.47875,0 Z" id="Fill-1"></path>
                        <path d="M4.01707705,12.8299131 C4.0317438,13.0629111 4.2282128,13.2421787 4.4620478,13.2421787 C4.72048605,13.2421787 4.92373805,13.0278428 4.9078813,12.7755381 L4.4616313,5.68566504 C4.44636955,5.44343848 4.2334488,5.25916113 3.98863605,5.27424902 C3.7426333,5.28927832 3.55559505,5.49781348 3.57082705,5.74006934 L4.01707705,12.8299131 Z" id="Fill-3"></path>
                        <path d="M6.69375,13.2421875 C6.940199,13.2421875 7.14,13.0454297 7.14,12.8027344 L7.14,5.71289062 C7.14,5.47019531 6.940199,5.2734375 6.69375,5.2734375 C6.447301,5.2734375 6.2475,5.47019531 6.2475,5.71289062 L6.2475,12.8027344 C6.2475,13.0454297 6.447301,13.2421875 6.69375,13.2421875" id="Fill-5"></path>
                        <path d="M8.89740092,13.2413291 C9.14349293,13.2563584 9.35516418,13.0720811 9.37036643,12.8299131 L9.81661643,5.74009863 C9.83187817,5.49781348 9.64483993,5.28927832 9.39880742,5.27427832 C9.15336992,5.25924902 8.94107392,5.44346777 8.92584193,5.68569434 L8.47959193,12.7755674 C8.46435993,13.0177646 8.65139817,13.2262998 8.89740092,13.2413291" id="Fill-7"></path>
                    </g>
                </g>
            </g>
        </g>
    </g>
</svg>